<svg xmlns="http://www.w3.org/2000/svg" xmlns:xlink="http://www.w3.org/1999/xlink" width="500" zoomAndPan="magnify" viewBox="0 0 375 225" height="300" preserveAspectRatio="xMidYMid meet" version="1.0"><defs><g/><clipPath id="id1"><path d="M 30 87 L 59 87 L 59 112.957031 L 30 112.957031 Z M 30 87 " clip-rule="nonzero"/></clipPath><clipPath id="id2"><path d="M 48 155 L 93 155 L 93 162.191406 L 48 162.191406 Z M 48 155 " clip-rule="nonzero"/></clipPath><clipPath id="id3"><path d="M 12 75.191406 L 112.84375 75.191406 L 112.84375 162.191406 L 12 162.191406 Z M 12 75.191406 " clip-rule="nonzero"/></clipPath><clipPath id="id4"><path d="M 12 130 L 111 130 L 111 162.191406 L 12 162.191406 Z M 12 130 " clip-rule="nonzero"/></clipPath><clipPath id="id5"><path d="M 23 106 L 112.84375 106 L 112.84375 162.191406 L 23 162.191406 Z M 23 106 " clip-rule="nonzero"/></clipPath><clipPath id="id6"><path d="M 48 144 L 93 144 L 93 162.191406 L 48 162.191406 Z M 48 144 " clip-rule="nonzero"/></clipPath></defs><path fill="#8aa2d4" d="M 50.949219 62.148438 C 49.953125 61.539062 48.539062 61.96875 47.683594 62.09375 C 46.875 62.210938 46.054688 62.359375 45.214844 62.421875 C 41.335938 62.710938 36.695312 62.527344 33.042969 60.371094 C 31.652344 59.546875 30.542969 58.308594 29.519531 57.058594 C 28.824219 56.207031 28.183594 54.546875 27.15625 54.171875 C 26.042969 53.765625 25.496094 55.304688 24.949219 56.066406 C 24.292969 56.992188 23.652344 57.964844 22.769531 58.699219 C 21.179688 60.023438 19.328125 61.039062 17.351562 61.628906 C 14.054688 62.609375 10.863281 62.609375 7.652344 62.355469 C 6.300781 62.246094 5.09375 61.832031 3.832031 61.589844 C 1.378906 61.140625 1.625 65.476562 1.410156 66.710938 C 1.070312 68.4375 0.773438 70.160156 0.554688 71.875 C 0.160156 74.992188 0.0078125 78.097656 0.335938 81.1875 C 0.847656 86.074219 2.71875 90.839844 5.992188 95.246094 C 8.609375 98.769531 11.890625 101.960938 15.265625 104.785156 C 17.730469 106.84375 20.28125 108.761719 22.90625 110.285156 C 24.0625 110.953125 25.238281 111.558594 26.492188 111.839844 C 26.554688 111.855469 26.695312 111.914062 26.753906 111.894531 C 27.863281 111.554688 28.894531 111.226562 29.960938 110.644531 C 32.433594 109.304688 34.828125 107.550781 37.148438 105.683594 C 40.480469 103 43.742188 99.957031 46.46875 96.601562 C 49.828125 92.449219 52.054688 87.917969 52.890625 83.203125 C 53.515625 79.703125 53.449219 76.210938 53.058594 72.675781 C 52.777344 70.175781 52.125 67.671875 51.953125 65.167969 C 51.898438 64.355469 52.074219 63.273438 51.367188 62.496094 C 51.238281 62.351562 51.097656 62.238281 50.949219 62.148438 Z M 50.949219 62.148438 " fill-opacity="1" fill-rule="nonzero"/><path fill="#414370" d="M 26.675781 107.675781 C 25.675781 107.675781 18.9375 105.089844 12.566406 99.339844 C 8.347656 95.390625 5.519531 91.1875 3.917969 86.492188 C 1.816406 80.324219 1.957031 73.378906 4.332031 65.851562 C 4.335938 65.828125 4.34375 65.804688 4.355469 65.785156 C 4.402344 65.679688 4.511719 65.613281 4.625 65.613281 C 4.6875 65.613281 4.746094 65.625 5.015625 65.695312 C 5.878906 65.910156 8.507812 66.570312 11.804688 66.570312 C 16.039062 66.570312 22.027344 65.445312 26.53125 60.09375 C 26.585938 60.027344 26.671875 59.988281 26.753906 59.988281 C 26.84375 59.988281 26.925781 60.027344 26.980469 60.09375 C 31.269531 65.25 37.566406 66.332031 42.09375 66.332031 C 44.910156 66.332031 47.167969 65.921875 48.015625 65.769531 C 48.304688 65.714844 48.390625 65.699219 48.453125 65.699219 C 48.566406 65.699219 48.683594 65.765625 48.730469 65.867188 C 48.742188 65.886719 48.75 65.910156 48.753906 65.933594 C 51.113281 73.488281 51.269531 80.445312 49.214844 86.605469 C 47.648438 91.304688 44.871094 95.496094 40.726562 99.417969 C 34.140625 105.425781 27.65625 107.671875 26.832031 107.671875 C 26.804688 107.671875 26.78125 107.671875 26.757812 107.667969 C 26.734375 107.671875 26.707031 107.675781 26.675781 107.675781 Z M 26.675781 107.09375 L 26.675781 107.382812 L 26.679688 107.09375 C 26.679688 107.09375 26.675781 107.09375 26.675781 107.09375 Z M 4.820312 66.242188 C 0.761719 79.300781 3.425781 89.992188 12.960938 98.914062 C 19.425781 104.75 25.789062 107.023438 26.640625 107.09375 C 26.675781 107.078125 26.722656 107.074219 26.753906 107.070312 C 26.792969 107.070312 26.832031 107.078125 26.867188 107.09375 C 27.71875 107.023438 34 104.769531 40.332031 98.996094 C 49.570312 90.25 52.242188 79.25 48.261719 66.3125 C 48.21875 66.320312 48.171875 66.328125 48.121094 66.335938 C 47.257812 66.496094 44.960938 66.914062 42.09375 66.914062 C 37.519531 66.914062 31.179688 65.832031 26.753906 60.726562 C 22.132812 66.027344 16.089844 67.148438 11.804688 67.148438 C 8.433594 67.148438 5.753906 66.476562 4.871094 66.253906 C 4.855469 66.25 4.835938 66.246094 4.820312 66.242188 Z M 4.820312 66.242188 " fill-opacity="1" fill-rule="nonzero"/><path fill="#ffffff" d="M 38.660156 77.210938 C 36.960938 77.015625 35.25 76.871094 33.539062 76.757812 C 33.566406 74.980469 33.585938 73.207031 33.597656 71.433594 C 33.605469 70.355469 33.1875 69.320312 32.425781 68.515625 C 31.632812 67.679688 30.527344 67.179688 29.382812 67.148438 C 27.628906 67.101562 25.878906 67.101562 24.128906 67.148438 C 22.984375 67.179688 21.878906 67.679688 21.085938 68.515625 C 20.324219 69.320312 19.90625 70.355469 19.914062 71.429688 C 19.925781 73.203125 19.945312 74.980469 19.972656 76.757812 C 18.261719 76.867188 16.550781 77.015625 14.851562 77.207031 C 12.601562 77.46875 10.890625 79.457031 11.070312 81.628906 C 11.1875 83.050781 11.316406 84.476562 11.453125 85.902344 C 11.671875 88.121094 13.691406 89.828125 15.992188 89.644531 C 17.40625 89.53125 18.835938 89.445312 20.265625 89.375 C 20.320312 91.097656 20.378906 92.820312 20.445312 94.542969 C 20.535156 96.796875 22.359375 98.609375 24.574219 98.628906 C 24.597656 98.628906 24.621094 98.628906 24.644531 98.628906 C 26.050781 98.613281 27.457031 98.613281 28.871094 98.628906 C 28.890625 98.628906 28.914062 98.628906 28.9375 98.628906 C 31.15625 98.609375 32.976562 96.796875 33.066406 94.539062 C 33.132812 92.816406 33.191406 91.097656 33.246094 89.375 C 34.675781 89.445312 36.105469 89.53125 37.519531 89.644531 C 37.65625 89.65625 37.789062 89.660156 37.921875 89.660156 C 40.058594 89.617188 41.851562 87.992188 42.058594 85.898438 C 42.195312 84.476562 42.320312 83.050781 42.4375 81.632812 C 42.621094 79.457031 40.910156 77.46875 38.660156 77.210938 Z M 38.660156 77.210938 " fill-opacity="1" fill-rule="nonzero"/><g clip-path="url(#id1)"><path fill="#f08486" d="M 43.710938 92.546875 C 41.871094 88.1875 39.097656 87.9375 36.316406 89.570312 C 33.597656 91.207031 30.871094 94.726562 30.683594 97.960938 C 30.503906 101.902344 31.613281 103.015625 35.171875 105 C 38 106.558594 42.183594 109.160156 42.71875 112.890625 C 42.585938 109.535156 47.75 107.855469 49.875 106.910156 C 53.382812 105.394531 56.53125 105.042969 57.78125 101.082031 C 59.25 96.617188 56.21875 91.835938 53.003906 89.40625 C 49.664062 87 46.140625 86.949219 43.710938 92.546875 Z M 43.710938 92.546875 " fill-opacity="1" fill-rule="nonzero"/></g><g clip-path="url(#id2)"><path fill="#1d949a" d="M 61.78125 158.375 C 61.78125 158.375 59.691406 165.140625 60.46875 178.304688 C 61.25 191.492188 65.371094 196.40625 66.222656 198.875 C 67.078125 201.347656 65.582031 206.792969 64.046875 206.542969 C 62.007812 206.210938 61.550781 201.878906 61.550781 201.878906 C 61.550781 201.878906 58.605469 207.183594 56.746094 206.773438 C 54.753906 206.332031 55.882812 201.335938 55.882812 201.335938 C 55.882812 201.335938 51.304688 204.433594 50.535156 203.539062 C 49.769531 202.644531 53.203125 198.707031 53.203125 198.707031 C 42.960938 177.75 53.203125 155.015625 53.203125 155.015625 Z M 79.648438 158.375 C 79.648438 158.375 81.738281 165.140625 80.960938 178.304688 C 80.179688 191.492188 76.0625 196.40625 75.207031 198.875 C 74.351562 201.347656 75.847656 206.792969 77.382812 206.542969 C 79.421875 206.210938 79.878906 201.878906 79.878906 201.878906 C 79.878906 201.878906 82.824219 207.183594 84.683594 206.773438 C 86.679688 206.332031 85.546875 201.335938 85.546875 201.335938 C 85.546875 201.335938 90.125 204.433594 90.894531 203.539062 C 91.660156 202.644531 88.226562 198.707031 88.226562 198.707031 C 98.46875 177.75 88.226562 155.015625 88.226562 155.015625 Z M 79.648438 158.375 " fill-opacity="1" fill-rule="nonzero"/></g><g clip-path="url(#id3)"><path fill="#2dbcb7" d="M 112.183594 177.332031 C 112.1875 177.335938 112.1875 177.335938 112.1875 177.339844 C 111.15625 184.617188 108.496094 188.511719 107.457031 188.589844 C 106.601562 188.652344 106.816406 185.601562 106.816406 185.601562 C 106.816406 185.601562 104.703125 190.1875 103.742188 189.867188 C 102.78125 189.546875 103.089844 184.855469 103.089844 184.855469 C 103.089844 184.855469 101.753906 187.554688 100.542969 187.183594 C 99.707031 186.929688 101.105469 175.535156 101.105469 175.535156 C 101.375 171.152344 102.050781 166.207031 101.179688 162.605469 C 99.753906 156.710938 95.464844 153.324219 94.472656 152.605469 C 87.640625 157.929688 77.847656 159.007812 70.703125 159.007812 C 63.824219 159.007812 54.484375 158.007812 47.699219 153.179688 C 45.140625 155.773438 33.839844 161.65625 24.617188 156.898438 C 19.070312 154.039062 15.792969 149.191406 14.46875 144.664062 C 13.621094 142.339844 11.609375 133.128906 12.503906 133.097656 C 13.28125 133.074219 14.863281 134.640625 15.28125 135.066406 C 15.308594 135.035156 15.332031 135.007812 15.359375 134.976562 C 15.253906 134.09375 14.890625 130.558594 15.898438 130.449219 C 17.050781 130.320312 18.84375 133.71875 18.84375 133.71875 C 18.84375 133.71875 19.546875 130.832031 20.378906 130.832031 C 21.210938 130.832031 24.242188 138.910156 24.253906 138.949219 C 26.257812 142.316406 28.179688 146.417969 31.105469 148.378906 C 35.683594 151.449219 41.101562 149.550781 43.078125 148.671875 C 40.152344 144.707031 38.46875 139.269531 38.949219 131.839844 C 40.054688 114.664062 51.917969 108.28125 61.4375 106.054688 C 60.273438 104.933594 58.6875 103.609375 56.738281 102.453125 C 52.300781 99.8125 49.738281 97.9375 50.847656 96.0625 C 51.957031 94.1875 59.128906 94.871094 65.445312 104.070312 C 63.484375 97.085938 61.347656 93.679688 59.554688 91.035156 C 57.761719 88.394531 60.066406 84.734375 64.933594 88.140625 C 69.566406 91.386719 70.5625 101.765625 69.984375 104.957031 C 70.027344 104.957031 70.070312 104.957031 70.113281 104.953125 C 72.503906 100.40625 73.375 96.964844 73.042969 88.140625 C 72.703125 79.039062 75.347656 75.191406 77.652344 75.191406 C 80.042969 75.191406 82.496094 81.097656 79.847656 93.539062 C 78.226562 100.265625 75.265625 104.070312 75.265625 104.070312 C 75.265625 104.070312 82.605469 96.746094 84.570312 90.78125 C 86.53125 84.816406 93.019531 85.925781 90.886719 93.761719 C 89.492188 98.882812 84.125 103.496094 80.070312 106.078125 C 89.574219 108.328125 101.359375 114.726562 102.460938 131.839844 C 102.902344 138.683594 101.503906 143.835938 98.996094 147.707031 C 103.160156 149.964844 109.714844 155.632812 111.597656 164.308594 C 112.667969 169.265625 112.796875 173.757812 112.183594 177.332031 Z M 112.183594 177.332031 C 112.1875 177.335938 112.1875 177.335938 112.1875 177.339844 C 111.15625 184.617188 108.496094 188.511719 107.457031 188.589844 C 106.601562 188.652344 106.816406 185.601562 106.816406 185.601562 C 106.816406 185.601562 104.703125 190.1875 103.742188 189.867188 C 102.78125 189.546875 103.089844 184.855469 103.089844 184.855469 C 103.089844 184.855469 101.753906 187.554688 100.542969 187.183594 C 99.707031 186.929688 101.105469 175.535156 101.105469 175.535156 C 101.375 171.152344 102.050781 166.207031 101.179688 162.605469 C 99.753906 156.710938 95.464844 153.324219 94.472656 152.605469 C 87.640625 157.929688 77.847656 159.007812 70.703125 159.007812 C 63.824219 159.007812 54.484375 158.007812 47.699219 153.179688 C 45.140625 155.773438 33.839844 161.65625 24.617188 156.898438 C 19.070312 154.039062 15.792969 149.191406 14.46875 144.664062 C 13.621094 142.339844 11.609375 133.128906 12.503906 133.097656 C 13.28125 133.074219 14.863281 134.640625 15.28125 135.066406 C 15.308594 135.035156 15.332031 135.007812 15.359375 134.976562 C 15.253906 134.09375 14.890625 130.558594 15.898438 130.449219 C 17.050781 130.320312 18.84375 133.71875 18.84375 133.71875 C 18.84375 133.71875 19.546875 130.832031 20.378906 130.832031 C 21.210938 130.832031 24.242188 138.910156 24.253906 138.949219 C 26.257812 142.316406 28.179688 146.417969 31.105469 148.378906 C 35.683594 151.449219 41.101562 149.550781 43.078125 148.671875 C 40.152344 144.707031 38.46875 139.269531 38.949219 131.839844 C 40.054688 114.664062 51.917969 108.28125 61.4375 106.054688 C 60.273438 104.933594 58.6875 103.609375 56.738281 102.453125 C 52.300781 99.8125 49.738281 97.9375 50.847656 96.0625 C 51.957031 94.1875 59.128906 94.871094 65.445312 104.070312 C 63.484375 97.085938 61.347656 93.679688 59.554688 91.035156 C 57.761719 88.394531 60.066406 84.734375 64.933594 88.140625 C 69.566406 91.386719 70.5625 101.765625 69.984375 104.957031 C 70.027344 104.957031 70.070312 104.957031 70.113281 104.953125 C 72.503906 100.40625 73.375 96.964844 73.042969 88.140625 C 72.703125 79.039062 75.347656 75.191406 77.652344 75.191406 C 80.042969 75.191406 82.496094 81.097656 79.847656 93.539062 C 78.226562 100.265625 75.265625 104.070312 75.265625 104.070312 C 75.265625 104.070312 82.605469 96.746094 84.570312 90.78125 C 86.53125 84.816406 93.019531 85.925781 90.886719 93.761719 C 89.492188 98.882812 84.125 103.496094 80.070312 106.078125 C 89.574219 108.328125 101.359375 114.726562 102.460938 131.839844 C 102.902344 138.683594 101.503906 143.835938 98.996094 147.707031 C 103.160156 149.964844 109.714844 155.632812 111.597656 164.308594 C 112.667969 169.265625 112.796875 173.757812 112.183594 177.332031 Z M 41.066406 114.550781 C 37.890625 114.550781 34.941406 115.789062 32.765625 118.042969 C 30.941406 119.933594 28.8125 123.398438 29.03125 129.179688 C 29.214844 134.136719 31.464844 136.84375 33.320312 138.242188 C 35.367188 139.785156 38.113281 140.632812 41.050781 140.632812 C 41.460938 140.632812 41.875 140.617188 42.28125 140.585938 C 45.476562 140.320312 47.917969 139.351562 49.742188 137.625 C 52.074219 135.417969 53.253906 132.035156 53.253906 127.570312 C 53.253906 119.175781 48.925781 114.550781 41.066406 114.550781 Z M 112.636719 126.003906 C 112.449219 121.050781 110.199219 118.339844 108.34375 116.941406 C 106.300781 115.398438 103.554688 114.550781 100.613281 114.550781 C 100.203125 114.550781 99.789062 114.566406 99.382812 114.601562 C 96.1875 114.863281 93.75 115.832031 91.921875 117.558594 C 89.59375 119.765625 88.410156 123.148438 88.410156 127.613281 C 88.410156 136.011719 92.738281 140.632812 100.597656 140.632812 C 103.773438 140.632812 106.722656 139.394531 108.898438 137.140625 C 110.722656 135.25 112.851562 131.785156 112.636719 126.003906 Z M 112.636719 126.003906 " fill-opacity="1" fill-rule="nonzero"/></g><path fill="#0e0f1a" d="M 49.839844 127.574219 C 49.839844 134.644531 46.511719 136.320312 43.316406 136.625 C 40.160156 136.921875 35.617188 135.425781 35.402344 128.832031 C 35.1875 122.242188 38.609375 118.523438 42.566406 118.523438 C 46.09375 118.523438 49.839844 120.203125 49.839844 127.574219 Z M 99.371094 136.660156 C 103.328125 136.660156 106.75 132.945312 106.535156 126.351562 C 106.320312 119.757812 101.777344 118.261719 98.621094 118.558594 C 95.425781 118.863281 92.101562 120.539062 92.101562 127.609375 C 92.101562 134.980469 95.84375 136.660156 99.371094 136.660156 Z M 61.800781 132.558594 C 58.050781 134.039062 62.628906 143.160156 70.417969 143.160156 C 80.523438 143.160156 83.824219 133.292969 79.019531 132.300781 C 74.214844 131.308594 66.324219 130.773438 61.800781 132.558594 Z M 61.800781 132.558594 " fill-opacity="1" fill-rule="nonzero"/><path fill="#ffffff" d="M 41.066406 116.507812 C 35.503906 116.507812 30.691406 121.050781 30.992188 129.109375 C 31.292969 137.167969 37.683594 138.996094 42.117188 138.632812 C 46.613281 138.261719 51.292969 136.214844 51.292969 127.570312 C 51.292969 118.558594 46.027344 116.507812 41.066406 116.507812 Z M 43.183594 135.570312 C 40.398438 135.835938 36.382812 134.511719 36.195312 128.6875 C 36.003906 122.867188 39.027344 119.582031 42.523438 119.582031 C 45.636719 119.582031 48.945312 121.066406 48.945312 127.578125 C 48.945312 133.824219 46.007812 135.300781 43.183594 135.570312 Z M 110.671875 126.074219 C 110.371094 118.019531 103.980469 116.1875 99.546875 116.554688 C 95.050781 116.925781 90.375 118.96875 90.375 127.613281 C 90.375 136.625 95.636719 138.675781 100.597656 138.675781 C 106.164062 138.675781 110.972656 134.132812 110.671875 126.074219 Z M 99.3125 135.601562 C 96.199219 135.601562 92.890625 134.117188 92.890625 127.609375 C 92.890625 121.363281 95.828125 119.882812 98.652344 119.613281 C 101.4375 119.351562 105.453125 120.671875 105.640625 126.496094 C 105.832031 132.320312 102.808594 135.601562 99.3125 135.601562 Z M 75.757812 131.761719 C 75.757812 131.761719 76.46875 135.453125 77.554688 135.664062 C 78.644531 135.878906 79.816406 132.550781 79.816406 132.550781 C 79.816406 132.550781 78.410156 131.863281 75.757812 131.761719 Z M 75.757812 131.761719 " fill-opacity="1" fill-rule="nonzero"/><g clip-path="url(#id4)"><path fill="#1d949a" d="M 110.734375 183.46875 C 109.5625 186.789062 108.148438 188.539062 107.457031 188.589844 C 106.601562 188.652344 106.816406 185.601562 106.816406 185.601562 C 106.816406 185.601562 104.703125 190.1875 103.742188 189.867188 C 102.78125 189.546875 103.089844 184.855469 103.089844 184.855469 C 103.089844 184.855469 101.753906 187.554688 100.542969 187.183594 C 100.058594 187.035156 100.324219 183.15625 100.632812 179.914062 Z M 20.378906 130.832031 C 19.546875 130.832031 18.84375 133.71875 18.84375 133.71875 C 18.84375 133.71875 17.050781 130.320312 15.898438 130.449219 C 14.890625 130.558594 15.253906 134.09375 15.359375 134.976562 C 15.332031 135.007812 15.308594 135.035156 15.28125 135.066406 C 14.863281 134.640625 13.28125 133.074219 12.503906 133.097656 C 11.957031 133.117188 12.5 136.585938 13.195312 139.804688 L 22.960938 135.675781 C 22.027344 133.421875 20.851562 130.832031 20.378906 130.832031 Z M 20.378906 130.832031 " fill-opacity="1" fill-rule="nonzero"/></g><g clip-path="url(#id5)"><path fill="#175c71" d="M 95.253906 114.210938 C 95.015625 114.625 94.738281 115.011719 94.433594 115.371094 C 92.710938 117.414062 88.378906 119.089844 84.34375 115.242188 C 81.15625 112.199219 80.839844 108.96875 82.023438 106.59375 C 86.566406 107.914062 91.410156 110.234375 95.253906 114.210938 Z M 80.621094 119.324219 C 81.738281 118.347656 83.15625 118.300781 84.503906 119.828125 C 85.777344 121.273438 85.324219 122.515625 84.425781 123.265625 C 83.417969 124.109375 82.082031 124.339844 80.570312 122.875 C 79.3125 121.648438 79.851562 119.996094 80.621094 119.324219 Z M 45.808594 143.097656 C 45.605469 142.238281 45.972656 141.480469 47.152344 141.195312 C 48.269531 140.925781 48.796875 141.507812 48.945312 142.1875 C 49.113281 142.953125 48.863281 143.71875 47.671875 144.105469 C 46.675781 144.429688 45.953125 143.6875 45.808594 143.097656 Z M 70.703125 159.007812 C 71.035156 159.007812 71.375 159.003906 71.714844 159 C 72.082031 155.738281 69.601562 152.277344 64.203125 150.832031 C 58.234375 149.238281 55.65625 152.890625 55.070312 155.785156 C 55.007812 156.105469 54.957031 156.433594 54.925781 156.761719 C 60.277344 158.550781 66.054688 159.007812 70.703125 159.007812 Z M 111.597656 164.308594 C 111.378906 163.3125 111.097656 162.359375 110.769531 161.441406 C 107.238281 162.964844 105.984375 166.976562 106.683594 169.898438 C 107.160156 171.878906 109.386719 174.316406 112.527344 173.933594 C 112.636719 171.0625 112.351562 167.800781 111.597656 164.308594 Z M 31.105469 148.378906 C 29.242188 147.132812 27.789062 145.015625 26.460938 142.773438 C 25.972656 142.898438 25.535156 143.183594 25.117188 143.628906 C 23.898438 144.945312 23.109375 147.816406 25.324219 149.765625 C 27.664062 151.824219 30.695312 151.164062 32.207031 149.464844 C 32.300781 149.363281 32.375 149.246094 32.445312 149.128906 C 31.992188 148.917969 31.542969 148.675781 31.105469 148.378906 Z M 31.105469 148.378906 " fill-opacity="0.2" fill-rule="nonzero"/></g><g clip-path="url(#id6)"><path fill="#175c71" d="M 91.261719 164.746094 C 87.777344 165.054688 84.257812 165.59375 80.921875 166.652344 C 80.886719 166.195312 80.847656 165.753906 80.808594 165.332031 C 84.09375 164.324219 87.539062 163.785156 90.964844 163.46875 C 91.066406 163.882812 91.164062 164.308594 91.261719 164.746094 Z M 92.457031 172.015625 C 88.648438 172.167969 84.839844 172.683594 81.128906 173.476562 C 81.125 173.910156 81.117188 174.355469 81.105469 174.808594 C 84.851562 173.96875 88.691406 173.492188 92.515625 173.328125 C 92.535156 173.324219 92.558594 173.324219 92.578125 173.324219 C 92.542969 172.882812 92.5 172.445312 92.457031 172.015625 Z M 80.542969 182.707031 C 80.484375 183.152344 80.421875 183.589844 80.355469 184.011719 C 84.375 184.019531 88.390625 184.148438 92.398438 184.398438 C 92.449219 183.964844 92.5 183.53125 92.539062 183.101562 C 88.546875 182.851562 84.546875 182.71875 80.542969 182.707031 Z M 78.5625 191.375 C 78.402344 191.835938 78.242188 192.273438 78.078125 192.691406 C 81.609375 192.625 85.144531 192.734375 88.667969 193.019531 C 89.265625 193.070312 89.863281 193.128906 90.460938 193.1875 C 90.597656 192.765625 90.730469 192.34375 90.855469 191.921875 C 86.773438 191.503906 82.667969 191.320312 78.5625 191.375 Z M 60.535156 166.339844 C 57.304688 165.015625 53.863281 164.246094 50.390625 163.785156 C 50.289062 164.195312 50.195312 164.621094 50.097656 165.054688 C 53.648438 165.515625 57.171875 166.300781 60.4375 167.707031 C 60.464844 167.234375 60.5 166.777344 60.535156 166.339844 Z M 60.34375 175.542969 C 60.332031 175.078125 60.320312 174.625 60.3125 174.183594 C 56.609375 173.171875 52.785156 172.535156 48.953125 172.214844 C 48.910156 172.636719 48.871094 173.066406 48.835938 173.5 C 51.679688 173.746094 54.511719 174.179688 57.285156 174.785156 C 58.3125 175.011719 59.332031 175.261719 60.34375 175.542969 Z M 61.074219 184.023438 C 61.007812 183.601562 60.945312 183.164062 60.886719 182.714844 C 56.878906 182.671875 52.875 182.746094 48.875 182.941406 C 48.914062 183.371094 48.960938 183.804688 49.011719 184.242188 C 53.03125 184.046875 57.050781 183.976562 61.074219 184.023438 Z M 62.507812 192.742188 C 62.800781 192.753906 63.09375 192.773438 63.386719 192.785156 C 63.222656 192.367188 63.058594 191.925781 62.894531 191.457031 C 58.765625 191.285156 54.625 191.355469 50.5 191.667969 C 50.625 192.09375 50.753906 192.519531 50.890625 192.945312 C 54.757812 192.667969 58.636719 192.597656 62.507812 192.742188 Z M 72.992188 145.050781 C 71.640625 145.460938 70.25 145.429688 68.898438 144.960938 C 68.566406 144.84375 68.183594 145.097656 68.097656 145.421875 C 68 145.785156 68.226562 146.105469 68.5625 146.222656 C 70.097656 146.753906 71.796875 146.777344 73.351562 146.304688 C 73.691406 146.203125 73.898438 145.84375 73.800781 145.5 C 73.707031 145.164062 73.332031 144.945312 72.992188 145.050781 Z M 72.992188 145.050781 " fill-opacity="1" fill-rule="nonzero"/></g><g fill="#ffffff" fill-opacity="1"><g transform="translate(117.951309, 131.438773)"><g><path d="M 20.109375 -37.449219 L 20.109375 -23.625 C 19 -24.832031 16.1875 -25.9375 13.925781 -25.9375 C 7.136719 -25.9375 1.457031 -20.007812 1.457031 -12.667969 C 1.457031 -5.429688 6.988281 0.554688 13.925781 0.554688 C 16.238281 0.554688 19 -0.351562 20.109375 -1.808594 L 20.109375 0 L 27.246094 0 L 27.246094 -37.449219 Z M 14.628906 -6.535156 C 11.359375 -6.535156 8.695312 -9.046875 8.695312 -12.667969 C 8.695312 -16.238281 11.359375 -18.800781 14.628906 -18.800781 C 17.945312 -18.800781 20.410156 -16.238281 20.410156 -12.667969 C 20.410156 -9.046875 17.945312 -6.535156 14.628906 -6.535156 Z M 14.628906 -6.535156 "/></g></g></g><g fill="#ffffff" fill-opacity="1"><g transform="translate(147.710248, 131.438773)"><g><path d="M 6.03125 -29.859375 C 8.445312 -29.859375 10.304688 -31.71875 10.304688 -33.933594 C 10.304688 -35.992188 8.445312 -37.851562 6.03125 -37.851562 C 3.820312 -37.851562 1.910156 -35.941406 1.910156 -33.933594 C 1.910156 -31.71875 3.820312 -29.859375 6.03125 -29.859375 Z M 9.652344 -25.386719 L 2.511719 -25.386719 L 2.511719 0 L 9.652344 0 Z M 9.652344 -25.386719 "/></g></g></g><g fill="#ffffff" fill-opacity="1"><g transform="translate(159.875222, 131.438773)"><g><path d="M 20.109375 -25.386719 L 20.109375 -23.625 C 19 -24.832031 16.1875 -25.9375 13.925781 -25.9375 C 7.136719 -25.9375 1.457031 -20.007812 1.457031 -12.667969 C 1.457031 -5.429688 6.988281 0.554688 13.925781 0.554688 C 16.238281 0.554688 19 -0.351562 20.109375 -1.808594 L 20.109375 0 L 27.246094 0 L 27.246094 -25.386719 Z M 14.628906 -6.535156 C 11.359375 -6.535156 8.695312 -9.046875 8.695312 -12.667969 C 8.695312 -16.238281 11.359375 -18.800781 14.628906 -18.800781 C 17.945312 -18.800781 20.410156 -16.238281 20.410156 -12.667969 C 20.410156 -9.046875 17.945312 -6.535156 14.628906 -6.535156 Z M 14.628906 -6.535156 "/></g></g></g><g fill="#ffffff" fill-opacity="1"><g transform="translate(189.63416, 131.438773)"><g><path d="M 14.277344 5.578125 C 12.164062 5.578125 10.304688 4.472656 9.25 2.714844 L 3.46875 6.886719 C 5.832031 10.355469 9.753906 12.667969 14.277344 12.667969 C 21.464844 12.667969 27.246094 6.835938 27.246094 -0.25 L 27.246094 -25.386719 L 20.109375 -25.386719 L 20.109375 -23.625 C 19 -24.832031 16.1875 -25.9375 13.925781 -25.9375 C 7.136719 -25.9375 1.457031 -20.007812 1.457031 -12.667969 C 1.457031 -5.429688 6.988281 0.554688 13.925781 0.554688 C 16.238281 0.554688 19 -0.351562 20.109375 -1.808594 L 20.109375 0.199219 C 20.109375 3.21875 17.542969 5.578125 14.277344 5.578125 Z M 14.628906 -6.535156 C 11.359375 -6.535156 8.695312 -9.046875 8.695312 -12.667969 C 8.695312 -16.238281 11.359375 -18.800781 14.628906 -18.800781 C 17.945312 -18.800781 20.410156 -16.238281 20.410156 -12.667969 C 20.410156 -9.046875 17.945312 -6.535156 14.628906 -6.535156 Z M 14.628906 -6.535156 "/></g></g></g><g fill="#ffffff" fill-opacity="1"><g transform="translate(219.393098, 131.438773)"><g><path d="M 28.101562 -12.667969 C 28.101562 -20.007812 23.273438 -25.9375 16.335938 -25.9375 C 14.023438 -25.9375 11.058594 -25.234375 9.652344 -23.625 L 9.652344 -25.386719 L 2.511719 -25.386719 L 2.511719 0 L 9.652344 0 L 9.652344 -12.667969 C 9.652344 -16.738281 12.566406 -18.800781 15.734375 -18.800781 C 18.648438 -18.800781 21.011719 -16.738281 21.011719 -12.667969 L 21.011719 0 L 28.101562 0 Z M 28.101562 -12.667969 "/></g></g></g><g fill="#ffffff" fill-opacity="1"><g transform="translate(249.654724, 131.438773)"><g><path d="M 14.628906 -25.9375 C 7.339844 -25.9375 1.457031 -20.007812 1.457031 -12.667969 C 1.457031 -5.429688 7.339844 0.554688 14.628906 0.554688 C 21.917969 0.554688 28 -5.429688 28 -12.667969 C 28 -20.007812 21.917969 -25.9375 14.628906 -25.9375 Z M 14.628906 -6.535156 C 11.359375 -6.535156 8.695312 -9.046875 8.695312 -12.667969 C 8.695312 -16.238281 11.359375 -18.800781 14.628906 -18.800781 C 18.097656 -18.800781 20.710938 -16.238281 20.710938 -12.667969 C 20.710938 -9.046875 18.097656 -6.535156 14.628906 -6.535156 Z M 14.628906 -6.535156 "/></g></g></g><g fill="#ffffff" fill-opacity="1"><g transform="translate(279.112059, 131.438773)"><g><path d="M 9.046875 -10.203125 C 10.65625 -9.953125 11.3125 -9.25 11.3125 -8.246094 C 11.3125 -7.289062 10.707031 -6.535156 9.398438 -6.535156 C 8.292969 -6.535156 7.390625 -6.835938 6.636719 -7.640625 L 0.601562 -3.265625 C 2.816406 -0.753906 5.578125 0.554688 9.351562 0.554688 C 14.828125 0.554688 19.101562 -2.964844 19.101562 -8.144531 C 19.101562 -13.371094 15.53125 -15.785156 10.859375 -16.386719 C 8.746094 -16.640625 8.144531 -17.140625 8.144531 -17.996094 C 8.144531 -18.75 8.695312 -19.304688 9.652344 -19.304688 C 10.605469 -19.304688 11.3125 -18.851562 11.964844 -18.246094 L 17.089844 -21.96875 C 15.28125 -24.582031 12.769531 -25.9375 9.5 -25.9375 C 5.730469 -25.9375 1.15625 -22.671875 1.15625 -18.246094 C 1.15625 -13.925781 4.421875 -10.859375 9.046875 -10.203125 Z M 9.046875 -10.203125 "/></g></g></g><g fill="#ffffff" fill-opacity="1"><g transform="translate(299.319984, 131.438773)"><g><path d="M 20.710938 -9.097656 C 19.554688 -7.289062 17.394531 -6.535156 15.230469 -6.535156 C 14.476562 -6.535156 13.773438 -6.585938 13.121094 -6.835938 L 27.296875 -16.992188 C 25.738281 -21.714844 20.910156 -25.9375 14.628906 -25.9375 C 7.339844 -25.9375 1.457031 -20.007812 1.457031 -12.667969 C 1.457031 -5.429688 7.589844 0.554688 15.230469 0.554688 C 19.753906 0.554688 24.230469 -1.507812 26.390625 -4.726562 Z M 8.695312 -12.667969 C 8.695312 -16.238281 11.359375 -18.800781 14.628906 -18.800781 C 15.984375 -18.800781 17.140625 -18.347656 18.148438 -17.59375 L 8.898438 -11.007812 C 8.746094 -11.511719 8.695312 -12.066406 8.695312 -12.667969 Z M 8.695312 -12.667969 "/></g></g></g><g fill="#ffffff" fill-opacity="1"><g transform="translate(328.073561, 131.438773)"><g><path d="M 11.359375 -37.449219 L 3.570312 -37.449219 L 3.570312 0 L 11.359375 0 Z M 11.359375 -37.449219 "/></g></g></g><g fill="#ffffff" fill-opacity="1"><g transform="translate(343.003305, 131.438773)"><g><path d="M 17.394531 -18.800781 L 17.394531 -25.386719 L 11.359375 -25.386719 L 11.359375 -33.882812 L 4.222656 -28.703125 L 4.222656 -25.386719 L 0.402344 -25.386719 L 0.402344 -18.800781 L 4.222656 -18.800781 L 4.222656 -10.507812 C 4.222656 -3.921875 9.652344 0.554688 17.242188 0.554688 L 17.242188 -6.535156 C 13.976562 -6.535156 11.359375 -7.84375 11.359375 -10.707031 L 11.359375 -18.800781 Z M 17.394531 -18.800781 "/></g></g></g><g fill="#ffde59" fill-opacity="1"><g transform="translate(122.579416, 158.689036)"><g><path d="M 0.859375 -9.011719 L 0.859375 0 L 4.523438 0 C 7.113281 0 9.230469 -1.921875 9.230469 -4.511719 C 9.230469 -7.078125 7.113281 -9.011719 4.511719 -9.011719 Z M 2.734375 -1.695312 L 2.734375 -7.320312 L 4.511719 -7.320312 C 6.085938 -7.320312 7.308594 -6.144531 7.308594 -4.511719 C 7.308594 -2.890625 6.085938 -1.695312 4.523438 -1.695312 Z M 2.734375 -1.695312 "/></g></g></g><g fill="#ffde59" fill-opacity="1"><g transform="translate(137.134038, 158.689036)"><g><path d="M 2.734375 -9.011719 L 0.859375 -9.011719 L 0.859375 0 L 2.734375 0 Z M 2.734375 -9.011719 "/></g></g></g><g fill="#ffde59" fill-opacity="1"><g transform="translate(145.566788, 158.689036)"><g><path d="M 3.023438 -3.992188 C 3.894531 -3.894531 4.378906 -3.449219 4.378906 -2.722656 C 4.378906 -2.140625 3.894531 -1.644531 3.277344 -1.644531 C 2.746094 -1.644531 2.324219 -1.777344 1.910156 -2.296875 L 0.363281 -1.160156 C 1.222656 -0.21875 2.25 0.15625 3.277344 0.15625 C 4.863281 0.15625 6.328125 -1.101562 6.328125 -2.855469 C 6.328125 -4.597656 5.058594 -5.636719 3.519531 -5.734375 C 2.566406 -5.796875 2.261719 -6.171875 2.261719 -6.582031 C 2.261719 -7.078125 2.601562 -7.378906 3.097656 -7.378906 C 3.410156 -7.378906 3.8125 -7.1875 4.054688 -6.933594 L 5.527344 -8.007812 C 4.839844 -8.832031 3.992188 -9.171875 3.097656 -9.171875 C 1.851562 -9.171875 0.449219 -8.09375 0.449219 -6.570312 C 0.449219 -5.152344 1.464844 -4.175781 3.023438 -3.992188 Z M 3.023438 -3.992188 "/></g></g></g><g fill="#ffde59" fill-opacity="1"><g transform="translate(157.133065, 158.689036)"><g><path d="M 6.449219 0 L 6.449219 -1.695312 L 2.734375 -1.695312 L 2.734375 -3.957031 L 6.121094 -3.957031 L 6.121094 -5.636719 L 2.734375 -5.636719 L 2.734375 -7.320312 L 5.648438 -7.320312 L 5.648438 -9.011719 L 0.859375 -9.011719 L 0.859375 0 Z M 6.449219 0 "/></g></g></g><g fill="#ffde59" fill-opacity="1"><g transform="translate(168.905024, 158.689036)"><g><path d="M 7.402344 0 L 9.449219 0 L 4.683594 -9.171875 L -0.0742188 0 L 1.863281 0 L 2.445312 -1.210938 L 6.8125 -1.210938 Z M 4.609375 -5.710938 L 5.988281 -2.902344 L 3.253906 -2.902344 Z M 4.609375 -5.710938 "/></g></g></g><g fill="#ffde59" fill-opacity="1"><g transform="translate(183.120888, 158.689036)"><g><path d="M 3.023438 -3.992188 C 3.894531 -3.894531 4.378906 -3.449219 4.378906 -2.722656 C 4.378906 -2.140625 3.894531 -1.644531 3.277344 -1.644531 C 2.746094 -1.644531 2.324219 -1.777344 1.910156 -2.296875 L 0.363281 -1.160156 C 1.222656 -0.21875 2.25 0.15625 3.277344 0.15625 C 4.863281 0.15625 6.328125 -1.101562 6.328125 -2.855469 C 6.328125 -4.597656 5.058594 -5.636719 3.519531 -5.734375 C 2.566406 -5.796875 2.261719 -6.171875 2.261719 -6.582031 C 2.261719 -7.078125 2.601562 -7.378906 3.097656 -7.378906 C 3.410156 -7.378906 3.8125 -7.1875 4.054688 -6.933594 L 5.527344 -8.007812 C 4.839844 -8.832031 3.992188 -9.171875 3.097656 -9.171875 C 1.851562 -9.171875 0.449219 -8.09375 0.449219 -6.570312 C 0.449219 -5.152344 1.464844 -4.175781 3.023438 -3.992188 Z M 3.023438 -3.992188 "/></g></g></g><g fill="#ffde59" fill-opacity="1"><g transform="translate(194.687166, 158.689036)"><g><path d="M 6.449219 0 L 6.449219 -1.695312 L 2.734375 -1.695312 L 2.734375 -3.957031 L 6.121094 -3.957031 L 6.121094 -5.636719 L 2.734375 -5.636719 L 2.734375 -7.320312 L 5.648438 -7.320312 L 5.648438 -9.011719 L 0.859375 -9.011719 L 0.859375 0 Z M 6.449219 0 "/></g></g></g><g fill="#ffde59" fill-opacity="1"><g transform="translate(206.459125, 158.689036)"><g/></g></g><g fill="#ffde59" fill-opacity="1"><g transform="translate(216.392094, 158.689036)"><g><path d="M 2.734375 0 L 2.734375 -1.367188 L 3.8125 -1.367188 C 6.074219 -1.367188 7.707031 -3.074219 7.707031 -5.382812 C 7.707031 -7.210938 6.144531 -9.011719 3.933594 -9.011719 L 0.859375 -9.011719 L 0.859375 0 Z M 2.734375 -3.074219 L 2.734375 -7.320312 L 3.871094 -7.320312 C 5.09375 -7.320312 5.78125 -6.242188 5.78125 -5.191406 C 5.78125 -4.027344 5.070312 -3.074219 3.761719 -3.074219 Z M 2.734375 -3.074219 "/></g></g></g><g fill="#ffde59" fill-opacity="1"><g transform="translate(229.301316, 158.689036)"><g><path d="M 3.679688 -1.5625 L 5.152344 0 L 7.644531 0 L 5.699219 -2.082031 C 6.957031 -2.660156 7.730469 -3.847656 7.730469 -5.46875 C 7.730469 -7.429688 6.109375 -9.011719 3.992188 -9.011719 L 0.859375 -9.011719 L 0.859375 0 L 2.734375 0 L 2.734375 -1.5625 Z M 2.734375 -3.253906 L 2.734375 -7.320312 L 3.871094 -7.320312 C 5.152344 -7.320312 5.808594 -6.425781 5.808594 -5.324219 C 5.808594 -3.980469 4.996094 -3.253906 3.507812 -3.253906 Z M 2.734375 -3.253906 "/></g></g></g><g fill="#ffde59" fill-opacity="1"><g transform="translate(242.307319, 158.689036)"><g><path d="M 6.449219 0 L 6.449219 -1.695312 L 2.734375 -1.695312 L 2.734375 -3.957031 L 6.121094 -3.957031 L 6.121094 -5.636719 L 2.734375 -5.636719 L 2.734375 -7.320312 L 5.648438 -7.320312 L 5.648438 -9.011719 L 0.859375 -9.011719 L 0.859375 0 Z M 6.449219 0 "/></g></g></g><g fill="#ffde59" fill-opacity="1"><g transform="translate(254.079286, 158.689036)"><g><path d="M 0.859375 -9.011719 L 0.859375 0 L 4.523438 0 C 7.113281 0 9.230469 -1.921875 9.230469 -4.511719 C 9.230469 -7.078125 7.113281 -9.011719 4.511719 -9.011719 Z M 2.734375 -1.695312 L 2.734375 -7.320312 L 4.511719 -7.320312 C 6.085938 -7.320312 7.308594 -6.144531 7.308594 -4.511719 C 7.308594 -2.890625 6.085938 -1.695312 4.523438 -1.695312 Z M 2.734375 -1.695312 "/></g></g></g><g fill="#ffde59" fill-opacity="1"><g transform="translate(268.633906, 158.689036)"><g><path d="M 2.734375 -9.011719 L 0.859375 -9.011719 L 0.859375 0 L 2.734375 0 Z M 2.734375 -9.011719 "/></g></g></g><g fill="#ffde59" fill-opacity="1"><g transform="translate(277.066656, 158.689036)"><g><path d="M 7.863281 -3.980469 C 7.609375 -2.625 6.472656 -1.644531 5.117188 -1.644531 C 3.605469 -1.644531 2.40625 -2.914062 2.40625 -4.5 C 2.40625 -6.097656 3.605469 -7.378906 5.117188 -7.378906 C 6.050781 -7.378906 6.96875 -6.910156 7.621094 -5.941406 L 9.085938 -6.980469 C 8.273438 -8.300781 6.789062 -9.171875 5.105469 -9.171875 C 2.539062 -9.171875 0.484375 -7.078125 0.484375 -4.5 C 0.484375 -1.921875 2.539062 0.15625 5.117188 0.15625 C 7.511719 0.15625 9.496094 -1.667969 9.761719 -3.980469 Z M 7.863281 -3.980469 "/></g></g></g><g fill="#ffde59" fill-opacity="1"><g transform="translate(292.153625, 158.689036)"><g><path d="M 4.332031 0 L 4.332031 -7.320312 L 6.703125 -7.320312 L 6.703125 -9.011719 L 0.230469 -9.011719 L 0.230469 -7.320312 L 2.457031 -7.320312 L 2.457031 0 Z M 4.332031 0 "/></g></g></g><g fill="#ffde59" fill-opacity="1"><g transform="translate(303.925584, 158.689036)"><g><path d="M 2.734375 -9.011719 L 0.859375 -9.011719 L 0.859375 0 L 2.734375 0 Z M 2.734375 -9.011719 "/></g></g></g><g fill="#ffde59" fill-opacity="1"><g transform="translate(312.358333, 158.689036)"><g><path d="M 5.152344 0.15625 C 7.730469 0.15625 9.8125 -1.9375 9.8125 -4.511719 C 9.8125 -7.089844 7.730469 -9.171875 5.140625 -9.171875 C 2.566406 -9.171875 0.484375 -7.089844 0.484375 -4.511719 C 0.484375 -1.9375 2.566406 0.15625 5.152344 0.15625 Z M 5.140625 -7.378906 C 6.667969 -7.378906 7.886719 -6.097656 7.886719 -4.511719 C 7.886719 -2.902344 6.679688 -1.644531 5.152344 -1.644531 C 3.605469 -1.644531 2.40625 -2.902344 2.40625 -4.511719 C 2.40625 -6.097656 3.605469 -7.378906 5.140625 -7.378906 Z M 5.140625 -7.378906 "/></g></g></g><g fill="#ffde59" fill-opacity="1"><g transform="translate(327.493685, 158.689036)"><g><path d="M 7.269531 -3.800781 L 0.859375 -9.183594 L 0.859375 0 L 2.734375 0 L 2.734375 -5.179688 L 9.144531 0.15625 L 9.144531 -9.011719 L 7.269531 -9.011719 Z M 7.269531 -3.800781 "/></g></g></g></svg>