<svg xmlns="http://www.w3.org/2000/svg" xmlns:xlink="http://www.w3.org/1999/xlink" width="500" zoomAndPan="magnify" viewBox="0 0 375 225" height="300" preserveAspectRatio="xMidYMid meet" version="1.0"><defs><g/><clipPath id="id1"><path d="M 112.699219 8.074219 L 177 8.074219 L 177 79 L 112.699219 79 Z M 112.699219 8.074219 " clip-rule="nonzero"/></clipPath><clipPath id="id2"><path d="M 149 49 L 183 49 L 183 79.324219 L 149 79.324219 Z M 149 49 " clip-rule="nonzero"/></clipPath><clipPath id="id3"><path d="M 167 131 L 221 131 L 221 140.464844 L 167 140.464844 Z M 167 131 " clip-rule="nonzero"/></clipPath><clipPath id="id4"><path d="M 123 35.464844 L 244.5 35.464844 L 244.5 140.464844 L 123 140.464844 Z M 123 35.464844 " clip-rule="nonzero"/></clipPath><clipPath id="id5"><path d="M 123 101 L 242 101 L 242 140.464844 L 123 140.464844 Z M 123 101 " clip-rule="nonzero"/></clipPath><clipPath id="id6"><path d="M 137 73 L 244.5 73 L 244.5 140.464844 L 137 140.464844 Z M 137 73 " clip-rule="nonzero"/></clipPath><clipPath id="id7"><path d="M 167 119 L 221 119 L 221 140.464844 L 167 140.464844 Z M 167 119 " clip-rule="nonzero"/></clipPath></defs><g clip-path="url(#id1)"><path fill="#8aa2d4" d="M 173.964844 18.222656 C 172.769531 17.496094 171.070312 18.007812 170.039062 18.160156 C 169.066406 18.300781 168.078125 18.476562 167.074219 18.554688 C 162.40625 18.902344 156.828125 18.679688 152.433594 16.089844 C 150.761719 15.097656 149.425781 13.605469 148.199219 12.101562 C 147.363281 11.082031 146.59375 9.085938 145.355469 8.632812 C 144.019531 8.144531 143.359375 9.996094 142.703125 10.914062 C 141.910156 12.027344 141.140625 13.195312 140.082031 14.078125 C 138.171875 15.667969 135.941406 16.890625 133.566406 17.597656 C 129.597656 18.78125 125.761719 18.78125 121.902344 18.472656 C 120.277344 18.34375 118.824219 17.847656 117.308594 17.554688 C 114.359375 17.011719 114.65625 22.226562 114.394531 23.710938 C 113.984375 25.789062 113.632812 27.859375 113.367188 29.921875 C 112.890625 33.667969 112.707031 37.402344 113.101562 41.117188 C 113.71875 46.996094 115.972656 52.722656 119.902344 58.023438 C 123.054688 62.261719 127 66.097656 131.058594 69.496094 C 134.019531 71.96875 137.085938 74.277344 140.246094 76.105469 C 141.632812 76.910156 143.050781 77.636719 144.558594 77.976562 C 144.632812 77.996094 144.800781 78.066406 144.875 78.042969 C 146.207031 77.636719 147.445312 77.238281 148.726562 76.542969 C 151.703125 74.929688 154.582031 72.816406 157.375 70.574219 C 161.378906 67.347656 165.304688 63.6875 168.578125 59.65625 C 172.621094 54.660156 175.300781 49.214844 176.304688 43.542969 C 177.050781 39.335938 176.976562 35.136719 176.503906 30.886719 C 176.167969 27.878906 175.378906 24.867188 175.175781 21.855469 C 175.109375 20.882812 175.324219 19.578125 174.472656 18.640625 C 174.316406 18.472656 174.148438 18.335938 173.964844 18.222656 Z M 173.964844 18.222656 " fill-opacity="1" fill-rule="nonzero"/></g><path fill="#414370" d="M 144.777344 72.96875 C 143.578125 72.96875 135.472656 69.859375 127.8125 62.949219 C 122.738281 58.199219 119.335938 53.144531 117.410156 47.496094 C 114.882812 40.082031 115.050781 31.730469 117.910156 22.675781 C 117.914062 22.648438 117.925781 22.625 117.933594 22.597656 C 117.992188 22.472656 118.125 22.390625 118.261719 22.390625 C 118.335938 22.390625 118.410156 22.40625 118.730469 22.488281 C 119.769531 22.75 122.929688 23.542969 126.898438 23.542969 C 131.984375 23.542969 139.1875 22.191406 144.605469 15.753906 C 144.671875 15.675781 144.769531 15.628906 144.875 15.628906 C 144.976562 15.628906 145.078125 15.675781 145.144531 15.753906 C 150.300781 21.957031 157.875 23.257812 163.320312 23.257812 C 166.703125 23.257812 169.417969 22.765625 170.441406 22.578125 C 170.789062 22.515625 170.890625 22.496094 170.96875 22.496094 C 171.101562 22.496094 171.242188 22.578125 171.300781 22.695312 C 171.3125 22.722656 171.320312 22.75 171.328125 22.777344 C 174.164062 31.863281 174.351562 40.226562 171.878906 47.636719 C 169.996094 53.285156 166.65625 58.324219 161.675781 63.039062 C 153.757812 70.265625 145.953125 72.96875 144.964844 72.96875 C 144.933594 72.96875 144.902344 72.964844 144.875 72.960938 C 144.847656 72.964844 144.8125 72.96875 144.777344 72.96875 Z M 144.777344 72.273438 L 144.777344 72.617188 L 144.78125 72.273438 C 144.78125 72.273438 144.78125 72.273438 144.777344 72.273438 Z M 118.496094 23.148438 C 113.617188 38.851562 116.820312 51.707031 128.285156 62.4375 C 136.058594 69.449219 143.710938 72.1875 144.734375 72.269531 C 144.777344 72.253906 144.832031 72.246094 144.875 72.242188 C 144.921875 72.242188 144.964844 72.253906 145.007812 72.269531 C 146.035156 72.183594 153.585938 69.476562 161.199219 62.53125 C 172.3125 52.015625 175.519531 38.792969 170.734375 23.230469 C 170.683594 23.242188 170.625 23.25 170.566406 23.261719 C 169.527344 23.453125 166.769531 23.953125 163.320312 23.953125 C 157.816406 23.953125 150.195312 22.652344 144.871094 16.515625 C 139.3125 22.886719 132.050781 24.238281 126.898438 24.238281 C 122.839844 24.238281 119.617188 23.429688 118.558594 23.164062 C 118.539062 23.15625 118.515625 23.152344 118.496094 23.148438 Z M 118.496094 23.148438 " fill-opacity="1" fill-rule="nonzero"/><path fill="#ffffff" d="M 159.191406 36.335938 C 157.144531 36.101562 155.089844 35.925781 153.03125 35.792969 C 153.0625 33.65625 153.085938 31.523438 153.101562 29.390625 C 153.113281 28.097656 152.605469 26.851562 151.691406 25.882812 C 150.738281 24.878906 149.410156 24.273438 148.035156 24.238281 C 145.925781 24.179688 143.820312 24.179688 141.714844 24.238281 C 140.339844 24.273438 139.011719 24.878906 138.058594 25.882812 C 137.140625 26.851562 136.636719 28.09375 136.644531 29.382812 C 136.660156 31.519531 136.683594 33.65625 136.714844 35.792969 C 134.65625 35.925781 132.601562 36.101562 130.558594 36.335938 C 127.855469 36.648438 125.792969 39.035156 126.011719 41.648438 C 126.15625 43.359375 126.308594 45.074219 126.472656 46.789062 C 126.738281 49.457031 129.164062 51.511719 131.929688 51.289062 C 133.632812 51.152344 135.347656 51.050781 137.070312 50.964844 C 137.132812 53.035156 137.207031 55.109375 137.285156 57.179688 C 137.394531 59.886719 139.585938 62.066406 142.253906 62.089844 C 142.28125 62.089844 142.308594 62.089844 142.335938 62.089844 C 144.027344 62.074219 145.71875 62.074219 147.417969 62.089844 C 147.445312 62.089844 147.46875 62.089844 147.496094 62.089844 C 150.164062 62.066406 152.351562 59.886719 152.464844 57.175781 C 152.542969 55.105469 152.613281 53.035156 152.679688 50.964844 C 154.398438 51.050781 156.117188 51.152344 157.816406 51.289062 C 157.980469 51.304688 158.144531 51.308594 158.300781 51.304688 C 160.875 51.253906 163.027344 49.300781 163.277344 46.785156 C 163.441406 45.070312 163.59375 43.363281 163.734375 41.652344 C 163.953125 39.035156 161.894531 36.648438 159.191406 36.335938 Z M 159.191406 36.335938 " fill-opacity="1" fill-rule="nonzero"/><g clip-path="url(#id2)"><path fill="#f08486" d="M 165.265625 54.777344 C 163.050781 49.539062 159.71875 49.234375 156.371094 51.199219 C 153.105469 53.164062 149.820312 57.398438 149.597656 61.289062 C 149.382812 66.027344 150.71875 67.367188 154.996094 69.753906 C 158.398438 71.628906 163.425781 74.757812 164.070312 79.238281 C 163.914062 75.207031 170.121094 73.183594 172.675781 72.050781 C 176.894531 70.230469 180.679688 69.800781 182.183594 65.039062 C 183.953125 59.675781 180.304688 53.921875 176.4375 51 C 172.421875 48.109375 168.183594 48.046875 165.265625 54.777344 Z M 165.265625 54.777344 " fill-opacity="1" fill-rule="nonzero"/></g><g clip-path="url(#id3)"><path fill="#1d949a" d="M 183.222656 135.195312 C 183.222656 135.195312 180.71875 143.304688 181.652344 159.085938 C 182.585938 174.898438 187.53125 180.789062 188.554688 183.75 C 189.578125 186.710938 187.785156 193.242188 185.941406 192.941406 C 183.5 192.542969 182.945312 187.351562 182.945312 187.351562 C 182.945312 187.351562 179.414062 193.707031 177.183594 193.21875 C 174.789062 192.6875 176.148438 186.699219 176.148438 186.699219 C 176.148438 186.699219 170.652344 190.414062 169.730469 189.34375 C 168.808594 188.269531 172.933594 183.546875 172.933594 183.546875 C 160.640625 158.421875 172.933594 131.164062 172.933594 131.164062 Z M 204.667969 135.195312 C 204.667969 135.195312 207.171875 143.304688 206.238281 159.085938 C 205.304688 174.898438 200.359375 180.789062 199.335938 183.75 C 198.3125 186.710938 200.105469 193.242188 201.949219 192.941406 C 204.390625 192.542969 204.945312 187.351562 204.945312 187.351562 C 204.945312 187.351562 208.476562 193.707031 210.707031 193.21875 C 213.101562 192.6875 211.742188 186.699219 211.742188 186.699219 C 211.742188 186.699219 217.238281 190.414062 218.160156 189.34375 C 219.082031 188.269531 214.957031 183.546875 214.957031 183.546875 C 227.25 158.421875 214.957031 131.164062 214.957031 131.164062 Z M 204.667969 135.195312 " fill-opacity="1" fill-rule="nonzero"/></g><g clip-path="url(#id4)"><path fill="#2dbcb7" d="M 243.707031 157.921875 C 243.707031 157.921875 243.710938 157.925781 243.710938 157.929688 C 242.472656 166.65625 239.28125 171.324219 238.03125 171.417969 C 237.007812 171.496094 237.265625 167.835938 237.265625 167.835938 C 237.265625 167.835938 234.730469 173.332031 233.578125 172.949219 C 232.425781 172.566406 232.796875 166.941406 232.796875 166.941406 C 232.796875 166.941406 231.191406 170.179688 229.734375 169.734375 C 228.738281 169.425781 230.414062 155.765625 230.414062 155.765625 C 230.738281 150.511719 231.550781 144.582031 230.503906 140.265625 C 228.792969 133.199219 223.644531 129.140625 222.453125 128.277344 C 214.253906 134.660156 202.503906 135.953125 193.933594 135.953125 C 185.679688 135.953125 174.46875 134.753906 166.328125 128.960938 C 163.257812 132.074219 149.699219 139.128906 138.628906 133.425781 C 131.976562 129.996094 128.042969 124.183594 126.453125 118.757812 C 126.453125 118.757812 126.449219 118.757812 126.449219 118.757812 C 125.433594 115.96875 123.019531 104.929688 124.097656 104.890625 C 125.027344 104.859375 126.929688 106.738281 127.429688 107.25 C 127.460938 107.214844 127.492188 107.175781 127.523438 107.140625 C 127.394531 106.082031 126.957031 101.84375 128.167969 101.710938 C 129.550781 101.558594 131.703125 105.632812 131.703125 105.632812 C 131.703125 105.632812 132.546875 102.171875 133.546875 102.171875 C 134.542969 102.171875 138.179688 111.855469 138.195312 111.902344 C 140.597656 115.941406 142.902344 120.859375 146.414062 123.210938 C 151.910156 126.890625 158.410156 124.613281 160.785156 123.558594 C 157.273438 118.804688 155.25 112.289062 155.828125 103.378906 C 157.152344 82.789062 171.390625 75.136719 182.816406 72.464844 C 181.414062 71.125 179.511719 69.539062 177.175781 68.148438 C 171.847656 64.984375 168.773438 62.734375 170.105469 60.488281 C 171.4375 58.242188 180.042969 59.058594 187.625 70.089844 C 185.265625 61.714844 182.707031 57.628906 180.554688 54.460938 C 178.402344 51.296875 181.167969 46.90625 187.007812 50.988281 C 192.570312 54.878906 193.761719 67.324219 193.066406 71.152344 C 193.121094 71.148438 193.171875 71.148438 193.226562 71.148438 C 196.089844 65.695312 197.136719 61.570312 196.738281 50.988281 C 196.332031 40.078125 199.507812 35.464844 202.273438 35.464844 C 205.140625 35.464844 208.082031 42.546875 204.90625 57.460938 C 202.960938 65.527344 199.402344 70.089844 199.402344 70.089844 C 199.402344 70.089844 208.214844 61.304688 210.570312 54.15625 C 212.925781 47.007812 220.710938 48.335938 218.148438 57.730469 C 216.476562 63.871094 210.035156 69.398438 205.171875 72.492188 C 216.574219 75.191406 230.714844 82.863281 232.039062 103.378906 C 232.570312 111.585938 230.890625 117.765625 227.878906 122.402344 C 232.878906 125.109375 240.746094 131.90625 243 142.308594 C 244.289062 148.25 244.441406 153.636719 243.707031 157.921875 Z M 243.707031 157.921875 C 243.707031 157.921875 243.710938 157.925781 243.710938 157.929688 C 242.472656 166.65625 239.28125 171.324219 238.03125 171.417969 C 237.007812 171.496094 237.265625 167.835938 237.265625 167.835938 C 237.265625 167.835938 234.730469 173.332031 233.578125 172.949219 C 232.425781 172.566406 232.796875 166.941406 232.796875 166.941406 C 232.796875 166.941406 231.191406 170.179688 229.734375 169.734375 C 228.738281 169.425781 230.414062 155.765625 230.414062 155.765625 C 230.738281 150.511719 231.550781 144.582031 230.503906 140.265625 C 228.792969 133.199219 223.644531 129.140625 222.453125 128.277344 C 214.253906 134.660156 202.503906 135.953125 193.933594 135.953125 C 185.679688 135.953125 174.46875 134.753906 166.328125 128.960938 C 163.257812 132.074219 149.699219 139.128906 138.628906 133.425781 C 131.976562 129.996094 128.042969 124.183594 126.453125 118.757812 C 126.453125 118.757812 126.449219 118.757812 126.449219 118.757812 C 125.433594 115.96875 123.019531 104.929688 124.097656 104.890625 C 125.027344 104.859375 126.929688 106.738281 127.429688 107.25 C 127.460938 107.214844 127.492188 107.175781 127.523438 107.140625 C 127.394531 106.082031 126.957031 101.84375 128.167969 101.710938 C 129.550781 101.558594 131.703125 105.632812 131.703125 105.632812 C 131.703125 105.632812 132.546875 102.171875 133.546875 102.171875 C 134.542969 102.171875 138.179688 111.855469 138.195312 111.902344 C 140.597656 115.941406 142.902344 120.859375 146.414062 123.210938 C 151.910156 126.890625 158.410156 124.613281 160.785156 123.558594 C 157.273438 118.804688 155.25 112.289062 155.828125 103.378906 C 157.152344 82.789062 171.390625 75.136719 182.816406 72.464844 C 181.414062 71.125 179.511719 69.539062 177.175781 68.148438 C 171.847656 64.984375 168.773438 62.734375 170.105469 60.488281 C 171.4375 58.242188 180.042969 59.058594 187.625 70.089844 C 185.265625 61.714844 182.707031 57.628906 180.554688 54.460938 C 178.402344 51.296875 181.167969 46.90625 187.007812 50.988281 C 192.570312 54.878906 193.761719 67.324219 193.066406 71.152344 C 193.121094 71.148438 193.171875 71.148438 193.226562 71.148438 C 196.089844 65.695312 197.136719 61.570312 196.738281 50.988281 C 196.332031 40.078125 199.507812 35.464844 202.273438 35.464844 C 205.140625 35.464844 208.082031 42.546875 204.90625 57.460938 C 202.960938 65.527344 199.402344 70.089844 199.402344 70.089844 C 199.402344 70.089844 208.214844 61.304688 210.570312 54.15625 C 212.925781 47.007812 220.710938 48.335938 218.148438 57.730469 C 216.476562 63.871094 210.035156 69.398438 205.171875 72.492188 C 216.574219 75.191406 230.714844 82.863281 232.039062 103.378906 C 232.570312 111.585938 230.890625 117.765625 227.878906 122.402344 C 232.878906 125.109375 240.746094 131.90625 243 142.308594 C 244.289062 148.25 244.441406 153.636719 243.707031 157.921875 Z M 158.367188 82.652344 C 154.558594 82.652344 151.019531 84.140625 148.410156 86.839844 C 146.222656 89.105469 143.667969 93.261719 143.925781 100.195312 C 144.148438 106.132812 146.847656 109.378906 149.074219 111.054688 C 151.527344 112.90625 154.824219 113.925781 158.351562 113.925781 C 158.84375 113.925781 159.339844 113.90625 159.824219 113.863281 C 163.660156 113.546875 166.589844 112.386719 168.777344 110.316406 C 171.574219 107.671875 172.992188 103.617188 172.992188 98.261719 C 172.992188 88.195312 167.800781 82.652344 158.367188 82.652344 Z M 244.246094 96.382812 C 244.027344 90.445312 241.324219 87.199219 239.101562 85.519531 C 236.644531 83.671875 233.347656 82.652344 229.820312 82.652344 C 229.328125 82.652344 228.832031 82.671875 228.347656 82.710938 C 224.511719 83.027344 221.585938 84.1875 219.394531 86.261719 C 216.597656 88.90625 215.179688 92.960938 215.179688 98.316406 C 215.179688 108.382812 220.371094 113.925781 229.804688 113.925781 C 233.617188 113.925781 237.152344 112.4375 239.761719 109.734375 C 241.953125 107.46875 244.507812 103.316406 244.246094 96.382812 Z M 244.246094 96.382812 " fill-opacity="1" fill-rule="nonzero"/></g><path fill="#0e0f1a" d="M 168.894531 98.265625 C 168.894531 106.746094 164.902344 108.753906 161.066406 109.117188 C 157.28125 109.476562 151.828125 107.679688 151.574219 99.777344 C 151.316406 91.871094 155.421875 87.417969 160.167969 87.417969 C 164.402344 87.417969 168.894531 89.429688 168.894531 98.265625 Z M 228.332031 109.160156 C 233.078125 109.160156 237.183594 104.703125 236.925781 96.800781 C 236.671875 88.898438 231.21875 87.101562 227.433594 87.460938 C 223.597656 87.824219 219.605469 89.832031 219.605469 98.308594 C 219.605469 107.148438 224.097656 109.160156 228.332031 109.160156 Z M 183.25 104.242188 C 178.75 106.015625 184.242188 116.953125 193.589844 116.953125 C 205.714844 116.953125 209.675781 105.121094 203.910156 103.933594 C 198.148438 102.746094 188.675781 102.105469 183.25 104.242188 Z M 183.25 104.242188 " fill-opacity="1" fill-rule="nonzero"/><path fill="#ffffff" d="M 158.367188 85 C 151.691406 85 145.917969 90.445312 146.28125 100.105469 C 146.640625 109.765625 154.308594 111.960938 159.632812 111.523438 C 165.023438 111.078125 170.636719 108.625 170.636719 98.261719 C 170.636719 87.460938 164.324219 85 158.367188 85 Z M 160.910156 107.851562 C 157.566406 108.167969 152.75 106.582031 152.523438 99.601562 C 152.296875 92.621094 155.921875 88.6875 160.113281 88.6875 C 163.855469 88.6875 167.820312 90.464844 167.820312 98.269531 C 167.820312 105.757812 164.296875 107.53125 160.910156 107.851562 Z M 241.894531 96.46875 C 241.53125 86.808594 233.863281 84.613281 228.542969 85.054688 C 223.148438 85.5 217.535156 87.953125 217.535156 98.316406 C 217.535156 109.117188 223.851562 111.574219 229.804688 111.574219 C 236.480469 111.574219 242.253906 106.128906 241.894531 96.46875 Z M 228.261719 107.890625 C 224.523438 107.890625 220.554688 106.113281 220.554688 98.308594 C 220.554688 90.820312 224.082031 89.046875 227.46875 88.722656 C 230.8125 88.40625 235.628906 89.992188 235.855469 96.972656 C 236.082031 103.957031 232.457031 107.890625 228.261719 107.890625 Z M 199.996094 103.289062 C 199.996094 103.289062 200.847656 107.710938 202.152344 107.964844 C 203.460938 108.222656 204.863281 104.230469 204.863281 104.230469 C 204.863281 104.230469 203.179688 103.410156 199.996094 103.289062 Z M 199.996094 103.289062 " fill-opacity="1" fill-rule="nonzero"/><g clip-path="url(#id5)"><path fill="#1d949a" d="M 241.964844 165.28125 C 240.5625 169.257812 238.863281 171.355469 238.03125 171.417969 C 237.007812 171.496094 237.265625 167.835938 237.265625 167.835938 C 237.265625 167.835938 234.730469 173.332031 233.578125 172.949219 C 232.425781 172.566406 232.796875 166.941406 232.796875 166.941406 C 232.796875 166.941406 231.191406 170.179688 229.734375 169.734375 C 229.15625 169.554688 229.476562 164.90625 229.847656 161.015625 Z M 133.546875 102.171875 C 132.546875 102.171875 131.703125 105.632812 131.703125 105.632812 C 131.703125 105.632812 129.550781 101.558594 128.167969 101.710938 C 126.957031 101.84375 127.394531 106.082031 127.523438 107.140625 C 127.492188 107.175781 127.460938 107.214844 127.429688 107.25 C 126.929688 106.738281 125.027344 104.859375 124.097656 104.890625 C 123.4375 104.914062 124.089844 109.070312 124.925781 112.929688 L 136.640625 107.976562 C 135.519531 105.277344 134.109375 102.171875 133.546875 102.171875 Z M 133.546875 102.171875 " fill-opacity="1" fill-rule="nonzero"/></g><g clip-path="url(#id6)"><path fill="#175c71" d="M 223.390625 82.246094 C 223.105469 82.742188 222.769531 83.207031 222.40625 83.636719 C 220.339844 86.085938 215.140625 88.09375 210.296875 83.480469 C 206.472656 79.835938 206.097656 75.960938 207.515625 73.113281 C 212.964844 74.699219 218.777344 77.476562 223.390625 82.246094 Z M 205.832031 88.375 C 207.175781 87.207031 208.875 87.148438 210.492188 88.980469 C 212.019531 90.714844 211.472656 92.203125 210.394531 93.101562 C 209.1875 94.113281 207.585938 94.386719 205.773438 92.628906 C 204.261719 91.164062 204.910156 89.179688 205.832031 88.375 Z M 164.0625 116.878906 C 163.8125 115.847656 164.253906 114.9375 165.671875 114.597656 C 167.011719 114.273438 167.644531 114.972656 167.824219 115.789062 C 168.023438 116.703125 167.726562 117.621094 166.296875 118.085938 C 165.101562 118.476562 164.230469 117.585938 164.0625 116.878906 Z M 193.933594 135.953125 C 194.332031 135.953125 194.734375 135.949219 195.144531 135.941406 C 195.585938 132.03125 192.609375 127.882812 186.128906 126.152344 C 178.96875 124.238281 175.878906 128.617188 175.171875 132.089844 C 175.097656 132.472656 175.035156 132.863281 175 133.257812 C 181.421875 135.402344 188.351562 135.953125 193.933594 135.953125 Z M 243 142.308594 C 242.742188 141.113281 242.402344 139.96875 242.007812 138.867188 C 237.769531 140.695312 236.269531 145.507812 237.109375 149.007812 C 237.675781 151.382812 240.351562 154.304688 244.117188 153.847656 C 244.25 150.402344 243.90625 146.492188 243 142.308594 Z M 146.414062 123.210938 C 144.179688 121.714844 142.433594 119.179688 140.839844 116.492188 C 140.257812 116.640625 139.730469 116.980469 139.230469 117.515625 C 137.769531 119.09375 136.820312 122.535156 139.480469 124.871094 C 142.285156 127.339844 145.925781 126.546875 147.738281 124.511719 C 147.847656 124.390625 147.941406 124.25 148.023438 124.109375 C 147.480469 123.859375 146.941406 123.566406 146.414062 123.210938 Z M 146.414062 123.210938 " fill-opacity="0.2" fill-rule="nonzero"/></g><g clip-path="url(#id7)"><path fill="#175c71" d="M 218.601562 142.832031 C 214.417969 143.203125 210.195312 143.847656 206.191406 145.117188 C 206.148438 144.570312 206.105469 144.039062 206.058594 143.535156 C 210 142.324219 214.132812 141.679688 218.242188 141.296875 C 218.363281 141.796875 218.484375 142.304688 218.601562 142.832031 Z M 220.035156 151.546875 C 215.464844 151.730469 210.894531 152.347656 206.441406 153.300781 C 206.433594 153.820312 206.425781 154.351562 206.414062 154.894531 C 210.910156 153.886719 215.519531 153.316406 220.101562 153.121094 C 220.128906 153.117188 220.15625 153.117188 220.179688 153.117188 C 220.136719 152.585938 220.089844 152.0625 220.035156 151.546875 Z M 205.742188 164.363281 C 205.671875 164.898438 205.59375 165.421875 205.515625 165.929688 C 210.335938 165.941406 215.152344 166.09375 219.964844 166.394531 C 220.027344 165.875 220.085938 165.355469 220.136719 164.839844 C 215.34375 164.539062 210.542969 164.378906 205.742188 164.363281 Z M 203.363281 174.757812 C 203.171875 175.3125 202.976562 175.835938 202.78125 176.335938 C 207.019531 176.257812 211.261719 176.386719 215.488281 176.730469 C 216.207031 176.789062 216.921875 176.859375 217.636719 176.929688 C 217.804688 176.425781 217.960938 175.917969 218.113281 175.410156 C 213.214844 174.914062 208.289062 174.691406 203.363281 174.757812 Z M 181.726562 144.742188 C 177.855469 143.152344 173.726562 142.234375 169.554688 141.679688 C 169.4375 142.171875 169.320312 142.679688 169.207031 143.203125 C 173.464844 143.753906 177.695312 144.695312 181.613281 146.382812 C 181.648438 145.816406 181.6875 145.265625 181.726562 144.742188 Z M 181.503906 155.773438 C 181.484375 155.21875 181.472656 154.675781 181.460938 154.144531 C 177.019531 152.933594 172.429688 152.171875 167.832031 151.785156 C 167.78125 152.292969 167.734375 152.808594 167.691406 153.328125 C 171.105469 153.621094 174.503906 154.144531 177.832031 154.867188 C 179.0625 155.136719 180.289062 155.4375 181.503906 155.773438 Z M 182.378906 165.945312 C 182.296875 165.4375 182.222656 164.914062 182.152344 164.375 C 177.34375 164.324219 172.539062 164.414062 167.738281 164.644531 C 167.785156 165.164062 167.839844 165.683594 167.902344 166.203125 C 172.722656 165.972656 177.550781 165.886719 182.378906 165.945312 Z M 184.097656 176.398438 C 184.449219 176.410156 184.800781 176.433594 185.152344 176.449219 C 184.957031 175.945312 184.757812 175.414062 184.5625 174.855469 C 179.605469 174.648438 174.636719 174.734375 169.691406 175.109375 C 169.835938 175.621094 169.992188 176.128906 170.15625 176.640625 C 174.796875 176.308594 179.449219 176.222656 184.097656 176.398438 Z M 196.679688 119.21875 C 195.054688 119.710938 193.386719 119.671875 191.765625 119.109375 C 191.367188 118.972656 190.910156 119.277344 190.804688 119.664062 C 190.6875 120.097656 190.960938 120.484375 191.359375 120.625 C 193.203125 121.261719 195.246094 121.289062 197.109375 120.722656 C 197.515625 120.601562 197.765625 120.167969 197.648438 119.757812 C 197.535156 119.355469 197.085938 119.09375 196.679688 119.21875 Z M 196.679688 119.21875 " fill-opacity="1" fill-rule="nonzero"/></g><g fill="#ffffff" fill-opacity="1"><g transform="translate(37.953638, 179.842637)"><g><path d="M 24.160156 -44.996094 L 24.160156 -28.386719 C 22.832031 -29.835938 19.449219 -31.164062 16.730469 -31.164062 C 8.578125 -31.164062 1.75 -24.039062 1.75 -15.21875 C 1.75 -6.523438 8.394531 0.664062 16.730469 0.664062 C 19.507812 0.664062 22.832031 -0.421875 24.160156 -2.175781 L 24.160156 0 L 32.734375 0 L 32.734375 -44.996094 Z M 17.574219 -7.851562 C 13.648438 -7.851562 10.449219 -10.871094 10.449219 -15.21875 C 10.449219 -19.507812 13.648438 -22.589844 17.574219 -22.589844 C 21.5625 -22.589844 24.523438 -19.507812 24.523438 -15.21875 C 24.523438 -10.871094 21.5625 -7.851562 17.574219 -7.851562 Z M 17.574219 -7.851562 "/></g></g></g><g fill="#ffffff" fill-opacity="1"><g transform="translate(73.709072, 179.842637)"><g><path d="M 7.246094 -35.875 C 10.148438 -35.875 12.382812 -38.113281 12.382812 -40.769531 C 12.382812 -43.246094 10.148438 -45.480469 7.246094 -45.480469 C 4.589844 -45.480469 2.296875 -43.183594 2.296875 -40.769531 C 2.296875 -38.113281 4.589844 -35.875 7.246094 -35.875 Z M 11.597656 -30.5 L 3.019531 -30.5 L 3.019531 0 L 11.597656 0 Z M 11.597656 -30.5 "/></g></g></g><g fill="#ffffff" fill-opacity="1"><g transform="translate(88.325317, 179.842637)"><g><path d="M 24.160156 -30.5 L 24.160156 -28.386719 C 22.832031 -29.835938 19.449219 -31.164062 16.730469 -31.164062 C 8.578125 -31.164062 1.75 -24.039062 1.75 -15.21875 C 1.75 -6.523438 8.394531 0.664062 16.730469 0.664062 C 19.507812 0.664062 22.832031 -0.421875 24.160156 -2.175781 L 24.160156 0 L 32.734375 0 L 32.734375 -30.5 Z M 17.574219 -7.851562 C 13.648438 -7.851562 10.449219 -10.871094 10.449219 -15.21875 C 10.449219 -19.507812 13.648438 -22.589844 17.574219 -22.589844 C 21.5625 -22.589844 24.523438 -19.507812 24.523438 -15.21875 C 24.523438 -10.871094 21.5625 -7.851562 17.574219 -7.851562 Z M 17.574219 -7.851562 "/></g></g></g><g fill="#ffffff" fill-opacity="1"><g transform="translate(124.080751, 179.842637)"><g><path d="M 17.152344 6.703125 C 14.617188 6.703125 12.382812 5.375 11.113281 3.261719 L 4.167969 8.273438 C 7.007812 12.441406 11.71875 15.21875 17.152344 15.21875 C 25.789062 15.21875 32.734375 8.214844 32.734375 -0.300781 L 32.734375 -30.5 L 24.160156 -30.5 L 24.160156 -28.386719 C 22.832031 -29.835938 19.449219 -31.164062 16.730469 -31.164062 C 8.578125 -31.164062 1.75 -24.039062 1.75 -15.21875 C 1.75 -6.523438 8.394531 0.664062 16.730469 0.664062 C 19.507812 0.664062 22.832031 -0.421875 24.160156 -2.175781 L 24.160156 0.242188 C 24.160156 3.867188 21.078125 6.703125 17.152344 6.703125 Z M 17.574219 -7.851562 C 13.648438 -7.851562 10.449219 -10.871094 10.449219 -15.21875 C 10.449219 -19.507812 13.648438 -22.589844 17.574219 -22.589844 C 21.5625 -22.589844 24.523438 -19.507812 24.523438 -15.21875 C 24.523438 -10.871094 21.5625 -7.851562 17.574219 -7.851562 Z M 17.574219 -7.851562 "/></g></g></g><g fill="#ffffff" fill-opacity="1"><g transform="translate(159.836185, 179.842637)"><g><path d="M 33.761719 -15.21875 C 33.761719 -24.039062 27.964844 -31.164062 19.628906 -31.164062 C 16.851562 -31.164062 13.289062 -30.320312 11.597656 -28.386719 L 11.597656 -30.5 L 3.019531 -30.5 L 3.019531 0 L 11.597656 0 L 11.597656 -15.21875 C 11.597656 -20.113281 15.101562 -22.589844 18.90625 -22.589844 C 22.40625 -22.589844 25.246094 -20.113281 25.246094 -15.21875 L 25.246094 0 L 33.761719 0 Z M 33.761719 -15.21875 "/></g></g></g><g fill="#ffffff" fill-opacity="1"><g transform="translate(196.195599, 179.842637)"><g><path d="M 17.574219 -31.164062 C 8.816406 -31.164062 1.75 -24.039062 1.75 -15.21875 C 1.75 -6.523438 8.816406 0.664062 17.574219 0.664062 C 26.332031 0.664062 33.640625 -6.523438 33.640625 -15.21875 C 33.640625 -24.039062 26.332031 -31.164062 17.574219 -31.164062 Z M 17.574219 -7.851562 C 13.648438 -7.851562 10.449219 -10.871094 10.449219 -15.21875 C 10.449219 -19.507812 13.648438 -22.589844 17.574219 -22.589844 C 21.742188 -22.589844 24.882812 -19.507812 24.882812 -15.21875 C 24.882812 -10.871094 21.742188 -7.851562 17.574219 -7.851562 Z M 17.574219 -7.851562 "/></g></g></g><g fill="#ffffff" fill-opacity="1"><g transform="translate(231.588656, 179.842637)"><g><path d="M 10.871094 -12.261719 C 12.804688 -11.957031 13.589844 -11.113281 13.589844 -9.90625 C 13.589844 -8.757812 12.863281 -7.851562 11.292969 -7.851562 C 9.964844 -7.851562 8.878906 -8.214844 7.972656 -9.179688 L 0.726562 -3.925781 C 3.382812 -0.90625 6.703125 0.664062 11.234375 0.664062 C 17.816406 0.664062 22.953125 -3.5625 22.953125 -9.785156 C 22.953125 -16.066406 18.664062 -18.964844 13.046875 -19.691406 C 10.507812 -19.992188 9.785156 -20.597656 9.785156 -21.621094 C 9.785156 -22.527344 10.449219 -23.191406 11.597656 -23.191406 C 12.742188 -23.191406 13.589844 -22.648438 14.375 -21.925781 L 20.535156 -26.394531 C 18.359375 -29.535156 15.339844 -31.164062 11.414062 -31.164062 C 6.886719 -31.164062 1.390625 -27.238281 1.390625 -21.925781 C 1.390625 -16.730469 5.316406 -13.046875 10.871094 -12.261719 Z M 10.871094 -12.261719 "/></g></g></g><g fill="#ffffff" fill-opacity="1"><g transform="translate(255.868525, 179.842637)"><g><path d="M 24.882812 -10.933594 C 23.496094 -8.757812 20.898438 -7.851562 18.300781 -7.851562 C 17.394531 -7.851562 16.550781 -7.914062 15.765625 -8.214844 L 32.796875 -20.414062 C 30.925781 -26.09375 25.125 -31.164062 17.574219 -31.164062 C 8.816406 -31.164062 1.75 -24.039062 1.75 -15.21875 C 1.75 -6.523438 9.121094 0.664062 18.300781 0.664062 C 23.738281 0.664062 29.113281 -1.8125 31.710938 -5.675781 Z M 10.449219 -15.21875 C 10.449219 -19.507812 13.648438 -22.589844 17.574219 -22.589844 C 19.207031 -22.589844 20.597656 -22.046875 21.804688 -21.140625 L 10.691406 -13.226562 C 10.507812 -13.832031 10.449219 -14.496094 10.449219 -15.21875 Z M 10.449219 -15.21875 "/></g></g></g><g fill="#ffffff" fill-opacity="1"><g transform="translate(290.416015, 179.842637)"><g><path d="M 13.648438 -44.996094 L 4.289062 -44.996094 L 4.289062 0 L 13.648438 0 Z M 13.648438 -44.996094 "/></g></g></g><g fill="#ffffff" fill-opacity="1"><g transform="translate(308.354138, 179.842637)"><g><path d="M 20.898438 -22.589844 L 20.898438 -30.5 L 13.648438 -30.5 L 13.648438 -40.707031 L 5.074219 -34.488281 L 5.074219 -30.5 L 0.484375 -30.5 L 0.484375 -22.589844 L 5.074219 -22.589844 L 5.074219 -12.625 C 5.074219 -4.710938 11.597656 0.664062 20.714844 0.664062 L 20.714844 -7.851562 C 16.789062 -7.851562 13.648438 -9.421875 13.648438 -12.863281 L 13.648438 -22.589844 Z M 20.898438 -22.589844 "/></g></g></g><g fill="#ffde59" fill-opacity="1"><g transform="translate(55.276454, 212.322921)"><g><path d="M 1.03125 -10.828125 L 1.03125 0 L 5.4375 0 C 8.546875 0 11.089844 -2.3125 11.089844 -5.421875 C 11.089844 -8.503906 8.546875 -10.828125 5.421875 -10.828125 Z M 3.285156 -2.035156 L 3.285156 -8.792969 L 5.421875 -8.792969 C 7.3125 -8.792969 8.78125 -7.382812 8.78125 -5.421875 C 8.78125 -3.472656 7.3125 -2.035156 5.4375 -2.035156 Z M 3.285156 -2.035156 "/></g></g></g><g fill="#ffde59" fill-opacity="1"><g transform="translate(72.763866, 212.322921)"><g><path d="M 3.285156 -10.828125 L 1.03125 -10.828125 L 1.03125 0 L 3.285156 0 Z M 3.285156 -10.828125 "/></g></g></g><g fill="#ffde59" fill-opacity="1"><g transform="translate(82.895836, 212.322921)"><g><path d="M 3.632812 -4.796875 C 4.679688 -4.679688 5.261719 -4.144531 5.261719 -3.269531 C 5.261719 -2.574219 4.679688 -1.976562 3.9375 -1.976562 C 3.300781 -1.976562 2.789062 -2.136719 2.296875 -2.761719 L 0.4375 -1.394531 C 1.46875 -0.261719 2.703125 0.1875 3.9375 0.1875 C 5.84375 0.1875 7.601562 -1.324219 7.601562 -3.429688 C 7.601562 -5.523438 6.078125 -6.773438 4.230469 -6.890625 C 3.082031 -6.964844 2.71875 -7.414062 2.71875 -7.90625 C 2.71875 -8.503906 3.125 -8.867188 3.722656 -8.867188 C 4.097656 -8.867188 4.578125 -8.632812 4.871094 -8.328125 L 6.644531 -9.625 C 5.816406 -10.613281 4.796875 -11.019531 3.722656 -11.019531 C 2.222656 -11.019531 0.539062 -9.726562 0.539062 -7.894531 C 0.539062 -6.191406 1.757812 -5.015625 3.632812 -4.796875 Z M 3.632812 -4.796875 "/></g></g></g><g fill="#ffde59" fill-opacity="1"><g transform="translate(96.792744, 212.322921)"><g><path d="M 7.746094 0 L 7.746094 -2.035156 L 3.285156 -2.035156 L 3.285156 -4.753906 L 7.355469 -4.753906 L 7.355469 -6.773438 L 3.285156 -6.773438 L 3.285156 -8.792969 L 6.789062 -8.792969 L 6.789062 -10.828125 L 1.03125 -10.828125 L 1.03125 0 Z M 7.746094 0 "/></g></g></g><g fill="#ffde59" fill-opacity="1"><g transform="translate(110.93678, 212.322921)"><g><path d="M 8.894531 0 L 11.351562 0 L 5.625 -11.019531 L -0.0859375 0 L 2.238281 0 L 2.9375 -1.453125 L 8.183594 -1.453125 Z M 5.539062 -6.859375 L 7.195312 -3.488281 L 3.910156 -3.488281 Z M 5.539062 -6.859375 "/></g></g></g><g fill="#ffde59" fill-opacity="1"><g transform="translate(128.017174, 212.322921)"><g><path d="M 3.632812 -4.796875 C 4.679688 -4.679688 5.261719 -4.144531 5.261719 -3.269531 C 5.261719 -2.574219 4.679688 -1.976562 3.9375 -1.976562 C 3.300781 -1.976562 2.789062 -2.136719 2.296875 -2.761719 L 0.4375 -1.394531 C 1.46875 -0.261719 2.703125 0.1875 3.9375 0.1875 C 5.84375 0.1875 7.601562 -1.324219 7.601562 -3.429688 C 7.601562 -5.523438 6.078125 -6.773438 4.230469 -6.890625 C 3.082031 -6.964844 2.71875 -7.414062 2.71875 -7.90625 C 2.71875 -8.503906 3.125 -8.867188 3.722656 -8.867188 C 4.097656 -8.867188 4.578125 -8.632812 4.871094 -8.328125 L 6.644531 -9.625 C 5.816406 -10.613281 4.796875 -11.019531 3.722656 -11.019531 C 2.222656 -11.019531 0.539062 -9.726562 0.539062 -7.894531 C 0.539062 -6.191406 1.757812 -5.015625 3.632812 -4.796875 Z M 3.632812 -4.796875 "/></g></g></g><g fill="#ffde59" fill-opacity="1"><g transform="translate(141.914084, 212.322921)"><g><path d="M 7.746094 0 L 7.746094 -2.035156 L 3.285156 -2.035156 L 3.285156 -4.753906 L 7.355469 -4.753906 L 7.355469 -6.773438 L 3.285156 -6.773438 L 3.285156 -8.792969 L 6.789062 -8.792969 L 6.789062 -10.828125 L 1.03125 -10.828125 L 1.03125 0 Z M 7.746094 0 "/></g></g></g><g fill="#ffde59" fill-opacity="1"><g transform="translate(156.05812, 212.322921)"><g/></g></g><g fill="#ffde59" fill-opacity="1"><g transform="translate(167.992605, 212.322921)"><g><path d="M 3.285156 0 L 3.285156 -1.644531 L 4.578125 -1.644531 C 7.296875 -1.644531 9.257812 -3.691406 9.257812 -6.46875 C 9.257812 -8.664062 7.382812 -10.828125 4.722656 -10.828125 L 1.03125 -10.828125 L 1.03125 0 Z M 3.285156 -3.691406 L 3.285156 -8.792969 L 4.652344 -8.792969 C 6.121094 -8.792969 6.949219 -7.5 6.949219 -6.234375 C 6.949219 -4.839844 6.089844 -3.691406 4.519531 -3.691406 Z M 3.285156 -3.691406 "/></g></g></g><g fill="#ffde59" fill-opacity="1"><g transform="translate(183.503066, 212.322921)"><g><path d="M 4.417969 -1.875 L 6.191406 0 L 9.1875 0 L 6.847656 -2.5 C 8.359375 -3.199219 9.289062 -4.621094 9.289062 -6.570312 C 9.289062 -8.925781 7.339844 -10.828125 4.796875 -10.828125 L 1.03125 -10.828125 L 1.03125 0 L 3.285156 0 L 3.285156 -1.875 Z M 3.285156 -3.910156 L 3.285156 -8.792969 L 4.652344 -8.792969 C 6.191406 -8.792969 6.976562 -7.71875 6.976562 -6.394531 C 6.976562 -4.78125 6.003906 -3.910156 4.214844 -3.910156 Z M 3.285156 -3.910156 "/></g></g></g><g fill="#ffde59" fill-opacity="1"><g transform="translate(199.12981, 212.322921)"><g><path d="M 7.746094 0 L 7.746094 -2.035156 L 3.285156 -2.035156 L 3.285156 -4.753906 L 7.355469 -4.753906 L 7.355469 -6.773438 L 3.285156 -6.773438 L 3.285156 -8.792969 L 6.789062 -8.792969 L 6.789062 -10.828125 L 1.03125 -10.828125 L 1.03125 0 Z M 7.746094 0 "/></g></g></g><g fill="#ffde59" fill-opacity="1"><g transform="translate(213.273855, 212.322921)"><g><path d="M 1.03125 -10.828125 L 1.03125 0 L 5.4375 0 C 8.546875 0 11.089844 -2.3125 11.089844 -5.421875 C 11.089844 -8.503906 8.546875 -10.828125 5.421875 -10.828125 Z M 3.285156 -2.035156 L 3.285156 -8.792969 L 5.421875 -8.792969 C 7.3125 -8.792969 8.78125 -7.382812 8.78125 -5.421875 C 8.78125 -3.472656 7.3125 -2.035156 5.4375 -2.035156 Z M 3.285156 -2.035156 "/></g></g></g><g fill="#ffde59" fill-opacity="1"><g transform="translate(230.761265, 212.322921)"><g><path d="M 3.285156 -10.828125 L 1.03125 -10.828125 L 1.03125 0 L 3.285156 0 Z M 3.285156 -10.828125 "/></g></g></g><g fill="#ffde59" fill-opacity="1"><g transform="translate(240.893234, 212.322921)"><g><path d="M 9.449219 -4.78125 C 9.144531 -3.15625 7.777344 -1.976562 6.148438 -1.976562 C 4.332031 -1.976562 2.894531 -3.503906 2.894531 -5.40625 C 2.894531 -7.328125 4.332031 -8.867188 6.148438 -8.867188 C 7.269531 -8.867188 8.371094 -8.300781 9.15625 -7.136719 L 10.917969 -8.386719 C 9.941406 -9.972656 8.15625 -11.019531 6.132812 -11.019531 C 3.050781 -11.019531 0.582031 -8.503906 0.582031 -5.40625 C 0.582031 -2.3125 3.050781 0.1875 6.148438 0.1875 C 9.027344 0.1875 11.410156 -2.007812 11.730469 -4.78125 Z M 9.449219 -4.78125 "/></g></g></g><g fill="#ffde59" fill-opacity="1"><g transform="translate(259.020262, 212.322921)"><g><path d="M 5.203125 0 L 5.203125 -8.792969 L 8.054688 -8.792969 L 8.054688 -10.828125 L 0.277344 -10.828125 L 0.277344 -8.792969 L 2.949219 -8.792969 L 2.949219 0 Z M 5.203125 0 "/></g></g></g><g fill="#ffde59" fill-opacity="1"><g transform="translate(273.164298, 212.322921)"><g><path d="M 3.285156 -10.828125 L 1.03125 -10.828125 L 1.03125 0 L 3.285156 0 Z M 3.285156 -10.828125 "/></g></g></g><g fill="#ffde59" fill-opacity="1"><g transform="translate(283.296267, 212.322921)"><g><path d="M 6.191406 0.1875 C 9.289062 0.1875 11.789062 -2.324219 11.789062 -5.421875 C 11.789062 -8.519531 9.289062 -11.019531 6.179688 -11.019531 C 3.082031 -11.019531 0.582031 -8.519531 0.582031 -5.421875 C 0.582031 -2.324219 3.082031 0.1875 6.191406 0.1875 Z M 6.179688 -8.867188 C 8.007812 -8.867188 9.476562 -7.328125 9.476562 -5.421875 C 9.476562 -3.488281 8.023438 -1.976562 6.191406 -1.976562 C 4.332031 -1.976562 2.894531 -3.488281 2.894531 -5.421875 C 2.894531 -7.328125 4.332031 -8.867188 6.179688 -8.867188 Z M 6.179688 -8.867188 "/></g></g></g><g fill="#ffde59" fill-opacity="1"><g transform="translate(301.481427, 212.322921)"><g><path d="M 8.738281 -4.5625 L 1.03125 -11.03125 L 1.03125 0 L 3.285156 0 L 3.285156 -6.222656 L 10.988281 0.1875 L 10.988281 -10.828125 L 8.738281 -10.828125 Z M 8.738281 -4.5625 "/></g></g></g></svg>