<svg xmlns="http://www.w3.org/2000/svg" xmlns:xlink="http://www.w3.org/1999/xlink" width="800" zoomAndPan="magnify" viewBox="0 0 600 225" height="300" preserveAspectRatio="xMidYMid meet" version="1.0"><defs><g/><clipPath id="id1"><path d="M 13.535156 17 L 103 17 L 103 115 L 13.535156 115 Z M 13.535156 17 " clip-rule="nonzero"/></clipPath><clipPath id="id2"><path d="M 64 73 L 111 73 L 111 116.226562 L 64 116.226562 Z M 64 73 " clip-rule="nonzero"/></clipPath><clipPath id="id3"><path d="M 89 189 L 164 189 L 164 201.808594 L 89 201.808594 Z M 89 189 " clip-rule="nonzero"/></clipPath><clipPath id="id4"><path d="M 29 54.808594 L 197.449219 54.808594 L 197.449219 201.808594 L 29 201.808594 Z M 29 54.808594 " clip-rule="nonzero"/></clipPath><clipPath id="id5"><path d="M 29 147 L 194 147 L 194 201.808594 L 29 201.808594 Z M 29 147 " clip-rule="nonzero"/></clipPath><clipPath id="id6"><path d="M 48 107 L 197 107 L 197 201.808594 L 48 201.808594 Z M 48 107 " clip-rule="nonzero"/></clipPath><clipPath id="id7"><path d="M 90 172 L 164 172 L 164 201.808594 L 90 201.808594 Z M 90 172 " clip-rule="nonzero"/></clipPath></defs><g clip-path="url(#id1)"><path fill="#8aa2d4" d="M 98.664062 30.679688 C 97 29.65625 94.636719 30.375 93.207031 30.589844 C 91.855469 30.785156 90.484375 31.035156 89.085938 31.140625 C 82.601562 31.628906 74.847656 31.320312 68.746094 27.6875 C 66.421875 26.304688 64.566406 24.214844 62.859375 22.109375 C 61.699219 20.675781 60.628906 17.882812 58.910156 17.246094 C 57.050781 16.5625 56.136719 19.15625 55.222656 20.441406 C 54.125 22 53.054688 23.636719 51.582031 24.871094 C 48.925781 27.097656 45.832031 28.8125 42.527344 29.804688 C 37.015625 31.457031 31.6875 31.457031 26.324219 31.027344 C 24.0625 30.847656 22.046875 30.148438 19.9375 29.742188 C 15.839844 28.980469 16.253906 36.285156 15.890625 38.363281 C 15.320312 41.269531 14.828125 44.167969 14.464844 47.058594 C 13.800781 52.304688 13.546875 57.535156 14.09375 62.734375 C 14.949219 70.96875 18.082031 78.988281 23.542969 86.40625 C 27.921875 92.339844 33.40625 97.714844 39.046875 102.472656 C 43.160156 105.9375 47.421875 109.167969 51.808594 111.730469 C 53.738281 112.855469 55.707031 113.871094 57.800781 114.347656 C 57.90625 114.371094 58.140625 114.472656 58.238281 114.441406 C 60.09375 113.871094 61.8125 113.3125 63.597656 112.339844 C 67.730469 110.078125 71.726562 107.125 75.609375 103.980469 C 81.175781 99.464844 86.625 94.339844 91.175781 88.691406 C 96.792969 81.699219 100.515625 74.074219 101.910156 66.128906 C 102.953125 60.238281 102.84375 54.359375 102.1875 48.410156 C 101.722656 44.199219 100.628906 39.980469 100.34375 35.761719 C 100.253906 34.398438 100.546875 32.574219 99.367188 31.265625 C 99.152344 31.023438 98.914062 30.832031 98.664062 30.679688 Z M 98.664062 30.679688 " fill-opacity="1" fill-rule="nonzero"/></g><path fill="#414370" d="M 58.109375 107.335938 C 56.4375 107.335938 45.179688 102.984375 34.53125 93.304688 C 27.480469 86.652344 22.757812 79.578125 20.082031 71.667969 C 16.570312 61.285156 16.804688 49.589844 20.777344 36.914062 C 20.78125 36.875 20.792969 36.839844 20.808594 36.804688 C 20.886719 36.628906 21.074219 36.511719 21.265625 36.511719 C 21.367188 36.511719 21.46875 36.535156 21.914062 36.648438 C 23.355469 37.015625 27.75 38.128906 33.261719 38.128906 C 40.332031 38.128906 50.339844 36.234375 57.867188 27.21875 C 57.960938 27.109375 58.097656 27.042969 58.242188 27.042969 C 58.386719 27.042969 58.523438 27.109375 58.613281 27.21875 C 65.78125 35.90625 76.304688 37.726562 83.867188 37.726562 C 88.574219 37.726562 92.347656 37.035156 93.765625 36.773438 C 94.246094 36.6875 94.390625 36.660156 94.496094 36.660156 C 94.683594 36.660156 94.875 36.773438 94.957031 36.941406 C 94.976562 36.976562 94.988281 37.015625 94.996094 37.054688 C 98.941406 49.773438 99.199219 61.484375 95.765625 71.863281 C 93.148438 79.773438 88.507812 86.828125 81.585938 93.433594 C 70.582031 103.550781 59.742188 107.332031 58.367188 107.332031 C 58.324219 107.332031 58.28125 107.332031 58.242188 107.324219 C 58.203125 107.332031 58.15625 107.335938 58.109375 107.335938 Z M 58.109375 106.359375 L 58.109375 106.84375 L 58.113281 106.359375 C 58.109375 106.359375 58.109375 106.359375 58.109375 106.359375 Z M 21.589844 37.574219 C 14.808594 59.5625 19.261719 77.5625 35.191406 92.585938 C 45.992188 102.40625 56.625 106.242188 58.046875 106.359375 C 58.109375 106.332031 58.183594 106.324219 58.238281 106.316406 C 58.304688 106.316406 58.367188 106.332031 58.425781 106.355469 C 59.851562 106.238281 70.347656 102.441406 80.921875 92.71875 C 96.363281 77.992188 100.824219 59.476562 94.171875 37.691406 C 94.101562 37.703125 94.023438 37.71875 93.941406 37.734375 C 92.496094 37.996094 88.660156 38.703125 83.867188 38.703125 C 76.222656 38.703125 65.632812 36.878906 58.238281 28.285156 C 50.515625 37.210938 40.421875 39.101562 33.261719 39.101562 C 27.628906 39.101562 23.148438 37.964844 21.675781 37.59375 C 21.648438 37.585938 21.617188 37.578125 21.589844 37.574219 Z M 21.589844 37.574219 " fill-opacity="1" fill-rule="nonzero"/><path fill="#ffffff" d="M 78.132812 56.039062 C 75.292969 55.714844 72.4375 55.464844 69.578125 55.277344 C 69.621094 52.289062 69.652344 49.300781 69.671875 46.3125 C 69.6875 44.5 68.984375 42.757812 67.714844 41.402344 C 66.390625 39.996094 64.542969 39.148438 62.628906 39.097656 C 59.703125 39.015625 56.777344 39.015625 53.851562 39.097656 C 51.941406 39.148438 50.09375 39.996094 48.769531 41.402344 C 47.496094 42.757812 46.792969 44.5 46.808594 46.304688 C 46.828125 49.292969 46.863281 52.285156 46.90625 55.277344 C 44.046875 55.464844 41.191406 55.714844 38.351562 56.039062 C 34.589844 56.476562 31.730469 59.820312 32.035156 63.480469 C 32.230469 65.875 32.445312 68.277344 32.671875 70.679688 C 33.039062 74.414062 36.414062 77.285156 40.253906 76.980469 C 42.621094 76.785156 45.007812 76.640625 47.394531 76.523438 C 47.484375 79.425781 47.585938 82.324219 47.695312 85.226562 C 47.847656 89.015625 50.890625 92.070312 54.597656 92.101562 C 54.636719 92.101562 54.671875 92.101562 54.710938 92.101562 C 57.0625 92.082031 59.414062 92.082031 61.773438 92.101562 C 61.8125 92.101562 61.847656 92.101562 61.882812 92.101562 C 65.589844 92.070312 68.632812 89.019531 68.789062 85.21875 C 68.894531 82.320312 68.996094 79.421875 69.085938 76.523438 C 71.472656 76.640625 73.859375 76.789062 76.226562 76.980469 C 76.453125 76.996094 76.675781 77.003906 76.898438 77 C 80.472656 76.929688 83.464844 74.195312 83.808594 70.671875 C 84.039062 68.273438 84.25 65.878906 84.445312 63.484375 C 84.75 59.820312 81.886719 56.476562 78.132812 56.039062 Z M 78.132812 56.039062 " fill-opacity="1" fill-rule="nonzero"/><g clip-path="url(#id2)"><path fill="#f08486" d="M 86.570312 81.863281 C 83.492188 74.527344 78.863281 74.101562 74.210938 76.851562 C 69.675781 79.605469 65.113281 85.535156 64.804688 90.980469 C 64.503906 97.613281 66.359375 99.492188 72.300781 102.832031 C 77.03125 105.460938 84.015625 109.835938 84.914062 116.117188 C 84.695312 110.46875 93.320312 107.636719 96.871094 106.046875 C 102.730469 103.5 107.992188 102.902344 110.082031 96.234375 C 112.539062 88.71875 107.46875 80.667969 102.097656 76.574219 C 96.515625 72.527344 90.628906 72.4375 86.570312 81.863281 Z M 86.570312 81.863281 " fill-opacity="1" fill-rule="nonzero"/></g><g clip-path="url(#id3)"><path fill="#1d949a" d="M 111.964844 194.714844 C 111.964844 194.714844 108.472656 206.09375 109.773438 228.226562 C 111.078125 250.414062 117.976562 258.675781 119.402344 262.828125 C 120.832031 266.984375 118.332031 276.148438 115.761719 275.726562 C 112.351562 275.164062 111.578125 267.878906 111.578125 267.878906 C 111.578125 267.878906 106.648438 276.800781 103.539062 276.109375 C 100.203125 275.367188 102.09375 266.96875 102.09375 266.96875 C 102.09375 266.96875 94.429688 272.179688 93.144531 270.675781 C 91.859375 269.171875 97.609375 262.542969 97.609375 262.542969 C 80.460938 227.296875 97.609375 189.0625 97.609375 189.0625 Z M 141.882812 194.714844 C 141.882812 194.714844 145.375 206.09375 144.074219 228.226562 C 142.769531 250.414062 135.871094 258.675781 134.445312 262.828125 C 133.015625 266.984375 135.515625 276.148438 138.085938 275.726562 C 141.496094 275.164062 142.269531 267.878906 142.269531 267.878906 C 142.269531 267.878906 147.199219 276.800781 150.308594 276.109375 C 153.644531 275.367188 151.753906 266.96875 151.753906 266.96875 C 151.753906 266.96875 159.417969 272.179688 160.703125 270.675781 C 161.988281 269.171875 156.238281 262.542969 156.238281 262.542969 C 173.386719 227.296875 156.238281 189.0625 156.238281 189.0625 Z M 141.882812 194.714844 " fill-opacity="1" fill-rule="nonzero"/></g><g clip-path="url(#id4)"><path fill="#2dbcb7" d="M 196.347656 226.59375 C 196.347656 226.597656 196.351562 226.601562 196.351562 226.609375 C 194.625 238.851562 190.171875 245.398438 188.429688 245.527344 C 187 245.636719 187.359375 240.503906 187.359375 240.503906 C 187.359375 240.503906 183.820312 248.214844 182.214844 247.679688 C 180.605469 247.140625 181.125 239.246094 181.125 239.246094 C 181.125 239.246094 178.882812 243.792969 176.855469 243.164062 C 175.460938 242.734375 177.800781 223.574219 177.800781 223.574219 C 178.253906 216.199219 179.386719 207.882812 177.925781 201.828125 C 175.539062 191.914062 168.355469 186.21875 166.695312 185.011719 C 155.257812 193.960938 138.863281 195.777344 126.90625 195.777344 C 115.390625 195.777344 99.753906 194.09375 88.394531 185.972656 C 84.109375 190.335938 65.195312 200.234375 49.753906 192.230469 C 40.46875 187.417969 34.980469 179.265625 32.761719 171.65625 C 32.761719 171.652344 32.761719 171.652344 32.761719 171.652344 C 31.34375 167.742188 27.976562 152.253906 29.476562 152.203125 C 30.773438 152.15625 33.425781 154.792969 34.125 155.511719 C 34.167969 155.460938 34.214844 155.410156 34.257812 155.359375 C 34.078125 153.875 33.46875 147.929688 35.15625 147.742188 C 37.085938 147.527344 40.089844 153.242188 40.089844 153.242188 C 40.089844 153.242188 41.265625 148.386719 42.660156 148.386719 C 44.050781 148.386719 49.125 161.972656 49.148438 162.039062 C 52.5 167.703125 55.714844 174.605469 60.613281 177.902344 C 68.28125 183.066406 77.347656 179.871094 80.660156 178.390625 C 75.761719 171.722656 72.941406 162.578125 73.742188 150.082031 C 75.597656 121.199219 95.460938 110.460938 111.394531 106.714844 C 109.441406 104.832031 106.789062 102.605469 103.527344 100.660156 C 96.09375 96.21875 91.808594 93.066406 93.667969 89.914062 C 95.523438 86.761719 107.527344 87.90625 118.105469 103.378906 C 114.816406 91.632812 111.246094 85.902344 108.242188 81.460938 C 105.242188 77.019531 109.101562 70.855469 117.246094 76.585938 C 125.003906 82.046875 126.667969 99.503906 125.699219 104.871094 C 125.773438 104.867188 125.84375 104.867188 125.917969 104.867188 C 129.917969 97.214844 131.378906 91.429688 130.824219 76.585938 C 130.25 61.28125 134.683594 54.808594 138.539062 54.808594 C 142.542969 54.808594 146.644531 64.746094 142.214844 85.664062 C 139.5 96.984375 134.539062 103.378906 134.539062 103.378906 C 134.539062 103.378906 146.828125 91.058594 150.117188 81.03125 C 153.402344 71 164.265625 72.863281 160.691406 86.042969 C 158.355469 94.65625 149.371094 102.414062 142.585938 106.753906 C 158.496094 110.539062 178.222656 121.300781 180.070312 150.082031 C 180.808594 161.597656 178.46875 170.261719 174.265625 176.769531 C 181.238281 180.566406 192.214844 190.097656 195.363281 204.695312 C 197.160156 213.027344 197.371094 220.585938 196.347656 226.59375 Z M 196.347656 226.59375 C 196.347656 226.597656 196.351562 226.601562 196.351562 226.609375 C 194.625 238.851562 190.171875 245.398438 188.429688 245.527344 C 187 245.636719 187.359375 240.503906 187.359375 240.503906 C 187.359375 240.503906 183.820312 248.214844 182.214844 247.679688 C 180.605469 247.140625 181.125 239.246094 181.125 239.246094 C 181.125 239.246094 178.882812 243.792969 176.855469 243.164062 C 175.460938 242.734375 177.800781 223.574219 177.800781 223.574219 C 178.253906 216.199219 179.386719 207.882812 177.925781 201.828125 C 175.539062 191.914062 168.355469 186.21875 166.695312 185.011719 C 155.257812 193.960938 138.863281 195.777344 126.90625 195.777344 C 115.390625 195.777344 99.753906 194.09375 88.394531 185.972656 C 84.109375 190.335938 65.195312 200.234375 49.753906 192.230469 C 40.46875 187.417969 34.980469 179.265625 32.761719 171.65625 C 32.761719 171.652344 32.761719 171.652344 32.761719 171.652344 C 31.34375 167.742188 27.976562 152.253906 29.476562 152.203125 C 30.773438 152.15625 33.425781 154.792969 34.125 155.511719 C 34.167969 155.460938 34.214844 155.410156 34.257812 155.359375 C 34.078125 153.875 33.46875 147.929688 35.15625 147.742188 C 37.085938 147.527344 40.089844 153.242188 40.089844 153.242188 C 40.089844 153.242188 41.265625 148.386719 42.660156 148.386719 C 44.050781 148.386719 49.125 161.972656 49.148438 162.039062 C 52.5 167.703125 55.714844 174.605469 60.613281 177.902344 C 68.28125 183.066406 77.347656 179.871094 80.660156 178.390625 C 75.761719 171.722656 72.941406 162.578125 73.742188 150.082031 C 75.597656 121.199219 95.460938 110.460938 111.394531 106.714844 C 109.441406 104.832031 106.789062 102.605469 103.527344 100.660156 C 96.09375 96.21875 91.808594 93.066406 93.667969 89.914062 C 95.523438 86.761719 107.527344 87.90625 118.105469 103.378906 C 114.816406 91.632812 111.246094 85.902344 108.242188 81.460938 C 105.242188 77.019531 109.101562 70.855469 117.246094 76.585938 C 125.003906 82.046875 126.667969 99.503906 125.699219 104.871094 C 125.773438 104.867188 125.84375 104.867188 125.917969 104.867188 C 129.917969 97.214844 131.378906 91.429688 130.824219 76.585938 C 130.25 61.28125 134.683594 54.808594 138.539062 54.808594 C 142.542969 54.808594 146.644531 64.746094 142.214844 85.664062 C 139.5 96.984375 134.539062 103.378906 134.539062 103.378906 C 134.539062 103.378906 146.828125 91.058594 150.117188 81.03125 C 153.402344 71 164.265625 72.863281 160.691406 86.042969 C 158.355469 94.65625 149.371094 102.414062 142.585938 106.753906 C 158.496094 110.539062 178.222656 121.300781 180.070312 150.082031 C 180.808594 161.597656 178.46875 170.261719 174.265625 176.769531 C 181.238281 180.566406 192.214844 190.097656 195.363281 204.695312 C 197.160156 213.027344 197.371094 220.585938 196.347656 226.59375 Z M 77.289062 121.003906 C 71.972656 121.003906 67.039062 123.089844 63.398438 126.882812 C 60.34375 130.058594 56.78125 135.886719 57.140625 145.613281 C 57.449219 153.945312 61.21875 158.496094 64.324219 160.851562 C 67.746094 163.445312 72.34375 164.875 77.265625 164.875 C 77.953125 164.875 78.644531 164.847656 79.324219 164.789062 C 84.671875 164.347656 88.757812 162.71875 91.8125 159.8125 C 95.714844 156.101562 97.695312 150.414062 97.695312 142.902344 C 97.695312 128.78125 90.449219 121.003906 77.289062 121.003906 Z M 197.101562 140.265625 C 196.792969 131.933594 193.023438 127.382812 189.917969 125.027344 C 186.492188 122.433594 181.898438 121.003906 176.976562 121.003906 C 176.289062 121.003906 175.59375 121.03125 174.917969 121.089844 C 169.570312 121.53125 165.484375 123.160156 162.425781 126.066406 C 158.527344 129.777344 156.546875 135.464844 156.546875 142.976562 C 156.546875 157.097656 163.792969 164.875 176.949219 164.875 C 182.269531 164.875 187.203125 162.789062 190.84375 158.996094 C 193.898438 155.820312 197.460938 149.992188 197.101562 140.265625 Z M 197.101562 140.265625 " fill-opacity="1" fill-rule="nonzero"/></g><path fill="#0e0f1a" d="M 91.976562 142.910156 C 91.976562 154.804688 86.40625 157.621094 81.054688 158.128906 C 75.777344 158.632812 68.167969 156.113281 67.808594 145.027344 C 67.453125 133.9375 73.179688 127.691406 79.804688 127.691406 C 85.710938 127.691406 91.976562 130.511719 91.976562 142.910156 Z M 174.894531 158.191406 C 181.519531 158.191406 187.246094 151.941406 186.886719 140.851562 C 186.53125 129.765625 178.921875 127.246094 173.640625 127.75 C 168.292969 128.261719 162.722656 131.074219 162.722656 142.96875 C 162.722656 155.367188 168.988281 158.191406 174.894531 158.191406 Z M 112.003906 151.292969 C 105.722656 153.78125 113.386719 169.125 126.429688 169.125 C 143.339844 169.125 148.867188 152.523438 140.828125 150.859375 C 132.785156 149.191406 119.570312 148.292969 112.003906 151.292969 Z M 112.003906 151.292969 " fill-opacity="1" fill-rule="nonzero"/><path fill="#ffffff" d="M 77.289062 124.300781 C 67.976562 124.300781 59.921875 131.9375 60.425781 145.492188 C 60.929688 159.042969 71.625 162.121094 79.054688 161.507812 C 86.578125 160.882812 94.40625 157.441406 94.40625 142.902344 C 94.40625 127.75 85.597656 124.300781 77.289062 124.300781 Z M 80.832031 156.355469 C 76.167969 156.800781 69.449219 154.574219 69.132812 144.78125 C 68.820312 134.988281 73.878906 129.46875 79.726562 129.46875 C 84.945312 129.46875 90.476562 131.960938 90.476562 142.914062 C 90.476562 153.417969 85.558594 155.90625 80.832031 156.355469 Z M 193.816406 140.390625 C 193.3125 126.835938 182.613281 123.757812 175.1875 124.375 C 167.664062 124.996094 159.832031 128.4375 159.832031 142.976562 C 159.832031 158.128906 168.644531 161.578125 176.949219 161.578125 C 186.265625 161.578125 194.320312 153.941406 193.816406 140.390625 Z M 174.800781 156.410156 C 169.582031 156.410156 164.050781 153.917969 164.050781 142.964844 C 164.050781 132.460938 168.96875 129.972656 173.691406 129.523438 C 178.355469 129.078125 185.078125 131.304688 185.390625 141.097656 C 185.707031 150.890625 180.648438 156.410156 174.800781 156.410156 Z M 135.367188 149.953125 C 135.367188 149.953125 136.554688 156.160156 138.375 156.515625 C 140.199219 156.875 142.15625 151.277344 142.15625 151.277344 C 142.15625 151.277344 139.804688 150.125 135.367188 149.953125 Z M 135.367188 149.953125 " fill-opacity="1" fill-rule="nonzero"/><g clip-path="url(#id5)"><path fill="#1d949a" d="M 193.917969 236.917969 C 191.957031 242.496094 189.589844 245.441406 188.429688 245.527344 C 187 245.636719 187.359375 240.503906 187.359375 240.503906 C 187.359375 240.503906 183.820312 248.214844 182.214844 247.679688 C 180.605469 247.140625 181.125 239.246094 181.125 239.246094 C 181.125 239.246094 178.882812 243.792969 176.855469 243.164062 C 176.046875 242.917969 176.492188 236.390625 177.007812 230.9375 Z M 42.660156 148.386719 C 41.265625 148.386719 40.089844 153.242188 40.089844 153.242188 C 40.089844 153.242188 37.085938 147.527344 35.15625 147.742188 C 33.46875 147.929688 34.078125 153.875 34.257812 155.359375 C 34.214844 155.410156 34.167969 155.460938 34.125 155.511719 C 33.425781 154.792969 30.773438 152.15625 29.476562 152.203125 C 28.558594 152.234375 29.46875 158.066406 30.636719 163.476562 L 46.980469 156.535156 C 45.414062 152.742188 43.449219 148.386719 42.660156 148.386719 Z M 42.660156 148.386719 " fill-opacity="1" fill-rule="nonzero"/></g><g clip-path="url(#id6)"><path fill="#175c71" d="M 168 120.433594 C 167.605469 121.132812 167.140625 121.78125 166.632812 122.386719 C 163.746094 125.820312 156.492188 128.640625 149.738281 122.167969 C 144.402344 117.054688 143.875 111.617188 145.855469 107.621094 C 153.457031 109.847656 161.570312 113.746094 168 120.433594 Z M 143.507812 129.035156 C 145.378906 127.394531 147.753906 127.3125 150.003906 129.882812 C 152.140625 132.3125 151.378906 134.402344 149.875 135.664062 C 148.1875 137.082031 145.953125 137.46875 143.425781 135.003906 C 141.316406 132.945312 142.21875 130.164062 143.507812 129.035156 Z M 85.230469 169.019531 C 84.886719 167.574219 85.503906 166.296875 87.476562 165.816406 C 89.347656 165.363281 90.234375 166.34375 90.484375 167.488281 C 90.761719 168.773438 90.34375 170.058594 88.347656 170.714844 C 86.683594 171.257812 85.46875 170.011719 85.230469 169.019531 Z M 126.90625 195.777344 C 127.460938 195.777344 128.027344 195.769531 128.597656 195.761719 C 129.214844 190.277344 125.058594 184.457031 116.019531 182.027344 C 106.027344 179.34375 101.714844 185.484375 100.734375 190.359375 C 100.628906 190.898438 100.542969 191.445312 100.492188 191.996094 C 109.449219 195.007812 119.121094 195.777344 126.90625 195.777344 Z M 195.363281 204.695312 C 195 203.015625 194.527344 201.410156 193.976562 199.867188 C 188.0625 202.429688 185.96875 209.179688 187.140625 214.089844 C 187.933594 217.425781 191.664062 221.523438 196.917969 220.878906 C 197.105469 216.046875 196.628906 210.566406 195.363281 204.695312 Z M 60.613281 177.902344 C 57.496094 175.804688 55.0625 172.246094 52.835938 168.476562 C 52.027344 168.6875 51.289062 169.160156 50.59375 169.914062 C 48.550781 172.125 47.226562 176.953125 50.9375 180.230469 C 54.851562 183.695312 59.933594 182.585938 62.460938 179.730469 C 62.613281 179.554688 62.742188 179.363281 62.859375 179.160156 C 62.101562 178.808594 61.351562 178.398438 60.613281 177.902344 Z M 60.613281 177.902344 " fill-opacity="0.2" fill-rule="nonzero"/></g><g clip-path="url(#id7)"><path fill="#175c71" d="M 161.324219 205.425781 C 155.488281 205.945312 149.59375 206.851562 144.007812 208.632812 C 143.949219 207.863281 143.890625 207.121094 143.820312 206.417969 C 149.324219 204.71875 155.085938 203.808594 160.820312 203.277344 C 160.992188 203.972656 161.160156 204.691406 161.324219 205.425781 Z M 163.320312 217.652344 C 156.941406 217.90625 150.566406 218.773438 144.355469 220.113281 C 144.347656 220.84375 144.335938 221.585938 144.320312 222.347656 C 150.589844 220.9375 157.019531 220.136719 163.417969 219.859375 C 163.453125 219.855469 163.488281 219.855469 163.523438 219.855469 C 163.464844 219.113281 163.394531 218.378906 163.320312 217.652344 Z M 143.378906 235.632812 C 143.28125 236.382812 143.175781 237.117188 143.066406 237.828125 C 149.789062 237.847656 156.511719 238.0625 163.222656 238.480469 C 163.308594 237.753906 163.390625 237.023438 163.460938 236.300781 C 156.777344 235.878906 150.078125 235.65625 143.378906 235.632812 Z M 140.0625 250.210938 C 139.792969 250.992188 139.523438 251.726562 139.25 252.425781 C 145.164062 252.320312 151.082031 252.496094 156.976562 252.980469 C 157.980469 253.0625 158.976562 253.164062 159.976562 253.261719 C 160.207031 252.550781 160.429688 251.839844 160.636719 251.132812 C 153.804688 250.429688 146.933594 250.121094 140.0625 250.210938 Z M 109.878906 208.105469 C 104.476562 205.878906 98.714844 204.589844 92.898438 203.808594 C 92.734375 204.5 92.570312 205.214844 92.410156 205.945312 C 98.355469 206.722656 104.253906 208.039062 109.71875 210.410156 C 109.769531 209.613281 109.820312 208.84375 109.878906 208.105469 Z M 109.566406 223.585938 C 109.539062 222.808594 109.523438 222.046875 109.507812 221.296875 C 103.3125 219.597656 96.90625 218.53125 90.492188 217.988281 C 90.417969 218.699219 90.355469 219.421875 90.296875 220.152344 C 95.0625 220.566406 99.800781 221.296875 104.445312 222.3125 C 106.164062 222.691406 107.871094 223.113281 109.566406 223.585938 Z M 110.785156 237.851562 C 110.675781 237.136719 110.570312 236.40625 110.46875 235.652344 C 103.765625 235.578125 97.058594 235.703125 90.363281 236.03125 C 90.429688 236.753906 90.507812 237.484375 90.59375 238.214844 C 97.320312 237.890625 104.050781 237.769531 110.785156 237.851562 Z M 113.183594 252.511719 C 113.675781 252.53125 114.167969 252.5625 114.660156 252.585938 C 114.382812 251.882812 114.105469 251.136719 113.832031 250.347656 C 106.917969 250.0625 99.988281 250.183594 93.085938 250.707031 C 93.292969 251.421875 93.507812 252.140625 93.738281 252.859375 C 100.207031 252.390625 106.699219 252.269531 113.183594 252.511719 Z M 130.738281 172.300781 C 128.472656 172.992188 126.144531 172.9375 123.882812 172.148438 C 123.324219 171.953125 122.6875 172.382812 122.542969 172.925781 C 122.378906 173.535156 122.757812 174.078125 123.320312 174.273438 C 125.886719 175.167969 128.738281 175.207031 131.339844 174.414062 C 131.902344 174.242188 132.257812 173.636719 132.09375 173.054688 C 131.933594 172.492188 131.308594 172.125 130.738281 172.300781 Z M 130.738281 172.300781 " fill-opacity="1" fill-rule="nonzero"/></g><g fill="#ffffff" fill-opacity="1"><g transform="translate(202.145953, 135.795294)"><g><path d="M 31.121094 -57.964844 L 31.121094 -36.570312 C 29.410156 -38.4375 25.054688 -40.148438 21.550781 -40.148438 C 11.046875 -40.148438 2.257812 -30.964844 2.257812 -19.605469 C 2.257812 -8.402344 10.816406 0.855469 21.550781 0.855469 C 25.132812 0.855469 29.410156 -0.542969 31.121094 -2.800781 L 31.121094 0 L 42.171875 0 L 42.171875 -57.964844 Z M 22.640625 -10.113281 C 17.585938 -10.113281 13.460938 -14.003906 13.460938 -19.605469 C 13.460938 -25.132812 17.585938 -29.097656 22.640625 -29.097656 C 27.777344 -29.097656 31.589844 -25.132812 31.589844 -19.605469 C 31.589844 -14.003906 27.777344 -10.113281 22.640625 -10.113281 Z M 22.640625 -10.113281 "/></g></g></g><g fill="#ffffff" fill-opacity="1"><g transform="translate(248.206153, 135.795294)"><g><path d="M 9.335938 -46.214844 C 13.070312 -46.214844 15.949219 -49.09375 15.949219 -52.519531 C 15.949219 -55.707031 13.070312 -58.585938 9.335938 -58.585938 C 5.914062 -58.585938 2.957031 -55.632812 2.957031 -52.519531 C 2.957031 -49.09375 5.914062 -46.214844 9.335938 -46.214844 Z M 14.9375 -39.292969 L 3.890625 -39.292969 L 3.890625 0 L 14.9375 0 Z M 14.9375 -39.292969 "/></g></g></g><g fill="#ffffff" fill-opacity="1"><g transform="translate(267.03482, 135.795294)"><g><path d="M 31.121094 -39.292969 L 31.121094 -36.570312 C 29.410156 -38.4375 25.054688 -40.148438 21.550781 -40.148438 C 11.046875 -40.148438 2.257812 -30.964844 2.257812 -19.605469 C 2.257812 -8.402344 10.816406 0.855469 21.550781 0.855469 C 25.132812 0.855469 29.410156 -0.542969 31.121094 -2.800781 L 31.121094 0 L 42.171875 0 L 42.171875 -39.292969 Z M 22.640625 -10.113281 C 17.585938 -10.113281 13.460938 -14.003906 13.460938 -19.605469 C 13.460938 -25.132812 17.585938 -29.097656 22.640625 -29.097656 C 27.777344 -29.097656 31.589844 -25.132812 31.589844 -19.605469 C 31.589844 -14.003906 27.777344 -10.113281 22.640625 -10.113281 Z M 22.640625 -10.113281 "/></g></g></g><g fill="#ffffff" fill-opacity="1"><g transform="translate(313.095019, 135.795294)"><g><path d="M 22.097656 8.636719 C 18.828125 8.636719 15.949219 6.925781 14.316406 4.203125 L 5.367188 10.660156 C 9.027344 16.027344 15.09375 19.605469 22.097656 19.605469 C 33.222656 19.605469 42.171875 10.582031 42.171875 -0.390625 L 42.171875 -39.292969 L 31.121094 -39.292969 L 31.121094 -36.570312 C 29.410156 -38.4375 25.054688 -40.148438 21.550781 -40.148438 C 11.046875 -40.148438 2.257812 -30.964844 2.257812 -19.605469 C 2.257812 -8.402344 10.816406 0.855469 21.550781 0.855469 C 25.132812 0.855469 29.410156 -0.542969 31.121094 -2.800781 L 31.121094 0.3125 C 31.121094 4.980469 27.152344 8.636719 22.097656 8.636719 Z M 22.640625 -10.113281 C 17.585938 -10.113281 13.460938 -14.003906 13.460938 -19.605469 C 13.460938 -25.132812 17.585938 -29.097656 22.640625 -29.097656 C 27.777344 -29.097656 31.589844 -25.132812 31.589844 -19.605469 C 31.589844 -14.003906 27.777344 -10.113281 22.640625 -10.113281 Z M 22.640625 -10.113281 "/></g></g></g><g fill="#ffffff" fill-opacity="1"><g transform="translate(359.155219, 135.795294)"><g><path d="M 43.492188 -19.605469 C 43.492188 -30.964844 36.023438 -40.148438 25.285156 -40.148438 C 21.707031 -40.148438 17.117188 -39.058594 14.9375 -36.570312 L 14.9375 -39.292969 L 3.890625 -39.292969 L 3.890625 0 L 14.9375 0 L 14.9375 -19.605469 C 14.9375 -25.910156 19.453125 -29.097656 24.351562 -29.097656 C 28.867188 -29.097656 32.523438 -25.910156 32.523438 -19.605469 L 32.523438 0 L 43.492188 0 Z M 43.492188 -19.605469 "/></g></g></g><g fill="#ffffff" fill-opacity="1"><g transform="translate(405.993467, 135.795294)"><g><path d="M 22.640625 -40.148438 C 11.359375 -40.148438 2.257812 -30.964844 2.257812 -19.605469 C 2.257812 -8.402344 11.359375 0.855469 22.640625 0.855469 C 33.921875 0.855469 43.335938 -8.402344 43.335938 -19.605469 C 43.335938 -30.964844 33.921875 -40.148438 22.640625 -40.148438 Z M 22.640625 -10.113281 C 17.585938 -10.113281 13.460938 -14.003906 13.460938 -19.605469 C 13.460938 -25.132812 17.585938 -29.097656 22.640625 -29.097656 C 28.011719 -29.097656 32.054688 -25.132812 32.054688 -19.605469 C 32.054688 -14.003906 28.011719 -10.113281 22.640625 -10.113281 Z M 22.640625 -10.113281 "/></g></g></g><g fill="#ffffff" fill-opacity="1"><g transform="translate(451.586852, 135.795294)"><g><path d="M 14.003906 -15.792969 C 16.496094 -15.40625 17.507812 -14.316406 17.507812 -12.761719 C 17.507812 -11.28125 16.574219 -10.113281 14.550781 -10.113281 C 12.839844 -10.113281 11.4375 -10.582031 10.269531 -11.828125 L 0.933594 -5.058594 C 4.355469 -1.167969 8.636719 0.855469 14.472656 0.855469 C 22.953125 0.855469 29.566406 -4.589844 29.566406 -12.605469 C 29.566406 -20.695312 24.042969 -24.429688 16.804688 -25.363281 C 13.539062 -25.753906 12.605469 -26.53125 12.605469 -27.855469 C 12.605469 -29.019531 13.460938 -29.878906 14.9375 -29.878906 C 16.417969 -29.878906 17.507812 -29.175781 18.519531 -28.242188 L 26.453125 -34 C 23.652344 -38.046875 19.761719 -40.148438 14.707031 -40.148438 C 8.871094 -40.148438 1.789062 -35.089844 1.789062 -28.242188 C 1.789062 -21.550781 6.847656 -16.804688 14.003906 -15.792969 Z M 14.003906 -15.792969 "/></g></g></g><g fill="#ffffff" fill-opacity="1"><g transform="translate(482.864212, 135.795294)"><g><path d="M 32.054688 -14.082031 C 30.265625 -11.28125 26.921875 -10.113281 23.574219 -10.113281 C 22.40625 -10.113281 21.320312 -10.191406 20.308594 -10.582031 L 42.25 -26.296875 C 39.835938 -33.613281 32.367188 -40.148438 22.640625 -40.148438 C 11.359375 -40.148438 2.257812 -30.964844 2.257812 -19.605469 C 2.257812 -8.402344 11.75 0.855469 23.574219 0.855469 C 30.578125 0.855469 37.503906 -2.335938 40.847656 -7.3125 Z M 13.460938 -19.605469 C 13.460938 -25.132812 17.585938 -29.097656 22.640625 -29.097656 C 24.742188 -29.097656 26.53125 -28.398438 28.085938 -27.230469 L 13.773438 -17.039062 C 13.539062 -17.816406 13.460938 -18.671875 13.460938 -19.605469 Z M 13.460938 -19.605469 "/></g></g></g><g fill="#ffffff" fill-opacity="1"><g transform="translate(527.368337, 135.795294)"><g><path d="M 17.585938 -57.964844 L 5.523438 -57.964844 L 5.523438 0 L 17.585938 0 Z M 17.585938 -57.964844 "/></g></g></g><g fill="#ffffff" fill-opacity="1"><g transform="translate(550.476252, 135.795294)"><g><path d="M 26.921875 -29.097656 L 26.921875 -39.292969 L 17.585938 -39.292969 L 17.585938 -52.441406 L 6.535156 -44.425781 L 6.535156 -39.292969 L 0.621094 -39.292969 L 0.621094 -29.097656 L 6.535156 -29.097656 L 6.535156 -16.261719 C 6.535156 -6.070312 14.9375 0.855469 26.6875 0.855469 L 26.6875 -10.113281 C 21.628906 -10.113281 17.585938 -12.136719 17.585938 -16.574219 L 17.585938 -29.097656 Z M 26.921875 -29.097656 "/></g></g></g><g fill="#ffde59" fill-opacity="1"><g transform="translate(202.145953, 178.048536)"><g><path d="M 1.324219 -13.914062 L 1.324219 0 L 6.984375 0 C 10.980469 0 14.25 -2.96875 14.25 -6.964844 C 14.25 -10.925781 10.980469 -13.914062 6.964844 -13.914062 Z M 4.21875 -2.613281 L 4.21875 -11.296875 L 6.964844 -11.296875 C 9.394531 -11.296875 11.28125 -9.488281 11.28125 -6.964844 C 11.28125 -4.464844 9.394531 -2.613281 6.984375 -2.613281 Z M 4.21875 -2.613281 "/></g></g></g><g fill="#ffde59" fill-opacity="1"><g transform="translate(224.60905, 178.048536)"><g><path d="M 4.21875 -13.914062 L 1.324219 -13.914062 L 1.324219 0 L 4.21875 0 Z M 4.21875 -13.914062 "/></g></g></g><g fill="#ffde59" fill-opacity="1"><g transform="translate(237.624761, 178.048536)"><g><path d="M 4.667969 -6.164062 C 6.011719 -6.011719 6.761719 -5.324219 6.761719 -4.203125 C 6.761719 -3.304688 6.011719 -2.539062 5.0625 -2.539062 C 4.238281 -2.539062 3.585938 -2.746094 2.949219 -3.546875 L 0.558594 -1.792969 C 1.886719 -0.335938 3.472656 0.242188 5.0625 0.242188 C 7.507812 0.242188 9.765625 -1.699219 9.765625 -4.40625 C 9.765625 -7.097656 7.804688 -8.703125 5.433594 -8.851562 C 3.960938 -8.945312 3.492188 -9.523438 3.492188 -10.160156 C 3.492188 -10.925781 4.015625 -11.390625 4.78125 -11.390625 C 5.265625 -11.390625 5.882812 -11.09375 6.257812 -10.699219 L 8.535156 -12.363281 C 7.46875 -13.632812 6.164062 -14.15625 4.78125 -14.15625 C 2.855469 -14.15625 0.691406 -12.492188 0.691406 -10.140625 C 0.691406 -7.957031 2.257812 -6.441406 4.667969 -6.164062 Z M 4.667969 -6.164062 "/></g></g></g><g fill="#ffde59" fill-opacity="1"><g transform="translate(255.476191, 178.048536)"><g><path d="M 9.953125 0 L 9.953125 -2.613281 L 4.21875 -2.613281 L 4.21875 -6.105469 L 9.449219 -6.105469 L 9.449219 -8.703125 L 4.21875 -8.703125 L 4.21875 -11.296875 L 8.722656 -11.296875 L 8.722656 -13.914062 L 1.324219 -13.914062 L 1.324219 0 Z M 9.953125 0 "/></g></g></g><g fill="#ffde59" fill-opacity="1"><g transform="translate(273.645016, 178.048536)"><g><path d="M 11.429688 0 L 14.585938 0 L 7.226562 -14.15625 L -0.113281 0 L 2.875 0 L 3.773438 -1.867188 L 10.515625 -1.867188 Z M 7.113281 -8.8125 L 9.242188 -4.480469 L 5.023438 -4.480469 Z M 7.113281 -8.8125 "/></g></g></g><g fill="#ffde59" fill-opacity="1"><g transform="translate(295.585324, 178.048536)"><g><path d="M 4.667969 -6.164062 C 6.011719 -6.011719 6.761719 -5.324219 6.761719 -4.203125 C 6.761719 -3.304688 6.011719 -2.539062 5.0625 -2.539062 C 4.238281 -2.539062 3.585938 -2.746094 2.949219 -3.546875 L 0.558594 -1.792969 C 1.886719 -0.335938 3.472656 0.242188 5.0625 0.242188 C 7.507812 0.242188 9.765625 -1.699219 9.765625 -4.40625 C 9.765625 -7.097656 7.804688 -8.703125 5.433594 -8.851562 C 3.960938 -8.945312 3.492188 -9.523438 3.492188 -10.160156 C 3.492188 -10.925781 4.015625 -11.390625 4.78125 -11.390625 C 5.265625 -11.390625 5.882812 -11.09375 6.257812 -10.699219 L 8.535156 -12.363281 C 7.46875 -13.632812 6.164062 -14.15625 4.78125 -14.15625 C 2.855469 -14.15625 0.691406 -12.492188 0.691406 -10.140625 C 0.691406 -7.957031 2.257812 -6.441406 4.667969 -6.164062 Z M 4.667969 -6.164062 "/></g></g></g><g fill="#ffde59" fill-opacity="1"><g transform="translate(313.436758, 178.048536)"><g><path d="M 9.953125 0 L 9.953125 -2.613281 L 4.21875 -2.613281 L 4.21875 -6.105469 L 9.449219 -6.105469 L 9.449219 -8.703125 L 4.21875 -8.703125 L 4.21875 -11.296875 L 8.722656 -11.296875 L 8.722656 -13.914062 L 1.324219 -13.914062 L 1.324219 0 Z M 9.953125 0 "/></g></g></g><g fill="#ffde59" fill-opacity="1"><g transform="translate(331.605583, 178.048536)"><g/></g></g><g fill="#ffde59" fill-opacity="1"><g transform="translate(346.936468, 178.048536)"><g><path d="M 4.21875 0 L 4.21875 -2.109375 L 5.882812 -2.109375 C 9.375 -2.109375 11.894531 -4.742188 11.894531 -8.308594 C 11.894531 -11.128906 9.488281 -13.914062 6.070312 -13.914062 L 1.324219 -13.914062 L 1.324219 0 Z M 4.21875 -4.742188 L 4.21875 -11.296875 L 5.976562 -11.296875 C 7.863281 -11.296875 8.925781 -9.636719 8.925781 -8.011719 C 8.925781 -6.21875 7.824219 -4.742188 5.808594 -4.742188 Z M 4.21875 -4.742188 "/></g></g></g><g fill="#ffde59" fill-opacity="1"><g transform="translate(366.860337, 178.048536)"><g><path d="M 5.675781 -2.410156 L 7.957031 0 L 11.800781 0 L 8.796875 -3.210938 C 10.738281 -4.109375 11.933594 -5.9375 11.933594 -8.441406 C 11.933594 -11.464844 9.429688 -13.914062 6.164062 -13.914062 L 1.324219 -13.914062 L 1.324219 0 L 4.21875 0 L 4.21875 -2.410156 Z M 4.21875 -5.023438 L 4.21875 -11.296875 L 5.976562 -11.296875 C 7.957031 -11.296875 8.964844 -9.917969 8.964844 -8.21875 C 8.964844 -6.144531 7.710938 -5.023438 5.414062 -5.023438 Z M 4.21875 -5.023438 "/></g></g></g><g fill="#ffde59" fill-opacity="1"><g transform="translate(386.933582, 178.048536)"><g><path d="M 9.953125 0 L 9.953125 -2.613281 L 4.21875 -2.613281 L 4.21875 -6.105469 L 9.449219 -6.105469 L 9.449219 -8.703125 L 4.21875 -8.703125 L 4.21875 -11.296875 L 8.722656 -11.296875 L 8.722656 -13.914062 L 1.324219 -13.914062 L 1.324219 0 Z M 9.953125 0 "/></g></g></g><g fill="#ffde59" fill-opacity="1"><g transform="translate(405.102407, 178.048536)"><g><path d="M 1.324219 -13.914062 L 1.324219 0 L 6.984375 0 C 10.980469 0 14.25 -2.96875 14.25 -6.964844 C 14.25 -10.925781 10.980469 -13.914062 6.964844 -13.914062 Z M 4.21875 -2.613281 L 4.21875 -11.296875 L 6.964844 -11.296875 C 9.394531 -11.296875 11.28125 -9.488281 11.28125 -6.964844 C 11.28125 -4.464844 9.394531 -2.613281 6.984375 -2.613281 Z M 4.21875 -2.613281 "/></g></g></g><g fill="#ffde59" fill-opacity="1"><g transform="translate(427.565515, 178.048536)"><g><path d="M 4.21875 -13.914062 L 1.324219 -13.914062 L 1.324219 0 L 4.21875 0 Z M 4.21875 -13.914062 "/></g></g></g><g fill="#ffde59" fill-opacity="1"><g transform="translate(440.581236, 178.048536)"><g><path d="M 12.136719 -6.144531 C 11.746094 -4.050781 9.992188 -2.539062 7.898438 -2.539062 C 5.566406 -2.539062 3.714844 -4.5 3.714844 -6.945312 C 3.714844 -9.410156 5.566406 -11.390625 7.898438 -11.390625 C 9.335938 -11.390625 10.757812 -10.664062 11.765625 -9.167969 L 14.023438 -10.773438 C 12.773438 -12.8125 10.476562 -14.15625 7.878906 -14.15625 C 3.921875 -14.15625 0.746094 -10.925781 0.746094 -6.945312 C 0.746094 -2.96875 3.921875 0.242188 7.898438 0.242188 C 11.597656 0.242188 14.660156 -2.578125 15.070312 -6.144531 Z M 12.136719 -6.144531 "/></g></g></g><g fill="#ffde59" fill-opacity="1"><g transform="translate(463.865845, 178.048536)"><g><path d="M 6.683594 0 L 6.683594 -11.296875 L 10.347656 -11.296875 L 10.347656 -13.914062 L 0.355469 -13.914062 L 0.355469 -11.296875 L 3.789062 -11.296875 L 3.789062 0 Z M 6.683594 0 "/></g></g></g><g fill="#ffde59" fill-opacity="1"><g transform="translate(482.034682, 178.048536)"><g><path d="M 4.21875 -13.914062 L 1.324219 -13.914062 L 1.324219 0 L 4.21875 0 Z M 4.21875 -13.914062 "/></g></g></g><g fill="#ffde59" fill-opacity="1"><g transform="translate(495.050403, 178.048536)"><g><path d="M 7.957031 0.242188 C 11.933594 0.242188 15.144531 -2.988281 15.144531 -6.964844 C 15.144531 -10.945312 11.933594 -14.15625 7.9375 -14.15625 C 3.960938 -14.15625 0.746094 -10.945312 0.746094 -6.964844 C 0.746094 -2.988281 3.960938 0.242188 7.957031 0.242188 Z M 7.9375 -11.390625 C 10.289062 -11.390625 12.175781 -9.410156 12.175781 -6.964844 C 12.175781 -4.480469 10.308594 -2.539062 7.957031 -2.539062 C 5.566406 -2.539062 3.714844 -4.480469 3.714844 -6.964844 C 3.714844 -9.410156 5.566406 -11.390625 7.9375 -11.390625 Z M 7.9375 -11.390625 "/></g></g></g><g fill="#ffde59" fill-opacity="1"><g transform="translate(518.409699, 178.048536)"><g><path d="M 11.222656 -5.863281 L 1.324219 -14.175781 L 1.324219 0 L 4.21875 0 L 4.21875 -7.992188 L 14.117188 0.242188 L 14.117188 -13.914062 L 11.222656 -13.914062 Z M 11.222656 -5.863281 "/></g></g></g></svg>