<svg xmlns="http://www.w3.org/2000/svg" xmlns:xlink="http://www.w3.org/1999/xlink" width="1640" zoomAndPan="magnify" viewBox="0 0 1230 374.999991" height="500" preserveAspectRatio="xMidYMid meet" version="1.0"><defs><g/><clipPath id="id1"><path d="M 508.367188 37.5 L 721.367188 37.5 L 721.367188 250.5 L 508.367188 250.5 Z M 508.367188 37.5 " clip-rule="nonzero"/></clipPath><clipPath id="id2"><path d="M 192.128906 277.101562 L 1038.128906 277.101562 L 1038.128906 352.851562 L 192.128906 352.851562 Z M 192.128906 277.101562 " clip-rule="nonzero"/></clipPath><clipPath id="id3"><path d="M 767 78 L 800 78 L 800 110 L 767 110 Z M 767 78 " clip-rule="nonzero"/></clipPath><clipPath id="id4"><path d="M 765.214844 106.371094 L 770.882812 75.386719 L 801.867188 81.050781 L 796.203125 112.039062 Z M 765.214844 106.371094 " clip-rule="nonzero"/></clipPath><clipPath id="id5"><path d="M 765.214844 106.371094 L 770.882812 75.386719 L 801.867188 81.050781 L 796.203125 112.039062 Z M 765.214844 106.371094 " clip-rule="nonzero"/></clipPath><clipPath id="id6"><path d="M 777 87 L 788 87 L 788 98 L 777 98 Z M 777 87 " clip-rule="nonzero"/></clipPath><clipPath id="id7"><path d="M 765.214844 106.371094 L 770.882812 75.386719 L 801.867188 81.050781 L 796.203125 112.039062 Z M 765.214844 106.371094 " clip-rule="nonzero"/></clipPath><clipPath id="id8"><path d="M 765.214844 106.371094 L 770.882812 75.386719 L 801.867188 81.050781 L 796.203125 112.039062 Z M 765.214844 106.371094 " clip-rule="nonzero"/></clipPath><clipPath id="id9"><path d="M 741 51 L 762 51 L 762 73 L 741 73 Z M 741 51 " clip-rule="nonzero"/></clipPath><clipPath id="id10"><path d="M 737.503906 63.339844 L 750.152344 47.523438 L 765.378906 59.703125 L 752.730469 75.519531 Z M 737.503906 63.339844 " clip-rule="nonzero"/></clipPath><clipPath id="id11"><path d="M 737.503906 63.339844 L 750.152344 47.523438 L 765.378906 59.703125 L 752.730469 75.519531 Z M 737.503906 63.339844 " clip-rule="nonzero"/></clipPath><clipPath id="id12"><path d="M 737.515625 63.324219 L 750.15625 47.515625 L 765.394531 59.703125 L 752.75 75.511719 Z M 737.515625 63.324219 " clip-rule="nonzero"/></clipPath><clipPath id="id13"><path d="M 737.515625 63.324219 L 750.140625 47.539062 L 765.371094 59.71875 L 752.742188 75.503906 Z M 737.515625 63.324219 " clip-rule="nonzero"/></clipPath><clipPath id="id14"><path d="M 751.359375 207.742188 L 764.859375 207.742188 L 764.859375 220.492188 L 751.359375 220.492188 Z M 751.359375 207.742188 " clip-rule="nonzero"/></clipPath><clipPath id="id15"><path d="M 450 182 L 482 182 L 482 214 L 450 214 Z M 450 182 " clip-rule="nonzero"/></clipPath><clipPath id="id16"><path d="M 447.542969 210.34375 L 453.210938 179.359375 L 484.195312 185.027344 L 478.53125 216.011719 Z M 447.542969 210.34375 " clip-rule="nonzero"/></clipPath><clipPath id="id17"><path d="M 447.542969 210.34375 L 453.210938 179.359375 L 484.195312 185.027344 L 478.53125 216.011719 Z M 447.542969 210.34375 " clip-rule="nonzero"/></clipPath><clipPath id="id18"><path d="M 459 191 L 470 191 L 470 202 L 459 202 Z M 459 191 " clip-rule="nonzero"/></clipPath><clipPath id="id19"><path d="M 447.542969 210.34375 L 453.210938 179.359375 L 484.195312 185.027344 L 478.53125 216.011719 Z M 447.542969 210.34375 " clip-rule="nonzero"/></clipPath><clipPath id="id20"><path d="M 447.542969 210.34375 L 453.210938 179.359375 L 484.195312 185.027344 L 478.53125 216.011719 Z M 447.542969 210.34375 " clip-rule="nonzero"/></clipPath><clipPath id="id21"><path d="M 431 72 L 452 72 L 452 95 L 431 95 Z M 431 72 " clip-rule="nonzero"/></clipPath><clipPath id="id22"><path d="M 428.3125 84.894531 L 440.960938 69.082031 L 456.1875 81.261719 L 443.539062 97.074219 Z M 428.3125 84.894531 " clip-rule="nonzero"/></clipPath><clipPath id="id23"><path d="M 428.3125 84.894531 L 440.960938 69.082031 L 456.1875 81.261719 L 443.539062 97.074219 Z M 428.3125 84.894531 " clip-rule="nonzero"/></clipPath><clipPath id="id24"><path d="M 428.324219 84.878906 L 440.964844 69.074219 L 456.203125 81.261719 L 443.558594 97.066406 Z M 428.324219 84.878906 " clip-rule="nonzero"/></clipPath><clipPath id="id25"><path d="M 428.324219 84.878906 L 440.949219 69.09375 L 456.179688 81.273438 L 443.550781 97.058594 Z M 428.324219 84.878906 " clip-rule="nonzero"/></clipPath><clipPath id="id26"><path d="M 465.105469 47.769531 L 478.605469 47.769531 L 478.605469 60.519531 L 465.105469 60.519531 Z M 465.105469 47.769531 " clip-rule="nonzero"/></clipPath></defs><rect x="-123" width="1476" fill="#ffffff" y="-37.499999" height="449.999989" fill-opacity="1"/><rect x="-123" width="1476" fill="#ffeded" y="-37.499999" height="449.999989" fill-opacity="1"/><rect x="-123" width="1476" fill="#ffffff" y="-37.499999" height="449.999989" fill-opacity="1"/><rect x="-123" width="1476" fill="#ffeded" y="-37.499999" height="449.999989" fill-opacity="1"/><g clip-path="url(#id1)"><path fill="#87cee9" d="M 721.367188 144 C 721.367188 202.816406 673.683594 250.5 614.867188 250.5 C 556.050781 250.5 508.367188 202.816406 508.367188 144 C 508.367188 85.183594 556.050781 37.5 614.867188 37.5 C 673.683594 37.5 721.367188 85.183594 721.367188 144 " fill-opacity="1" fill-rule="nonzero"/></g><path fill="#f4f4e6" d="M 692.433594 101.679688 C 677.140625 73.421875 647.402344 55.863281 614.867188 55.863281 L 614.867188 48.515625 C 650.113281 48.515625 682.304688 67.554688 698.890625 98.179688 L 692.433594 101.679688 " fill-opacity="1" fill-rule="nonzero"/><path fill="#f4f4e6" d="M 614.867188 239.484375 C 562.222656 239.484375 519.386719 196.648438 519.386719 144 L 526.730469 144 C 526.730469 192.601562 566.265625 232.136719 614.867188 232.136719 L 614.867188 239.484375 " fill-opacity="1" fill-rule="nonzero"/><path fill="#5e2c81" d="M 611.195312 125.207031 L 603.851562 125.207031 L 603.851562 107.707031 L 611.195312 107.707031 L 611.195312 125.207031 " fill-opacity="1" fill-rule="nonzero"/><path fill="#2d75bb" d="M 614.867188 103.601562 C 614.867188 107.664062 611.582031 110.949219 607.523438 110.949219 C 603.464844 110.949219 600.179688 107.664062 600.179688 103.601562 C 600.179688 99.542969 603.464844 96.257812 607.523438 96.257812 C 611.582031 96.257812 614.867188 99.542969 614.867188 103.601562 " fill-opacity="1" fill-rule="nonzero"/><path fill="#5e2c81" d="M 611.195312 195.414062 L 603.851562 195.414062 L 603.851562 177.050781 L 611.195312 177.050781 L 611.195312 195.414062 " fill-opacity="1" fill-rule="nonzero"/><path fill="#2d75bb" d="M 600.179688 199.085938 C 600.179688 195.027344 603.464844 191.742188 607.523438 191.742188 C 611.582031 191.742188 614.867188 195.027344 614.867188 199.085938 C 614.867188 203.144531 611.582031 206.429688 607.523438 206.429688 C 603.464844 206.429688 600.179688 203.144531 600.179688 199.085938 " fill-opacity="1" fill-rule="nonzero"/><path fill="#5e2c81" d="M 651.59375 155.015625 L 633.230469 155.015625 L 633.230469 147.671875 L 651.59375 147.671875 L 651.59375 155.015625 " fill-opacity="1" fill-rule="nonzero"/><path fill="#2d75bb" d="M 655.265625 158.691406 C 651.207031 158.691406 647.921875 155.40625 647.921875 151.34375 C 647.921875 147.285156 651.207031 144 655.265625 144 C 659.324219 144 662.609375 147.285156 662.609375 151.34375 C 662.609375 155.40625 659.324219 158.691406 655.265625 158.691406 " fill-opacity="1" fill-rule="nonzero"/><path fill="#5e2c81" d="M 581.832031 155.015625 L 563.441406 155.015625 L 563.441406 147.671875 L 581.832031 147.671875 L 581.832031 155.015625 " fill-opacity="1" fill-rule="nonzero"/><path fill="#2d75bb" d="M 559.78125 144 C 563.84375 144 567.125 147.285156 567.125 151.34375 C 567.125 155.40625 563.84375 158.691406 559.78125 158.691406 C 555.722656 158.691406 552.4375 155.40625 552.4375 151.34375 C 552.4375 147.285156 555.722656 144 559.78125 144 " fill-opacity="1" fill-rule="nonzero"/><path fill="#5e2c81" d="M 586.566406 135.578125 L 575.546875 124.5625 L 580.742188 119.367188 L 591.757812 130.386719 L 586.566406 135.578125 " fill-opacity="1" fill-rule="nonzero"/><path fill="#5e2c81" d="M 628.480469 135.578125 L 623.289062 130.386719 L 634.304688 119.367188 L 639.5 124.5625 L 628.480469 135.578125 " fill-opacity="1" fill-rule="nonzero"/><path fill="#5e2c81" d="M 580.742188 183.320312 L 575.546875 178.128906 L 586.566406 167.109375 L 591.757812 172.304688 L 580.742188 183.320312 " fill-opacity="1" fill-rule="nonzero"/><path fill="#5e2c81" d="M 637.980469 183.320312 L 626.960938 172.304688 L 632.15625 167.109375 L 643.171875 178.128906 L 637.980469 183.320312 " fill-opacity="1" fill-rule="nonzero"/><path fill="#f4f4e6" d="M 629.558594 239.484375 L 622.214844 239.484375 L 622.214844 232.136719 L 629.558594 232.136719 L 629.558594 239.484375 " fill-opacity="1" fill-rule="nonzero"/><path fill="#dd3e46" d="M 673.625 162.363281 C 680.800781 155.1875 689.121094 152.148438 691.988281 155.015625 L 703.007812 166.035156 C 705.875 168.902344 702.835938 177.222656 695.660156 184.398438 C 688.488281 191.570312 680.167969 194.609375 677.300781 191.742188 L 666.28125 180.722656 C 663.414062 177.855469 666.453125 169.535156 673.625 162.363281 " fill-opacity="1" fill-rule="nonzero"/><path fill="#f98c96" d="M 679.148438 182.300781 L 675.449219 175.960938 C 677.6875 174.65625 679.96875 172.863281 682.046875 170.78125 C 684.113281 168.703125 685.90625 166.421875 687.226562 164.183594 L 693.566406 167.886719 C 691.929688 170.667969 689.75 173.464844 687.242188 175.976562 C 684.714844 178.5 681.933594 180.679688 679.148438 182.300781 " fill-opacity="1" fill-rule="nonzero"/><path fill="#dd3e46" d="M 589.21875 66.863281 C 582.046875 59.691406 573.726562 56.652344 570.855469 59.519531 L 559.839844 70.539062 C 556.96875 73.40625 560.011719 81.726562 567.183594 88.898438 C 574.355469 96.070312 582.675781 99.113281 585.546875 96.246094 L 596.5625 85.226562 C 599.433594 82.359375 596.390625 74.039062 589.21875 66.863281 " fill-opacity="1" fill-rule="nonzero"/><path fill="#f98c96" d="M 583.695312 86.804688 C 580.925781 85.183594 578.128906 83.003906 575.605469 80.492188 C 573.09375 77.984375 570.914062 75.183594 569.277344 72.402344 L 575.621094 68.6875 C 576.9375 70.9375 578.71875 73.21875 580.796875 75.285156 C 582.878906 77.367188 585.160156 79.160156 587.398438 80.464844 L 583.695312 86.804688 " fill-opacity="1" fill-rule="nonzero"/><path fill="#f4f4e6" d="M 545.09375 125.636719 L 537.746094 125.636719 L 537.746094 118.292969 L 545.09375 118.292969 L 545.09375 125.636719 " fill-opacity="1" fill-rule="nonzero"/><path fill="#f4f4e6" d="M 644.246094 88.914062 L 636.902344 88.914062 L 636.902344 81.570312 L 644.246094 81.570312 L 644.246094 88.914062 " fill-opacity="1" fill-rule="nonzero"/><path fill="#f4f4e6" d="M 677.300781 129.308594 L 669.953125 129.308594 L 669.953125 121.964844 L 677.300781 121.964844 L 677.300781 129.308594 " fill-opacity="1" fill-rule="nonzero"/><path fill="#b459a1" d="M 636.902344 151.34375 C 636.902344 167.570312 623.75 180.722656 607.523438 180.722656 C 591.300781 180.722656 578.144531 167.570312 578.144531 151.34375 C 578.144531 135.121094 591.300781 121.964844 607.523438 121.964844 C 623.75 121.964844 636.902344 135.121094 636.902344 151.34375 " fill-opacity="1" fill-rule="nonzero"/><path fill="#50b4f8" d="M 607.523438 158.691406 C 607.523438 162.75 604.238281 166.035156 600.179688 166.035156 C 596.117188 166.035156 592.832031 162.75 592.832031 158.691406 C 592.832031 154.628906 596.117188 151.34375 600.179688 151.34375 C 604.238281 151.34375 607.523438 154.628906 607.523438 158.691406 " fill-opacity="1" fill-rule="nonzero"/><path fill="#50b4f8" d="M 625.886719 144 C 625.886719 148.058594 622.601562 151.34375 618.539062 151.34375 C 614.480469 151.34375 611.195312 148.058594 611.195312 144 C 611.195312 139.941406 614.480469 136.65625 618.539062 136.65625 C 622.601562 136.65625 625.886719 139.941406 625.886719 144 " fill-opacity="1" fill-rule="nonzero"/><path fill="#eb8cb3" d="M 600.179688 144 L 592.832031 144 L 592.832031 136.65625 L 600.179688 136.65625 L 600.179688 144 " fill-opacity="1" fill-rule="nonzero"/><path fill="#eb8cb3" d="M 625.886719 169.707031 L 618.539062 169.707031 L 618.539062 162.363281 L 625.886719 162.363281 L 625.886719 169.707031 " fill-opacity="1" fill-rule="nonzero"/><path fill="#2d75bb" d="M 581.816406 118.292969 C 581.816406 122.351562 578.53125 125.636719 574.472656 125.636719 C 570.410156 125.636719 567.125 122.351562 567.125 118.292969 C 567.125 114.234375 570.410156 110.949219 574.472656 110.949219 C 578.53125 110.949219 581.816406 114.234375 581.816406 118.292969 " fill-opacity="1" fill-rule="nonzero"/><path fill="#2d75bb" d="M 633.230469 118.292969 C 633.230469 122.351562 636.515625 125.636719 640.574219 125.636719 C 644.636719 125.636719 647.921875 122.351562 647.921875 118.292969 C 647.921875 114.234375 644.636719 110.949219 640.574219 110.949219 C 636.515625 110.949219 633.230469 114.234375 633.230469 118.292969 " fill-opacity="1" fill-rule="nonzero"/><path fill="#2d75bb" d="M 636.902344 184.398438 C 636.902344 180.335938 640.1875 177.050781 644.246094 177.050781 C 648.308594 177.050781 651.59375 180.335938 651.59375 184.398438 C 651.59375 188.457031 648.308594 191.742188 644.246094 191.742188 C 640.1875 191.742188 636.902344 188.457031 636.902344 184.398438 " fill-opacity="1" fill-rule="nonzero"/><path fill="#2d75bb" d="M 581.816406 184.398438 C 581.816406 180.335938 578.53125 177.050781 574.472656 177.050781 C 570.410156 177.050781 567.125 180.335938 567.125 184.398438 C 567.125 188.457031 570.410156 191.742188 574.472656 191.742188 C 578.53125 191.742188 581.816406 188.457031 581.816406 184.398438 " fill-opacity="1" fill-rule="nonzero"/><g clip-path="url(#id2)"><path fill="#ffffff" d="M 1011.867188 350.652344 C 1011.867188 350.652344 981.039062 352.960938 863.789062 352.847656 C 493.382812 352.757812 236.765625 352.425781 236.765625 352.425781 C 226.46875 352.050781 211.125 351.152344 204.09375 348.6875 C 192.375 344.578125 192.183594 337.234375 192.183594 324.425781 C 192.546875 297.742188 192.183594 291.574219 195.457031 286.417969 C 201.351562 277.132812 214.085938 277.101562 231.742188 277.101562 C 231.742188 277.101562 337.964844 277.59375 727.207031 277.253906 C 971.808594 276.929688 1002.035156 277.226562 1002.035156 277.226562 C 1017.570312 277.542969 1023.398438 278.734375 1031.738281 283.929688 C 1038.109375 287.898438 1038.339844 297.105469 1037.957031 324.425781 C 1037.957031 342.234375 1036.152344 348.53125 1011.867188 350.652344 " fill-opacity="1" fill-rule="nonzero"/></g><g fill="#c4a0b7" fill-opacity="1"><g transform="translate(278.459272, 330.384688)"><g><path d="M 21.726562 -11.792969 C 16.929688 -10.421875 8.5625 -9.984375 9.882812 -17.421875 C 10.765625 -22.460938 15.464844 -26.523438 20.601562 -26.132812 C 25.300781 -25.738281 25.300781 -33.078125 20.601562 -33.472656 C 11.253906 -34.207031 2.886719 -25.738281 2.445312 -16.589844 C 2.203125 -11.941406 4.402344 -7.632812 8.515625 -5.285156 C 13.210938 -2.640625 18.742188 -3.328125 23.683594 -4.699219 C 28.234375 -6.019531 26.328125 -13.066406 21.726562 -11.792969 Z M 21.726562 -11.792969 "/></g></g></g><g fill="#c4a0b7" fill-opacity="1"><g transform="translate(307.229232, 330.384688)"><g><path d="M 20.945312 -34.15625 C 20.113281 -29.996094 19.425781 -25.738281 18.839844 -21.53125 L 12.039062 -21.53125 C 12.136719 -22.609375 12.28125 -23.636719 12.378906 -24.664062 C 12.675781 -26.914062 12.625 -29.605469 13.40625 -31.710938 C 15.070312 -36.113281 7.976562 -38.070312 6.3125 -33.667969 C 5.53125 -31.464844 5.53125 -28.773438 5.285156 -26.472656 C 4.941406 -23.878906 4.648438 -21.285156 4.355469 -18.691406 C 3.71875 -13.308594 3.082031 -7.925781 2.445312 -2.542969 C 1.910156 2.105469 9.25 2.054688 9.785156 -2.542969 C 10.226562 -6.460938 10.714844 -10.324219 11.15625 -14.191406 L 17.910156 -14.191406 C 17.566406 -11.15625 17.273438 -8.074219 17.027344 -5.039062 C 16.6875 -0.34375 24.027344 -0.34375 24.371094 -5.039062 C 25.054688 -14.191406 26.277344 -23.242188 28.039062 -32.199219 C 28.921875 -36.847656 21.875 -38.804688 20.945312 -34.15625 Z M 20.945312 -34.15625 "/></g></g></g><g fill="#c4a0b7" fill-opacity="1"><g transform="translate(337.809546, 330.384688)"><g><path d="M 20.40625 -10.324219 C 17.027344 -10.421875 13.652344 -10.324219 10.324219 -9.984375 C 10.570312 -11.84375 10.863281 -13.703125 11.109375 -15.609375 C 12.773438 -15.609375 14.4375 -15.511719 16.097656 -15.367188 C 18.105469 -15.167969 19.769531 -17.175781 19.769531 -19.035156 C 19.769531 -21.1875 18.105469 -22.511719 16.097656 -22.707031 C 14.828125 -22.804688 13.554688 -22.902344 12.234375 -22.902344 C 12.527344 -24.808594 12.871094 -26.71875 13.164062 -28.578125 C 15.660156 -28.578125 18.105469 -28.527344 20.601562 -28.332031 C 25.300781 -28.039062 25.300781 -35.378906 20.601562 -35.671875 C 17.078125 -35.917969 13.507812 -35.96875 9.984375 -35.867188 C 8.613281 -35.820312 7.632812 -35.136719 7.046875 -34.253906 C 6.800781 -33.863281 6.605469 -33.375 6.507812 -32.785156 C 4.894531 -23.832031 3.570312 -14.828125 2.445312 -5.773438 C 2.105469 -3.179688 5.039062 -1.910156 7.09375 -2.25 C 11.5 -2.9375 15.953125 -3.132812 20.40625 -2.984375 C 25.101562 -2.789062 25.101562 -10.128906 20.40625 -10.324219 Z M 20.40625 -10.324219 "/></g></g></g><g fill="#c4a0b7" fill-opacity="1"><g transform="translate(364.377722, 330.384688)"><g><path d="M 21.726562 -11.746094 C 16.929688 -10.375 8.5625 -9.933594 9.882812 -17.324219 C 10.765625 -22.363281 15.464844 -26.472656 20.601562 -26.03125 C 25.300781 -25.691406 25.300781 -33.03125 20.601562 -33.375 C 11.253906 -34.105469 2.886719 -25.640625 2.445312 -16.539062 C 2.203125 -11.890625 4.402344 -7.535156 8.515625 -5.234375 C 13.210938 -2.542969 18.742188 -3.277344 23.683594 -4.648438 C 28.234375 -5.921875 26.328125 -13.015625 21.726562 -11.746094 Z M 21.726562 -11.746094 "/></g></g></g><g fill="#c4a0b7" fill-opacity="1"><g transform="translate(393.147682, 330.384688)"><g><path d="M 24.417969 -30.828125 C 26.816406 -34.890625 20.453125 -38.609375 18.105469 -34.546875 C 16.539062 -31.855469 14.335938 -27.695312 11.449219 -26.03125 C 11.597656 -29.164062 11.695312 -32.34375 11.695312 -35.527344 C 11.746094 -40.273438 4.402344 -40.273438 4.355469 -35.527344 C 4.304688 -26.179688 3.71875 -16.832031 2.496094 -7.585938 C 2.203125 -5.578125 2.9375 -3.671875 5.039062 -3.035156 C 6.753906 -2.542969 9.296875 -3.671875 9.542969 -5.628906 C 10.128906 -9.6875 10.570312 -13.800781 10.914062 -17.910156 C 13.457031 -15.5625 15.070312 -12.28125 15.367188 -8.855469 C 15.804688 -4.160156 23.144531 -4.109375 22.707031 -8.855469 C 22.265625 -13.75 20.453125 -18.058594 17.421875 -21.582031 C 20.308594 -24.125 22.511719 -27.550781 24.417969 -30.828125 Z M 24.417969 -30.828125 "/></g></g></g><g fill="#c4a0b7" fill-opacity="1"><g transform="translate(420.547644, 330.384688)"><g/></g></g><g fill="#c4a0b7" fill-opacity="1"><g transform="translate(435.421908, 330.384688)"><g><path d="M 19.71875 -33.421875 C 19.378906 -30.585938 19.035156 -27.695312 18.644531 -24.859375 C 17.46875 -22.511719 13.847656 -18.691406 11.109375 -20.503906 C 8.367188 -22.363281 9.984375 -28.382812 10.960938 -30.632812 C 12.871094 -34.988281 6.214844 -38.070312 4.304688 -33.765625 C 1.664062 -27.597656 0.929688 -17.46875 8.023438 -13.847656 C 10.667969 -12.527344 13.507812 -12.527344 16.199219 -13.457031 C 15.316406 -11.351562 13.945312 -9.445312 11.746094 -8.464844 C 7.488281 -6.558594 10.03125 0.34375 14.386719 -1.613281 C 25.691406 -6.703125 25.59375 -21.628906 26.960938 -32.148438 C 27.550781 -36.847656 20.355469 -38.121094 19.71875 -33.421875 Z M 19.71875 -33.421875 "/></g></g></g><g fill="#c4a0b7" fill-opacity="1"><g transform="translate(464.876861, 330.384688)"><g><path d="M 27.207031 -29.851562 C 23.195312 -36.457031 12.722656 -37.289062 7.488281 -31.953125 C 2.347656 -27.550781 1.613281 -17.324219 3.082031 -11.597656 C 4.109375 -7.683594 6.703125 -3.570312 10.714844 -2.300781 C 14.875 -0.929688 19.476562 -2.445312 22.753906 -5.136719 C 26.082031 -7.925781 28.136719 -11.988281 28.824219 -16.246094 C 29.457031 -20.453125 29.507812 -26.082031 27.207031 -29.851562 Z M 18.300781 -10.816406 C 18.15625 -10.714844 18.058594 -10.617188 17.910156 -10.472656 C 16.34375 -9.152344 13.847656 -8.613281 12.183594 -9.882812 C 11.109375 -10.667969 10.617188 -11.988281 10.277344 -13.261719 C 9.785156 -15.367188 9.6875 -17.566406 9.933594 -19.71875 C 10.179688 -21.679688 10.667969 -24.171875 11.792969 -25.789062 C 12.820312 -27.207031 14.535156 -28.089844 16.296875 -28.136719 C 19.328125 -28.1875 21.285156 -26.132812 21.628906 -23.292969 C 22.214844 -18.988281 21.582031 -13.945312 18.300781 -10.816406 Z M 18.300781 -10.816406 "/></g></g></g><g fill="#c4a0b7" fill-opacity="1"><g transform="translate(496.533608, 330.384688)"><g><path d="M 28.578125 -27.746094 C 27.992188 -32.394531 20.648438 -32.445312 21.238281 -27.746094 C 21.921875 -22.410156 21.140625 -13.40625 15.414062 -10.714844 C 9.25 -7.78125 9.6875 -25.347656 9.882812 -28.234375 C 10.226562 -32.933594 2.886719 -32.933594 2.542969 -28.234375 C 1.957031 -19.964844 2.839844 -0.980469 15.707031 -3.132812 C 26.132812 -4.894531 29.703125 -18.9375 28.578125 -27.746094 Z M 28.578125 -27.746094 "/></g></g></g><g fill="#c4a0b7" fill-opacity="1"><g transform="translate(527.749998, 330.384688)"><g><path d="M 27.792969 -4.550781 C 25.101562 -8.269531 22.019531 -11.546875 18.496094 -14.386719 C 21.140625 -16.246094 23.339844 -18.789062 24.269531 -21.582031 C 26.132812 -27.207031 21.140625 -32.640625 15.464844 -32.394531 C 9.445312 -32.148438 5.480469 -26.570312 4.402344 -21.140625 C 2.984375 -14.09375 2.984375 -6.558594 2.445312 0.585938 C 2.054688 5.285156 9.394531 5.234375 9.785156 0.585938 C 10.082031 -3.328125 10.375 -7.195312 10.714844 -11.058594 C 14.875 -8.320312 18.496094 -4.894531 21.480469 -0.832031 C 24.222656 2.9375 30.632812 -0.734375 27.792969 -4.550781 Z M 14.730469 -20.894531 C 13.703125 -19.964844 12.722656 -19.28125 11.449219 -19.085938 C 11.597656 -19.917969 11.792969 -20.75 12.136719 -21.53125 C 12.476562 -22.511719 16.636719 -27.5 17.324219 -24.171875 C 17.519531 -23.339844 15.316406 -21.382812 14.730469 -20.894531 Z M 14.730469 -20.894531 "/></g></g></g><g fill="#c4a0b7" fill-opacity="1"><g transform="translate(558.721742, 330.384688)"><g/></g></g><g fill="#c4a0b7" fill-opacity="1"><g transform="translate(573.595996, 330.384688)"><g><path d="M 18.203125 -21.140625 C 16.929688 -21.972656 13.996094 -22.753906 13.40625 -24.320312 C 12.527344 -26.71875 15.804688 -28.429688 17.46875 -29.164062 C 21.726562 -31.171875 18.007812 -37.53125 13.75 -35.527344 C 7.195312 -32.445312 2.640625 -23.683594 9.199219 -18.058594 C 11.5 -16 16.050781 -15.21875 16.539062 -11.644531 C 16.734375 -10.082031 16 -8.710938 14.632812 -8.125 C 13.703125 -7.683594 10.277344 -7.144531 9.492188 -8.222656 C 6.65625 -11.941406 0.292969 -8.320312 3.132812 -4.550781 C 8.90625 3.082031 22.707031 -0.0976562 23.78125 -9.933594 C 24.269531 -14.386719 21.921875 -18.644531 18.203125 -21.140625 Z M 18.203125 -21.140625 "/></g></g></g><g fill="#c4a0b7" fill-opacity="1"><g transform="translate(599.919526, 330.384688)"><g><path d="M 19.71875 -33.421875 C 19.378906 -30.585938 19.035156 -27.695312 18.644531 -24.859375 C 17.46875 -22.511719 13.847656 -18.691406 11.109375 -20.503906 C 8.367188 -22.363281 9.984375 -28.382812 10.960938 -30.632812 C 12.871094 -34.988281 6.214844 -38.070312 4.304688 -33.765625 C 1.664062 -27.597656 0.929688 -17.46875 8.023438 -13.847656 C 10.667969 -12.527344 13.507812 -12.527344 16.199219 -13.457031 C 15.316406 -11.351562 13.945312 -9.445312 11.746094 -8.464844 C 7.488281 -6.558594 10.03125 0.34375 14.386719 -1.613281 C 25.691406 -6.703125 25.59375 -21.628906 26.960938 -32.148438 C 27.550781 -36.847656 20.355469 -38.121094 19.71875 -33.421875 Z M 19.71875 -33.421875 "/></g></g></g><g fill="#c4a0b7" fill-opacity="1"><g transform="translate(629.374489, 330.384688)"><g><path d="M 36.503906 -17.371094 C 36.457031 -21.628906 35.917969 -26.863281 32.492188 -29.851562 C 28.722656 -33.175781 25.054688 -31.414062 22.214844 -28.039062 C 22.117188 -28.1875 21.972656 -28.382812 21.875 -28.578125 C 19.230469 -32.640625 13.652344 -32.34375 10.421875 -29.214844 C 6.949219 -25.789062 5.1875 -20.210938 4.160156 -15.609375 C 3.082031 -10.570312 2.742188 -5.382812 2.445312 -0.246094 C 2.152344 4.453125 9.492188 4.453125 9.785156 -0.246094 C 10.128906 -6.410156 10.519531 -12.675781 12.625 -18.546875 C 13.113281 -19.820312 13.652344 -21.089844 14.386719 -22.3125 C 14.632812 -22.707031 15.265625 -24.027344 15.855469 -24.171875 C 15.855469 -24.171875 15.902344 -24.171875 15.902344 -24.222656 C 15.902344 -24.125 15.902344 -24.074219 16 -23.976562 C 16.589844 -23.195312 16.394531 -20.894531 16.441406 -19.964844 C 16.492188 -18.203125 16.394531 -16.394531 16.199219 -14.632812 C 15.804688 -10.570312 22.753906 -9.589844 23.441406 -13.652344 C 23.832031 -16.296875 24.664062 -18.742188 26.082031 -20.992188 C 26.570312 -21.679688 27.648438 -22.558594 28.285156 -23.390625 C 28.382812 -22.609375 28.773438 -21.824219 28.871094 -21.042969 C 30.046875 -14.582031 28.773438 -7.390625 28.136719 -0.878906 C 27.648438 3.816406 34.988281 3.769531 35.476562 -0.878906 C 36.015625 -6.363281 36.601562 -11.890625 36.503906 -17.371094 Z M 36.503906 -17.371094 "/></g></g></g><g fill="#c4a0b7" fill-opacity="1"><g transform="translate(668.370489, 330.384688)"><g><path d="M 19.769531 -33.375 C 16.785156 -34.546875 13.261719 -35.035156 10.226562 -33.863281 C 6.753906 -32.542969 5.53125 -29.605469 5.136719 -26.132812 C 4.109375 -17.371094 3.328125 -8.613281 2.445312 0.195312 C 1.957031 4.894531 9.296875 4.84375 9.785156 0.195312 C 10.179688 -3.523438 10.519531 -7.242188 10.914062 -10.960938 C 17.273438 -9.445312 24.566406 -11.792969 27.5 -18.007812 C 30.730469 -24.808594 25.984375 -30.828125 19.769531 -33.375 Z M 11.695312 -18.351562 C 11.84375 -19.769531 11.941406 -21.140625 12.085938 -22.558594 C 12.183594 -23.585938 12.039062 -25.300781 12.476562 -26.132812 C 12.917969 -27.0625 12.378906 -26.863281 13.457031 -27.207031 C 15.953125 -27.941406 21.480469 -25.152344 21.238281 -22.265625 C 20.894531 -17.8125 14.925781 -17.421875 11.695312 -18.351562 Z M 11.695312 -18.351562 "/></g></g></g><g fill="#c4a0b7" fill-opacity="1"><g transform="translate(699.391169, 330.384688)"><g><path d="M 22.265625 -33.617188 C 16.832031 -34.304688 11.402344 -34.402344 5.921875 -33.8125 C 1.273438 -33.375 1.222656 -26.03125 5.921875 -26.523438 C 7.390625 -26.667969 8.808594 -26.71875 10.226562 -26.816406 C 9.785156 -19.621094 9.394531 -12.476562 8.953125 -5.332031 C 8.660156 -0.585938 16 -0.636719 16.296875 -5.332031 C 16.734375 -12.429688 17.128906 -19.574219 17.566406 -26.71875 C 19.132812 -26.621094 20.699219 -26.472656 22.265625 -26.277344 C 26.960938 -25.640625 26.914062 -32.980469 22.265625 -33.617188 Z M 22.265625 -33.617188 "/></g></g></g><g fill="#c4a0b7" fill-opacity="1"><g transform="translate(727.622898, 330.384688)"><g><path d="M 27.207031 -29.851562 C 23.195312 -36.457031 12.722656 -37.289062 7.488281 -31.953125 C 2.347656 -27.550781 1.613281 -17.324219 3.082031 -11.597656 C 4.109375 -7.683594 6.703125 -3.570312 10.714844 -2.300781 C 14.875 -0.929688 19.476562 -2.445312 22.753906 -5.136719 C 26.082031 -7.925781 28.136719 -11.988281 28.824219 -16.246094 C 29.457031 -20.453125 29.507812 -26.082031 27.207031 -29.851562 Z M 18.300781 -10.816406 C 18.15625 -10.714844 18.058594 -10.617188 17.910156 -10.472656 C 16.34375 -9.152344 13.847656 -8.613281 12.183594 -9.882812 C 11.109375 -10.667969 10.617188 -11.988281 10.277344 -13.261719 C 9.785156 -15.367188 9.6875 -17.566406 9.933594 -19.71875 C 10.179688 -21.679688 10.667969 -24.171875 11.792969 -25.789062 C 12.820312 -27.207031 14.535156 -28.089844 16.296875 -28.136719 C 19.328125 -28.1875 21.285156 -26.132812 21.628906 -23.292969 C 22.214844 -18.988281 21.582031 -13.945312 18.300781 -10.816406 Z M 18.300781 -10.816406 "/></g></g></g><g fill="#c4a0b7" fill-opacity="1"><g transform="translate(759.279645, 330.384688)"><g><path d="M 36.503906 -17.371094 C 36.457031 -21.628906 35.917969 -26.863281 32.492188 -29.851562 C 28.722656 -33.175781 25.054688 -31.414062 22.214844 -28.039062 C 22.117188 -28.1875 21.972656 -28.382812 21.875 -28.578125 C 19.230469 -32.640625 13.652344 -32.34375 10.421875 -29.214844 C 6.949219 -25.789062 5.1875 -20.210938 4.160156 -15.609375 C 3.082031 -10.570312 2.742188 -5.382812 2.445312 -0.246094 C 2.152344 4.453125 9.492188 4.453125 9.785156 -0.246094 C 10.128906 -6.410156 10.519531 -12.675781 12.625 -18.546875 C 13.113281 -19.820312 13.652344 -21.089844 14.386719 -22.3125 C 14.632812 -22.707031 15.265625 -24.027344 15.855469 -24.171875 C 15.855469 -24.171875 15.902344 -24.171875 15.902344 -24.222656 C 15.902344 -24.125 15.902344 -24.074219 16 -23.976562 C 16.589844 -23.195312 16.394531 -20.894531 16.441406 -19.964844 C 16.492188 -18.203125 16.394531 -16.394531 16.199219 -14.632812 C 15.804688 -10.570312 22.753906 -9.589844 23.441406 -13.652344 C 23.832031 -16.296875 24.664062 -18.742188 26.082031 -20.992188 C 26.570312 -21.679688 27.648438 -22.558594 28.285156 -23.390625 C 28.382812 -22.609375 28.773438 -21.824219 28.871094 -21.042969 C 30.046875 -14.582031 28.773438 -7.390625 28.136719 -0.878906 C 27.648438 3.816406 34.988281 3.769531 35.476562 -0.878906 C 36.015625 -6.363281 36.601562 -11.890625 36.503906 -17.371094 Z M 36.503906 -17.371094 "/></g></g></g><g fill="#c4a0b7" fill-opacity="1"><g transform="translate(798.275645, 330.384688)"><g><path d="M 18.203125 -21.140625 C 16.929688 -21.972656 13.996094 -22.753906 13.40625 -24.320312 C 12.527344 -26.71875 15.804688 -28.429688 17.46875 -29.164062 C 21.726562 -31.171875 18.007812 -37.53125 13.75 -35.527344 C 7.195312 -32.445312 2.640625 -23.683594 9.199219 -18.058594 C 11.5 -16 16.050781 -15.21875 16.539062 -11.644531 C 16.734375 -10.082031 16 -8.710938 14.632812 -8.125 C 13.703125 -7.683594 10.277344 -7.144531 9.492188 -8.222656 C 6.65625 -11.941406 0.292969 -8.320312 3.132812 -4.550781 C 8.90625 3.082031 22.707031 -0.0976562 23.78125 -9.933594 C 24.269531 -14.386719 21.921875 -18.644531 18.203125 -21.140625 Z M 18.203125 -21.140625 "/></g></g></g><g fill="#c4a0b7" fill-opacity="1"><g transform="translate(824.599174, 330.384688)"><g/></g></g><g fill="#c4a0b7" fill-opacity="1"><g transform="translate(839.473429, 330.384688)"><g><path d="M 20.945312 -34.15625 C 20.113281 -29.996094 19.425781 -25.738281 18.839844 -21.53125 L 12.039062 -21.53125 C 12.136719 -22.609375 12.28125 -23.636719 12.378906 -24.664062 C 12.675781 -26.914062 12.625 -29.605469 13.40625 -31.710938 C 15.070312 -36.113281 7.976562 -38.070312 6.3125 -33.667969 C 5.53125 -31.464844 5.53125 -28.773438 5.285156 -26.472656 C 4.941406 -23.878906 4.648438 -21.285156 4.355469 -18.691406 C 3.71875 -13.308594 3.082031 -7.925781 2.445312 -2.542969 C 1.910156 2.105469 9.25 2.054688 9.785156 -2.542969 C 10.226562 -6.460938 10.714844 -10.324219 11.15625 -14.191406 L 17.910156 -14.191406 C 17.566406 -11.15625 17.273438 -8.074219 17.027344 -5.039062 C 16.6875 -0.34375 24.027344 -0.34375 24.371094 -5.039062 C 25.054688 -14.191406 26.277344 -23.242188 28.039062 -32.199219 C 28.921875 -36.847656 21.875 -38.804688 20.945312 -34.15625 Z M 20.945312 -34.15625 "/></g></g></g><g fill="#c4a0b7" fill-opacity="1"><g transform="translate(870.053753, 330.384688)"><g><path d="M 20.40625 -10.324219 C 17.027344 -10.421875 13.652344 -10.324219 10.324219 -9.984375 C 10.570312 -11.84375 10.863281 -13.703125 11.109375 -15.609375 C 12.773438 -15.609375 14.4375 -15.511719 16.097656 -15.367188 C 18.105469 -15.167969 19.769531 -17.175781 19.769531 -19.035156 C 19.769531 -21.1875 18.105469 -22.511719 16.097656 -22.707031 C 14.828125 -22.804688 13.554688 -22.902344 12.234375 -22.902344 C 12.527344 -24.808594 12.871094 -26.71875 13.164062 -28.578125 C 15.660156 -28.578125 18.105469 -28.527344 20.601562 -28.332031 C 25.300781 -28.039062 25.300781 -35.378906 20.601562 -35.671875 C 17.078125 -35.917969 13.507812 -35.96875 9.984375 -35.867188 C 8.613281 -35.820312 7.632812 -35.136719 7.046875 -34.253906 C 6.800781 -33.863281 6.605469 -33.375 6.507812 -32.785156 C 4.894531 -23.832031 3.570312 -14.828125 2.445312 -5.773438 C 2.105469 -3.179688 5.039062 -1.910156 7.09375 -2.25 C 11.5 -2.9375 15.953125 -3.132812 20.40625 -2.984375 C 25.101562 -2.789062 25.101562 -10.128906 20.40625 -10.324219 Z M 20.40625 -10.324219 "/></g></g></g><g fill="#c4a0b7" fill-opacity="1"><g transform="translate(896.621929, 330.384688)"><g><path d="M 27.792969 -4.550781 C 25.101562 -8.269531 22.019531 -11.546875 18.496094 -14.386719 C 21.140625 -16.246094 23.339844 -18.789062 24.269531 -21.582031 C 26.132812 -27.207031 21.140625 -32.640625 15.464844 -32.394531 C 9.445312 -32.148438 5.480469 -26.570312 4.402344 -21.140625 C 2.984375 -14.09375 2.984375 -6.558594 2.445312 0.585938 C 2.054688 5.285156 9.394531 5.234375 9.785156 0.585938 C 10.082031 -3.328125 10.375 -7.195312 10.714844 -11.058594 C 14.875 -8.320312 18.496094 -4.894531 21.480469 -0.832031 C 24.222656 2.9375 30.632812 -0.734375 27.792969 -4.550781 Z M 14.730469 -20.894531 C 13.703125 -19.964844 12.722656 -19.28125 11.449219 -19.085938 C 11.597656 -19.917969 11.792969 -20.75 12.136719 -21.53125 C 12.476562 -22.511719 16.636719 -27.5 17.324219 -24.171875 C 17.519531 -23.339844 15.316406 -21.382812 14.730469 -20.894531 Z M 14.730469 -20.894531 "/></g></g></g><g fill="#c4a0b7" fill-opacity="1"><g transform="translate(927.593672, 330.384688)"><g><path d="M 20.40625 -10.324219 C 17.027344 -10.421875 13.652344 -10.324219 10.324219 -9.984375 C 10.570312 -11.84375 10.863281 -13.703125 11.109375 -15.609375 C 12.773438 -15.609375 14.4375 -15.511719 16.097656 -15.367188 C 18.105469 -15.167969 19.769531 -17.175781 19.769531 -19.035156 C 19.769531 -21.1875 18.105469 -22.511719 16.097656 -22.707031 C 14.828125 -22.804688 13.554688 -22.902344 12.234375 -22.902344 C 12.527344 -24.808594 12.871094 -26.71875 13.164062 -28.578125 C 15.660156 -28.578125 18.105469 -28.527344 20.601562 -28.332031 C 25.300781 -28.039062 25.300781 -35.378906 20.601562 -35.671875 C 17.078125 -35.917969 13.507812 -35.96875 9.984375 -35.867188 C 8.613281 -35.820312 7.632812 -35.136719 7.046875 -34.253906 C 6.800781 -33.863281 6.605469 -33.375 6.507812 -32.785156 C 4.894531 -23.832031 3.570312 -14.828125 2.445312 -5.773438 C 2.105469 -3.179688 5.039062 -1.910156 7.09375 -2.25 C 11.5 -2.9375 15.953125 -3.132812 20.40625 -2.984375 C 25.101562 -2.789062 25.101562 -10.128906 20.40625 -10.324219 Z M 20.40625 -10.324219 "/></g></g></g><g fill="#c4a0b7" fill-opacity="1"><g transform="translate(954.161848, 330.384688)"><g><path d="M 10.277344 -44.335938 C 9.882812 -48.984375 2.542969 -49.03125 2.9375 -44.335938 C 3.71875 -34.9375 3.671875 -25.542969 2.839844 -16.199219 C 2.398438 -11.5 9.738281 -11.546875 10.179688 -16.199219 C 11.011719 -25.542969 11.058594 -34.9375 10.277344 -44.335938 Z M 6.410156 -7.632812 C 5.433594 -7.585938 4.503906 -7.242188 3.816406 -6.558594 L 3.472656 -6.261719 C 2.839844 -5.578125 2.445312 -4.601562 2.445312 -3.671875 C 2.445312 -2.742188 2.839844 -1.664062 3.472656 -1.078125 C 4.207031 -0.390625 5.089844 0.0507812 6.066406 0 C 7.046875 0 7.976562 -0.34375 8.660156 -1.078125 C 8.808594 -1.175781 8.90625 -1.273438 9.003906 -1.371094 C 9.640625 -2.007812 10.082031 -3.035156 10.082031 -3.964844 C 10.082031 -4.84375 9.640625 -5.921875 9.003906 -6.558594 C 8.269531 -7.195312 7.390625 -7.683594 6.410156 -7.632812 Z M 6.410156 -7.632812 "/></g></g></g><g clip-path="url(#id3)"><g clip-path="url(#id4)"><g clip-path="url(#id5)"><path fill="#b09adf" d="M 786.375 78.222656 C 788.78125 78.660156 790.546875 80.609375 790.886719 82.90625 C 793.152344 82.378906 795.613281 83.308594 796.90625 85.382812 C 798.035156 87.195312 797.988281 89.421875 796.980469 91.152344 C 798.554688 92.394531 799.414062 94.445312 799.03125 96.546875 C 798.523438 99.324219 796.007812 101.253906 793.257812 101.113281 C 794.414062 103.761719 793.335938 106.921875 790.734375 108.285156 C 788.921875 109.234375 786.816406 109.078125 785.1875 108.066406 C 783.96875 109.039062 782.351562 109.503906 780.707031 109.203125 C 778.300781 108.765625 776.53125 106.820312 776.191406 104.519531 C 773.929688 105.046875 771.46875 104.117188 770.175781 102.042969 C 769.046875 100.230469 769.09375 98.007812 770.101562 96.273438 C 768.527344 95.03125 767.664062 92.980469 768.050781 90.878906 C 768.519531 88.308594 770.710938 86.460938 773.21875 86.316406 C 772.804688 83.984375 773.917969 81.539062 776.121094 80.386719 C 777.691406 79.5625 779.488281 79.570312 781 80.25 C 782.242188 78.6875 784.285156 77.839844 786.375 78.222656 Z M 786.375 78.222656 " fill-opacity="1" fill-rule="nonzero"/></g></g></g><g clip-path="url(#id6)"><g clip-path="url(#id7)"><g clip-path="url(#id8)"><path fill="#fff9ed" d="M 785.179688 88.398438 C 786.34375 89.15625 787.085938 90.257812 787.273438 91.496094 C 787.347656 91.996094 787.335938 92.507812 787.242188 93.011719 C 786.875 95.011719 785.273438 96.886719 783.160156 97.570312 C 781.839844 97.996094 780.707031 97.925781 779.796875 97.363281 C 778.355469 96.46875 777.875 94.597656 777.71875 93.5625 C 777.335938 91.042969 778.769531 87.953125 781.429688 87.550781 C 782.699219 87.359375 784.066406 87.667969 785.179688 88.398438 Z M 785.179688 88.398438 " fill-opacity="1" fill-rule="nonzero"/></g></g></g><g clip-path="url(#id9)"><g clip-path="url(#id10)"><g clip-path="url(#id11)"><g clip-path="url(#id12)"><g clip-path="url(#id13)"><path fill="#fdafab" d="M 753.105469 63.164062 C 752.371094 64.160156 750.921875 64.269531 749.761719 63.40625 C 748.699219 62.617188 748.554688 61.398438 749.386719 60.265625 C 750.078125 59.328125 751.320312 59.164062 752.269531 59.882812 C 753.375 60.722656 753.769531 62.257812 753.105469 63.164062 Z M 756.957031 53.003906 C 756.441406 52.6875 755.863281 52.679688 755.414062 53.046875 C 754.738281 53.597656 754.085938 54.207031 753.539062 54.882812 C 752.964844 55.597656 752.527344 56.421875 751.882812 57.421875 C 751.765625 56.699219 751.691406 56.230469 751.613281 55.765625 C 751.4375 54.742188 751.324219 53.703125 751.066406 52.703125 C 750.785156 51.625 750.179688 51.179688 749.382812 51.269531 C 748.601562 51.355469 748.03125 51.972656 748.003906 53.066406 C 747.980469 53.984375 748.148438 54.914062 748.3125 55.820312 C 748.453125 56.601562 748.710938 57.359375 749 58.429688 C 748.171875 57.769531 747.640625 57.242188 747.011719 56.867188 C 746.277344 56.429688 745.496094 55.992188 744.675781 55.792969 C 743.480469 55.503906 742.601562 56.476562 742.980469 57.648438 C 743.167969 58.234375 743.605469 58.785156 744.054688 59.222656 C 744.734375 59.878906 745.519531 60.425781 746.464844 61.179688 C 745.726562 61.3125 745.257812 61.371094 744.800781 61.484375 C 743.847656 61.726562 742.855469 61.890625 741.964844 62.289062 C 740.800781 62.808594 740.769531 64.148438 741.898438 64.699219 C 742.453125 64.96875 743.160156 65.03125 743.796875 65.011719 C 744.652344 64.984375 745.503906 64.78125 746.480469 64.636719 C 746.070312 65.367188 745.652344 65.957031 745.386719 66.609375 C 745.121094 67.261719 744.910156 67.96875 744.859375 68.664062 C 744.808594 69.402344 745.417969 69.8125 746.066406 69.433594 C 747 68.890625 747.851562 68.183594 748.699219 67.496094 C 749.128906 67.144531 749.480469 66.6875 750.0625 66.074219 C 750.015625 67.074219 749.964844 67.726562 749.964844 68.378906 C 749.960938 69.613281 750.257812 70.753906 750.980469 71.773438 C 751.335938 72.273438 751.800781 72.585938 752.351562 72.386719 C 752.683594 72.269531 753.035156 71.820312 753.125 71.460938 C 753.355469 70.5625 753.476562 69.632812 753.570312 68.707031 C 753.652344 67.917969 753.644531 67.121094 753.683594 66.097656 C 754.300781 66.589844 754.699219 66.945312 755.132812 67.25 C 756 67.855469 756.980469 68.179688 758.046875 68.148438 C 758.894531 68.121094 759.265625 67.59375 758.941406 66.8125 C 758.691406 66.210938 758.34375 65.65625 757.914062 65.167969 C 757.117188 64.269531 756.238281 63.449219 755.242188 62.445312 C 756.269531 62.25 757.078125 62.140625 757.863281 61.9375 C 758.65625 61.734375 759.433594 61.480469 760.1875 61.171875 C 760.78125 60.925781 761.195312 60.464844 761.109375 59.757812 C 761.039062 59.140625 760.609375 58.863281 760.066406 58.632812 C 758.773438 58.09375 757.523438 58.238281 756.25 58.765625 C 755.738281 58.976562 755.277344 59.441406 754.53125 59.304688 C 755.164062 58.507812 755.796875 57.867188 756.25 57.117188 C 756.753906 56.269531 757.167969 55.371094 757.480469 54.441406 C 757.65625 53.925781 757.5 53.339844 756.957031 53.003906 " fill-opacity="1" fill-rule="nonzero"/></g></g></g></g></g><g clip-path="url(#id14)"><path fill="#c4a0b7" d="M 760.03125 217.710938 C 759.964844 219.277344 758.953125 220.417969 758.007812 220.492188 C 756.894531 220.578125 755.417969 219.210938 755.582031 217.203125 C 754.714844 217.984375 753.503906 218.148438 752.636719 217.648438 C 752.011719 217.289062 751.625 216.636719 751.578125 216.007812 C 751.5 214.855469 752.546875 213.628906 754.195312 213.28125 C 752.46875 213.3125 751.257812 211.925781 751.414062 210.6875 C 751.570312 209.457031 753.09375 208.4375 754.40625 208.851562 C 755.226562 209.109375 755.828125 209.914062 755.949219 210.882812 C 755.796875 209.742188 756.316406 208.621094 757.273438 208.089844 C 758.453125 207.429688 760.144531 207.730469 760.855469 208.90625 C 761.367188 209.753906 761.277344 210.882812 760.621094 211.773438 C 761.722656 210.445312 763.4375 210.316406 764.25 211.035156 C 764.871094 211.585938 764.949219 212.628906 764.617188 213.421875 C 764.09375 214.640625 762.734375 214.84375 762.679688 214.855469 C 762.792969 214.910156 764.003906 215.453125 764.25 216.734375 C 764.347656 217.300781 764.304688 218.191406 763.738281 218.65625 C 762.945312 219.289062 761.277344 219.070312 760.03125 217.710938 Z M 760.03125 217.710938 " fill-opacity="1" fill-rule="nonzero"/></g><path fill="#ffffff" d="M 755.960938 212.761719 C 756.828125 211.628906 759.164062 211.578125 760.144531 212.71875 C 760.8125 213.5 760.789062 214.792969 759.855469 215.550781 C 758.832031 216.375 757.195312 216.191406 756.308594 215.367188 C 755.550781 214.660156 755.382812 213.519531 755.960938 212.761719 Z M 755.960938 212.761719 " fill-opacity="1" fill-rule="nonzero"/><g clip-path="url(#id15)"><g clip-path="url(#id16)"><g clip-path="url(#id17)"><path fill="#b09adf" d="M 468.703125 182.195312 C 471.109375 182.636719 472.875 184.582031 473.214844 186.882812 C 475.480469 186.351562 477.941406 187.28125 479.234375 189.355469 C 480.363281 191.167969 480.316406 193.394531 479.308594 195.128906 C 480.882812 196.367188 481.746094 198.417969 481.359375 200.519531 C 480.851562 203.296875 478.335938 205.226562 475.585938 205.085938 C 476.742188 207.738281 475.664062 210.898438 473.0625 212.257812 C 471.25 213.207031 469.144531 213.054688 467.519531 212.042969 C 466.296875 213.015625 464.683594 213.480469 463.035156 213.179688 C 460.628906 212.738281 458.859375 210.792969 458.523438 208.492188 C 456.257812 209.023438 453.796875 208.09375 452.503906 206.015625 C 451.375 204.207031 451.421875 201.980469 452.429688 200.246094 C 450.855469 199.007812 449.992188 196.953125 450.378906 194.855469 C 450.847656 192.28125 453.039062 190.4375 455.546875 190.289062 C 455.132812 187.957031 456.246094 185.511719 458.449219 184.359375 C 460.019531 183.535156 461.816406 183.542969 463.328125 184.222656 C 464.570312 182.664062 466.613281 181.8125 468.703125 182.195312 Z M 468.703125 182.195312 " fill-opacity="1" fill-rule="nonzero"/></g></g></g><g clip-path="url(#id18)"><g clip-path="url(#id19)"><g clip-path="url(#id20)"><path fill="#fff9ed" d="M 467.507812 192.371094 C 468.671875 193.128906 469.414062 194.230469 469.601562 195.46875 C 469.675781 195.972656 469.664062 196.480469 469.570312 196.984375 C 469.207031 198.984375 467.601562 200.863281 465.488281 201.542969 C 464.167969 201.96875 463.035156 201.902344 462.128906 201.335938 C 460.683594 200.445312 460.203125 198.574219 460.046875 197.539062 C 459.667969 195.015625 461.097656 191.925781 463.761719 191.523438 C 465.027344 191.332031 466.394531 191.640625 467.507812 192.371094 Z M 467.507812 192.371094 " fill-opacity="1" fill-rule="nonzero"/></g></g></g><g clip-path="url(#id21)"><g clip-path="url(#id22)"><g clip-path="url(#id23)"><g clip-path="url(#id24)"><g clip-path="url(#id25)"><path fill="#fdafab" d="M 443.914062 84.71875 C 443.179688 85.71875 441.730469 85.824219 440.570312 84.964844 C 439.507812 84.175781 439.363281 82.953125 440.195312 81.820312 C 440.886719 80.886719 442.128906 80.71875 443.078125 81.4375 C 444.183594 82.277344 444.578125 83.816406 443.914062 84.71875 Z M 447.765625 74.558594 C 447.25 74.242188 446.671875 74.238281 446.222656 74.601562 C 445.546875 75.152344 444.894531 75.761719 444.347656 76.4375 C 443.773438 77.152344 443.335938 77.976562 442.691406 78.980469 C 442.574219 78.253906 442.5 77.785156 442.421875 77.320312 C 442.246094 76.296875 442.132812 75.257812 441.875 74.261719 C 441.59375 73.183594 440.988281 72.738281 440.191406 72.824219 C 439.410156 72.910156 438.839844 73.527344 438.8125 74.621094 C 438.789062 75.539062 438.957031 76.46875 439.121094 77.375 C 439.261719 78.15625 439.519531 78.914062 439.808594 79.984375 C 438.980469 79.324219 438.449219 78.796875 437.820312 78.421875 C 437.085938 77.984375 436.304688 77.546875 435.484375 77.347656 C 434.289062 77.058594 433.410156 78.03125 433.789062 79.207031 C 433.976562 79.792969 434.414062 80.34375 434.863281 80.777344 C 435.542969 81.4375 436.328125 81.980469 437.273438 82.734375 C 436.535156 82.867188 436.066406 82.925781 435.609375 83.042969 C 434.65625 83.285156 433.664062 83.445312 432.773438 83.84375 C 431.609375 84.367188 431.578125 85.703125 432.707031 86.253906 C 433.261719 86.523438 433.96875 86.589844 434.605469 86.566406 C 435.460938 86.539062 436.3125 86.339844 437.289062 86.195312 C 436.878906 86.921875 436.460938 87.511719 436.195312 88.167969 C 435.929688 88.820312 435.71875 89.527344 435.667969 90.21875 C 435.617188 90.957031 436.226562 91.367188 436.875 90.992188 C 437.808594 90.445312 438.660156 89.738281 439.507812 89.050781 C 439.9375 88.699219 440.289062 88.246094 440.871094 87.632812 C 440.824219 88.628906 440.773438 89.28125 440.773438 89.933594 C 440.769531 91.167969 441.066406 92.308594 441.789062 93.328125 C 442.144531 93.828125 442.609375 94.140625 443.160156 93.945312 C 443.492188 93.824219 443.84375 93.375 443.933594 93.015625 C 444.164062 92.117188 444.285156 91.1875 444.378906 90.265625 C 444.460938 89.476562 444.453125 88.675781 444.492188 87.652344 C 445.109375 88.144531 445.507812 88.5 445.941406 88.804688 C 446.808594 89.414062 447.789062 89.734375 448.855469 89.703125 C 449.703125 89.679688 450.074219 89.148438 449.75 88.371094 C 449.5 87.769531 449.152344 87.210938 448.722656 86.722656 C 447.925781 85.828125 447.046875 85.003906 446.050781 84 C 447.078125 83.804688 447.886719 83.695312 448.671875 83.492188 C 449.464844 83.292969 450.242188 83.035156 450.996094 82.726562 C 451.589844 82.480469 452.003906 82.019531 451.917969 81.3125 C 451.847656 80.695312 451.417969 80.417969 450.875 80.191406 C 449.582031 79.648438 448.332031 79.792969 447.058594 80.320312 C 446.546875 80.53125 446.085938 80.996094 445.339844 80.859375 C 445.976562 80.066406 446.605469 79.421875 447.058594 78.671875 C 447.5625 77.824219 447.976562 76.929688 448.289062 75.996094 C 448.464844 75.480469 448.308594 74.894531 447.765625 74.558594 " fill-opacity="1" fill-rule="nonzero"/></g></g></g></g></g><g clip-path="url(#id26)"><path fill="#c4a0b7" d="M 473.777344 57.738281 C 473.710938 59.304688 472.699219 60.445312 471.753906 60.519531 C 470.640625 60.605469 469.164062 59.238281 469.328125 57.230469 C 468.460938 58.011719 467.25 58.175781 466.382812 57.675781 C 465.757812 57.316406 465.371094 56.664062 465.324219 56.035156 C 465.246094 54.882812 466.292969 53.65625 467.9375 53.308594 C 466.214844 53.339844 465.003906 51.953125 465.160156 50.714844 C 465.3125 49.488281 466.839844 48.464844 468.152344 48.878906 C 468.972656 49.140625 469.574219 49.941406 469.695312 50.910156 C 469.539062 49.769531 470.0625 48.648438 471.019531 48.117188 C 472.199219 47.457031 473.890625 47.757812 474.601562 48.933594 C 475.113281 49.78125 475.023438 50.910156 474.367188 51.800781 C 475.46875 50.476562 477.183594 50.34375 477.992188 51.0625 C 478.617188 51.613281 478.695312 52.65625 478.359375 53.449219 C 477.839844 54.667969 476.480469 54.875 476.425781 54.882812 C 476.535156 54.9375 477.75 55.480469 477.992188 56.761719 C 478.09375 57.328125 478.050781 58.21875 477.480469 58.683594 C 476.691406 59.316406 475.023438 59.097656 473.777344 57.738281 Z M 473.777344 57.738281 " fill-opacity="1" fill-rule="nonzero"/></g><path fill="#ffffff" d="M 469.707031 52.789062 C 470.574219 51.660156 472.910156 51.605469 473.890625 52.746094 C 474.558594 53.527344 474.535156 54.820312 473.601562 55.578125 C 472.578125 56.40625 470.941406 56.21875 470.050781 55.394531 C 469.296875 54.6875 469.128906 53.546875 469.707031 52.789062 Z M 469.707031 52.789062 " fill-opacity="1" fill-rule="nonzero"/></svg>